<svg width="391" height="242" viewBox="0 0 391 242" fill="none" xmlns="http://www.w3.org/2000/svg">
<path d="M-12.0888 79.6158C-12.5293 79.6158 -12.9592 79.3975 -13.2171 79.0045C-13.5824 78.4369 -13.4857 77.6729 -12.9806 77.2253L13.4543 53.8342C13.6477 53.6595 13.8842 53.5504 14.1421 53.5176L45.6921 48.9005C46.3476 48.8023 46.9816 49.2061 47.175 49.861C47.3684 50.505 47.0676 51.2036 46.4658 51.4874L-11.5192 79.4848C-11.7019 79.5721 -11.8953 79.6158 -12.0888 79.6158ZM14.9265 56.1591L-3.82515 72.7501L37.3103 52.8845L14.9265 56.1591Z" fill="#303437" fill-opacity="0.4"/>
<path d="M14.3463 56.2355C13.7767 56.2355 13.2609 55.8753 13.0782 55.3186C12.8633 54.6964 13.1212 54.0197 13.68 53.6923L79.8856 15.2054C80.4766 14.867 81.2181 15.0198 81.6264 15.5656C82.0348 16.1113 81.9703 16.8863 81.4867 17.3666C68.5057 30.181 61.3059 37.254 46.8204 51.2473C46.6162 51.4437 46.3583 51.5638 46.0897 51.6075L14.5397 56.2246C14.4752 56.2246 14.4107 56.2355 14.3463 56.2355ZM71.9766 22.9442L21.1269 52.5025L45.2837 48.966C56.481 38.1491 63.3154 31.469 71.9766 22.9442Z" fill="#303437" fill-opacity="0.4"/>
<path d="M14.9695 97.604C14.7008 97.604 14.443 97.5276 14.2173 97.3638C11.4879 95.4755 8.7584 93.5435 6.09341 91.6552C-1.28904 86.4268 -8.2524 81.4823 -12.6475 79.4848C-13.1203 79.2665 -13.4319 78.7862 -13.4427 78.2514C-13.4534 77.7165 -13.1526 77.2363 -12.6797 77.007L45.3053 49.0097C45.8533 48.7477 46.5088 48.8896 46.9064 49.3589C47.304 49.8283 47.3362 50.505 46.9924 51.018L42.1675 58.1566C32.8508 71.9424 26.6933 81.0457 16.0763 97.0036C15.8722 97.2983 15.5713 97.5057 15.2167 97.5821C15.1415 97.604 15.0555 97.604 14.9695 97.604ZM-9.03686 78.295C-4.55582 80.7946 1.39744 85.0079 7.63007 89.4285C9.91895 91.0549 12.2616 92.714 14.6149 94.3403C24.7913 79.07 30.8735 70.0759 39.9645 56.6175L41.9633 53.6704L-9.03686 78.295Z" fill="#303437" fill-opacity="0.4"/>
<path d="M14.9695 97.604C14.6793 97.604 14.4 97.5166 14.1528 97.3202C13.5833 96.8836 13.4543 96.0649 13.8519 95.4755C24.4796 79.5066 30.637 70.4034 39.9537 56.6175L44.7787 49.4899C44.8324 49.4135 44.8969 49.3371 44.9614 49.2716C59.4361 35.2893 66.6359 28.2163 79.6062 15.4128C80.1113 14.9107 80.9172 14.8998 81.4438 15.38C81.9703 15.8603 82.0348 16.6789 81.5835 17.2465C57.4052 47.8854 43.9942 64.0617 15.9796 97.1455C15.7324 97.4511 15.3563 97.604 14.9695 97.604ZM46.9279 51.149L42.1889 58.1675C37.5037 65.1095 33.6136 70.8618 29.5517 76.9088C43.1453 60.7435 53.4721 48.2019 65.7225 32.8989C60.1883 38.291 54.579 43.7595 46.9279 51.149Z" fill="#303437" fill-opacity="0.4"/>
<path d="M14.9802 97.604C14.6256 97.604 14.271 97.4621 14.0024 97.1783C13.5295 96.6653 13.5081 95.8794 13.9594 95.3445C41.9525 62.2934 55.3419 46.128 79.4987 15.5219C79.8426 15.0962 80.4014 14.9107 80.9172 15.0635C81.4438 15.2163 81.8198 15.6747 81.8736 16.2205C82.8729 25.3892 83.7111 30.3338 86.1612 41.369C86.2794 41.893 86.086 42.4387 85.6561 42.7553C66.5069 57.458 53.8805 67.3799 37.9013 79.9432C31.2925 85.1388 24.1465 90.7602 15.7861 97.3093C15.5497 97.5166 15.2596 97.604 14.9802 97.604ZM79.5847 19.7898C59.1889 45.5823 46.3154 61.2455 24.5656 87.0053C28.7135 83.7526 32.582 80.7073 36.2786 77.8039C52.0751 65.3933 64.5834 55.5478 83.3672 41.1289C81.3255 31.8947 80.4336 26.9392 79.5847 19.7898Z" fill="#303437" fill-opacity="0.4"/>
<path d="M84.8609 43.05C84.7105 43.05 84.5493 43.0281 84.3989 42.9626C83.969 42.7989 83.6466 42.4387 83.5499 41.9803C81.0784 30.825 80.2294 25.8258 79.2086 16.537C79.1441 15.9149 79.4987 15.3255 80.079 15.1071C101.786 6.94261 113.391 4.18107 136.484 1.69241C137.108 1.62692 137.666 1.98712 137.881 2.57654C138.096 3.16596 137.892 3.82087 137.387 4.17015C118.227 17.6613 107.986 25.4766 85.6669 42.7662C85.4412 42.9517 85.1511 43.05 84.8609 43.05ZM82.0025 17.3011C82.8837 25.2364 83.7004 30.0937 85.7206 39.317C105.224 24.2104 115.433 16.4279 131.52 5.01062C112.37 7.29189 101.141 10.1407 82.0025 17.3011Z" fill="#303437" fill-opacity="0.4"/>
<path d="M14.9802 97.604C14.5074 97.604 14.0454 97.342 13.809 96.9054C13.4866 96.316 13.637 95.5737 14.1636 95.159C22.5239 88.6099 29.6699 82.9995 36.2786 77.8039C52.2686 65.2405 64.8951 55.3077 84.055 40.5941C84.4419 40.2994 84.9469 40.2339 85.3875 40.4303C85.8281 40.6268 86.1397 41.0416 86.1935 41.5218C87.6012 53.594 88.6221 60.0012 91.3838 74.1255C91.5235 74.8568 91.0613 75.5772 90.3306 75.73C59.8767 82.0389 44.4778 86.5142 15.4423 97.5276C15.2919 97.5821 15.1307 97.604 14.9802 97.604ZM83.8079 44.207C65.6903 58.1347 53.3755 67.8165 37.9228 79.9651C33.2161 83.6653 28.23 87.5838 22.7388 91.8953C46.5196 83.1414 61.7143 78.9063 88.5039 73.3286C86.086 60.9508 85.0437 54.5327 83.8079 44.207Z" fill="#303437" fill-opacity="0.4"/>
<path d="M90.0727 75.7518C89.9867 75.7518 89.89 75.7409 89.804 75.7191C89.2775 75.6099 88.8584 75.1842 88.751 74.6494C85.9785 60.4378 84.9469 53.9979 83.5285 41.8384C83.4747 41.3581 83.6681 40.8888 84.0443 40.5941C106.396 23.2717 116.658 15.4564 135.861 1.92163C136.388 1.55051 137.097 1.60509 137.559 2.06353C138.021 2.51105 138.107 3.23145 137.763 3.77721C121.085 30.4102 111.253 45.233 91.1796 75.1515C90.9216 75.5335 90.5025 75.7518 90.0727 75.7518ZM86.2794 42.2968C87.5367 52.95 88.5146 59.2372 90.7605 70.9273C108.169 44.982 117.797 30.443 131.874 8.07778C116.218 19.2113 105.966 27.0483 86.2794 42.2968Z" fill="#303437" fill-opacity="0.4"/>
<path d="M90.0727 75.7518C89.6966 75.7518 89.3205 75.5881 89.0626 75.2825C88.6543 74.8131 88.6221 74.1254 88.9659 73.6124C109.018 43.7267 118.84 28.9039 135.507 2.31457C135.904 1.68149 136.721 1.49594 137.355 1.88888C153.184 11.9417 163.134 18.5563 183.766 33.521C184.185 33.8157 184.39 34.3288 184.314 34.8418C184.239 35.3548 183.885 35.7696 183.401 35.9333C148.348 47.296 128.64 56.2027 90.6853 75.599C90.4811 75.7081 90.2769 75.7518 90.0727 75.7518ZM137.043 4.9233C121.612 29.537 111.962 44.1524 94.0917 70.8072C126.856 54.1507 147.327 44.8946 180.016 34.165C161.372 20.6957 151.625 14.2012 137.043 4.9233Z" fill="#303437" fill-opacity="0.4"/>
<path d="M182.971 35.9988C182.692 35.9988 182.423 35.9115 182.187 35.7477C161.608 20.8267 151.69 14.2339 135.904 4.21381C135.421 3.90819 135.173 3.31877 135.302 2.75118C135.431 2.18359 135.904 1.7579 136.474 1.70333C161.082 -0.949059 174.482 -0.588859 198.832 3.38426C199.251 3.44975 199.617 3.72263 199.81 4.10466C200.003 4.48669 200.014 4.94513 199.821 5.33808C194.523 16.2642 191.45 22.1474 184.132 35.322C183.949 35.6604 183.627 35.9005 183.251 35.9879C183.175 35.9879 183.068 35.9988 182.971 35.9988ZM140.654 4.00642C154.344 12.7495 164.166 19.3422 182.531 32.6478C188.935 21.0996 191.987 15.26 196.608 5.77468C174.965 2.3364 161.995 1.8998 140.654 4.00642Z" fill="#303437" fill-opacity="0.4"/>
<path d="M-29.078 139.889C-29.3252 139.889 -29.5616 139.824 -29.7765 139.682C-30.2923 139.365 -30.5287 138.732 -30.3675 138.143L-13.3782 77.8693C-13.2707 77.4873 -13.0021 77.1708 -12.6582 77.007C-12.3036 76.8433 -11.8953 76.8324 -11.5407 76.9961C-6.93069 79.1028 0.150894 84.1128 7.63005 89.4176C10.2843 91.295 13.003 93.227 15.7217 95.1044C16.0548 95.3336 16.2698 95.7047 16.302 96.1195C16.3343 96.5343 16.1838 96.9381 15.8937 97.2219C-1.68666 114.435 -10.7455 123.135 -28.1754 139.529C-28.4225 139.769 -28.7449 139.889 -29.078 139.889ZM-11.2398 80.1943L-26.4668 134.213C-11.6482 120.253 -2.73978 111.695 12.8418 96.436C10.5744 94.8533 8.30704 93.2488 6.08263 91.677C-0.53685 86.9617 -6.8447 82.4974 -11.2398 80.1943Z" fill="#303437" fill-opacity="0.4"/>
<path d="M-29.078 139.889C-29.1318 139.889 -29.1855 139.889 -29.2392 139.878C-29.8947 139.791 -30.3998 139.234 -30.4213 138.569L-31.5173 104.022C-31.5281 103.727 -31.4421 103.433 -31.2702 103.182L-13.1956 77.4546C-12.8195 76.9088 -12.1102 76.7233 -11.5192 77.018C-10.9282 77.3018 -10.6273 77.9894 -10.81 78.6225L-27.7993 138.896C-27.9497 139.496 -28.487 139.889 -29.078 139.889ZM-28.8094 104.393L-28.0035 129.782L-15.5167 85.499L-28.8094 104.393Z" fill="#303437" fill-opacity="0.4"/>
<path d="M3.6648 166.064C3.36392 166.064 3.06299 165.955 2.81583 165.758C-12.5401 152.977 -19.2563 147.606 -29.8732 139.627C-30.1956 139.387 -30.389 139.016 -30.4105 138.601C-30.432 138.187 -30.2708 137.805 -29.9807 137.521C-12.5615 121.137 -3.5135 112.449 14.0453 95.2572C14.4752 94.8315 15.1414 94.7551 15.6572 95.0607C16.173 95.3773 16.4309 95.9994 16.2697 96.5889C9.60728 121.923 7.29693 135.949 5.00804 164.798C4.96507 165.3 4.65342 165.747 4.19135 165.944C4.01941 166.02 3.84749 166.064 3.6648 166.064ZM-26.9718 138.416C-17.5047 145.554 -10.8744 150.859 2.5365 161.993C4.63195 136.451 6.85634 122.523 12.455 100.606C-2.55709 115.276 -11.4655 123.811 -26.9718 138.416Z" fill="#303437" fill-opacity="0.4"/>
<path d="M3.6648 166.064C3.47138 166.064 3.28869 166.02 3.106 165.944C2.5902 165.704 2.27859 165.169 2.32157 164.59C4.63194 135.545 6.96381 121.421 13.6693 95.8903C13.7767 95.4646 14.0884 95.1153 14.4967 94.9625C43.6934 83.8945 59.1782 79.3866 89.7933 73.0558C90.3628 72.9357 90.9539 73.2086 91.2333 73.7325C91.5127 74.2564 91.4375 74.9004 91.0291 75.337C56.5455 111.957 37.3103 131.954 4.61046 165.66C4.3633 165.922 4.01942 166.064 3.6648 166.064ZM16.0978 97.2765C9.86522 121.072 7.49033 134.934 5.30891 161.054C35.5049 129.924 54.3855 110.276 86.1182 76.6032C58.6194 82.421 43.3602 86.9617 16.0978 97.2765Z" fill="#303437" fill-opacity="0.4"/>
<path d="M-62.2721 174.807C-62.7557 174.807 -63.2178 174.534 -63.4542 174.087C-63.7336 173.563 -63.6369 172.919 -63.2285 172.493C-50.3334 159.013 -43.542 151.907 -30.0344 137.586C-29.5616 137.095 -28.8094 137.03 -28.2613 137.433C-17.6014 145.434 -10.8637 150.826 4.53523 163.641C4.95432 163.99 5.12621 164.568 4.96503 165.103C4.80384 165.638 4.3418 166.009 3.79376 166.064C-24.4788 168.498 -38.0079 170.299 -62.0142 174.796C-62.1109 174.796 -62.1862 174.807 -62.2721 174.807ZM-28.9276 140.337C-40.8555 152.988 -47.5502 160.006 -58.3821 171.325C-37.6747 167.527 -24.3175 165.78 0.258377 163.619C-12.8946 152.704 -19.4389 147.486 -28.9276 140.337Z" fill="#303437" fill-opacity="0.4"/>
<path d="M90.0727 75.7518C89.4924 75.7518 88.9766 75.3698 88.7939 74.8022C88.6005 74.1691 88.8799 73.4705 89.4709 73.1758C125.867 54.5764 146.843 44.9274 182.574 33.3464C182.928 33.2372 183.304 33.27 183.637 33.4555C183.96 33.6411 184.196 33.9467 184.282 34.3178C187.538 47.3287 189.354 54.4672 192.643 67.3908L193.373 70.2396C193.481 70.6653 193.384 71.1129 193.105 71.4512C192.825 71.7896 192.417 71.9752 191.976 71.9424C151.475 69.0936 129.618 69.9122 90.2661 75.7518C90.2016 75.7518 90.1372 75.7518 90.0727 75.7518ZM182.026 36.3808C150.121 46.783 130.854 55.2531 98.0247 71.866C132.079 67.1507 153.603 66.5612 190.3 69.0717L190.042 68.0566C186.872 55.6024 185.067 48.5185 182.026 36.3808Z" fill="#303437" fill-opacity="0.4"/>
<path d="M3.6648 166.064C3.2887 166.064 2.92334 165.911 2.65469 165.605C2.19262 165.071 2.2141 164.252 2.70841 163.75C35.3975 130.055 54.6219 110.069 89.0949 73.4596C89.5247 73.0012 90.2017 72.9029 90.739 73.2304C91.2762 73.5469 91.5234 74.2019 91.3407 74.8022C87.9235 86.2194 86.2042 92.1027 82.7225 104.437C82.6473 104.721 82.4754 104.961 82.2497 105.146C70.5797 114.239 61.0265 121.726 52.0107 128.778C36.7407 140.73 23.5663 151.056 4.47076 165.802C4.23434 165.966 3.95495 166.064 3.6648 166.064ZM87.1499 79.463C59.823 108.454 41.9955 127.064 17.8816 151.972C29.5947 142.869 39.4487 135.152 50.3773 126.606C59.2964 119.62 68.7636 112.208 80.2724 103.236C83.0879 93.2706 84.7535 87.5293 87.1499 79.463Z" fill="#303437" fill-opacity="0.4"/>
<path d="M81.4438 105.408C81.1106 105.408 80.7882 105.288 80.5303 105.048C80.1542 104.699 80.0038 104.164 80.1543 103.673C83.6359 91.3168 85.366 85.4336 88.7832 73.9945C88.9336 73.4924 89.3635 73.1213 89.8793 73.0448C129.457 67.1725 151.432 66.3538 192.159 69.2136C192.825 69.2573 193.363 69.803 193.405 70.4907C193.448 71.1784 192.986 71.7787 192.331 71.9206C148.778 80.9038 124.105 89.1229 81.9166 105.332C81.7661 105.376 81.605 105.408 81.4438 105.408ZM91.1043 75.6099C88.0955 85.6737 86.3976 91.4696 83.4747 101.806C121.107 87.3874 144.984 79.3756 182.09 71.2875C147.929 69.2682 126.63 70.3815 91.1043 75.6099Z" fill="#303437" fill-opacity="0.4"/>
<path d="M182.971 35.9988C182.595 35.9988 182.23 35.835 181.972 35.5513C181.585 35.1146 181.52 34.4816 181.8 33.9686C189.086 20.8376 192.148 14.9871 197.424 4.11558C197.682 3.58073 198.263 3.27511 198.843 3.37335C215.8 6.13488 224.364 8.37249 240.505 14.2449C241.074 14.4522 241.44 15.0307 241.386 15.642C241.332 16.2532 240.881 16.7663 240.279 16.8754C221.055 20.3137 209.245 24.6361 183.508 35.9005C183.337 35.966 183.154 35.9988 182.971 35.9988ZM199.402 6.2222C194.856 15.5765 191.88 21.3179 186.098 31.7964C207.418 22.5513 219.024 18.3053 234.885 15.1181C221.99 10.5992 213.984 8.63445 199.402 6.2222Z" fill="#303437" fill-opacity="0.4"/>
<path d="M280.673 50.3631C280.619 50.3631 280.566 50.3631 280.512 50.3522L242.213 45.6805C241.558 45.6041 241.064 45.0474 241.031 44.3816C240.537 32.1239 240.086 26.4917 238.721 15.7075C238.657 15.1617 238.914 14.616 239.398 14.3431C239.871 14.0702 240.462 14.1139 240.892 14.4632C257.021 27.5177 265.726 34.7763 281.533 47.9509C281.995 48.3329 282.145 48.9878 281.92 49.5445C281.694 50.0357 281.2 50.3631 280.673 50.3631ZM243.664 43.1045L276.257 47.0886C263.437 36.4026 255.109 29.4824 241.794 18.6873C242.815 27.2121 243.245 32.8225 243.664 43.1045Z" fill="#303437" fill-opacity="0.4"/>
<path d="M242.375 45.6914C242.267 45.6914 242.149 45.6805 242.042 45.6478C219.034 39.6554 206.87 37.6688 182.885 35.9988C182.262 35.9551 181.757 35.4858 181.649 34.8636C181.542 34.2414 181.875 33.6302 182.445 33.3791C208.396 22.0274 220.324 17.6613 239.817 14.1794C240.182 14.1139 240.548 14.2012 240.849 14.4195C241.15 14.6378 241.343 14.9762 241.386 15.3473C242.761 26.2406 243.224 31.9056 243.718 44.2616C243.739 44.6982 243.546 45.102 243.224 45.3749C242.976 45.5823 242.676 45.6914 242.375 45.6914ZM188.581 33.6848C208.675 35.2565 220.668 37.3195 240.956 42.5479C240.516 32.0475 240.053 26.4807 238.893 17.1265C221.764 20.2809 210.309 24.2977 188.581 33.6848Z" fill="#303437" fill-opacity="0.4"/>
<path d="M192.062 71.9315C191.88 71.9315 191.708 71.8988 191.536 71.8223C191.149 71.6586 190.869 71.3202 190.762 70.9055L190.042 68.0566C186.754 55.1331 184.938 47.9836 181.682 34.9727C181.574 34.5471 181.671 34.0995 181.95 33.7612C182.23 33.4228 182.638 33.2482 183.079 33.27C207.257 34.9509 219.518 36.9484 242.718 42.9954C243.277 43.1373 243.675 43.6285 243.729 44.207C243.772 44.7855 243.449 45.3312 242.933 45.5714C225.643 53.2666 215.241 58.8551 192.739 71.7569C192.524 71.8769 192.288 71.9315 192.062 71.9315ZM184.734 36.1298C187.71 48.0055 189.505 55.0676 192.632 67.3799L192.922 68.5151C212.909 57.065 223.29 51.4765 238.27 44.6872C218.196 39.5789 206.204 37.6797 184.734 36.1298Z" fill="#303437" fill-opacity="0.4"/>
<path d="M299.736 121.552C299.468 121.552 299.21 121.475 298.973 121.312L293.267 117.328C283.489 110.506 276.966 105.954 265.726 98.1716C265.521 98.0297 265.36 97.8332 265.253 97.604C255.442 75.5335 250.509 64.924 241.16 44.9056C240.87 44.2725 241.085 43.5193 241.676 43.1482C242.267 42.788 243.03 42.9408 243.449 43.4975C263.931 71.1893 276.117 87.1145 296.308 113.486L300.789 119.336C301.198 119.871 301.166 120.624 300.703 121.104C300.446 121.399 300.091 121.552 299.736 121.552ZM267.552 96.1304C278.062 103.411 284.434 107.853 293.364 114.086C276.375 91.8844 265.006 77.0289 249.241 55.8425C255.323 68.9189 259.987 79.1137 267.552 96.1304Z" fill="#303437" fill-opacity="0.4"/>
<path d="M266.478 98.4117C266.306 98.4117 266.134 98.3789 265.973 98.3134C236.303 86.1212 221.409 80.5872 191.686 71.8878C191.17 71.735 190.783 71.2766 190.719 70.7308C190.655 70.1851 190.923 69.6502 191.396 69.3883C213.984 56.432 224.429 50.8216 241.827 43.0827C242.493 42.788 243.267 43.0827 243.578 43.7485C252.938 63.7888 257.881 74.3983 267.692 96.4906C267.918 97.0036 267.821 97.593 267.434 97.9969C267.187 98.2589 266.843 98.4117 266.478 98.4117ZM195.512 70.1632C222.312 78.0876 237.152 83.5561 263.877 94.5041C255.151 74.9113 250.273 64.4219 241.719 46.1062C225.847 53.2011 215.607 58.6587 195.512 70.1632Z" fill="#303437" fill-opacity="0.4"/>
<path d="M123.546 142.684C123.235 142.684 122.912 142.574 122.665 142.345L122.117 141.854C104.537 126.213 95.7144 118.365 80.5734 105.07C80.2188 104.753 80.0468 104.273 80.1328 103.804C80.2187 103.334 80.5411 102.941 80.9817 102.767C123.31 86.5032 148.068 78.2514 191.804 69.2245C192.385 69.1045 192.965 69.3883 193.255 69.9122C193.534 70.4361 193.448 71.091 193.04 71.5167C180.951 84.1237 171.14 94.2093 160.738 104.884C150.132 115.767 139.171 127.02 124.524 142.269C124.245 142.542 123.89 142.684 123.546 142.684ZM84.0335 104.513C98.0462 116.826 106.836 124.641 123.471 139.442C137.688 124.652 148.423 113.627 158.814 102.963C168.314 93.2051 177.34 83.9491 188.054 72.7938C147.821 81.2858 123.557 89.363 84.0335 104.513Z" fill="#303437" fill-opacity="0.4"/>
<path d="M233.875 151.099C233.853 151.099 233.832 151.099 233.81 151.099C233.337 151.077 232.907 150.804 232.693 150.379C225.138 136.014 219.26 124.946 213.565 114.228C206.451 100.835 199.724 88.1733 190.869 71.2111C190.622 70.7308 190.676 70.1414 191.009 69.7157C191.353 69.29 191.901 69.1154 192.428 69.2682C222.269 78.0003 237.206 83.5561 266.983 95.792C267.348 95.9449 267.628 96.2396 267.746 96.6107C267.875 96.9818 267.832 97.3966 267.638 97.7349C256.978 116.302 250.144 127.195 234.992 150.488C234.745 150.87 234.326 151.099 233.875 151.099ZM194.738 72.772C202.873 88.3261 209.223 100.3 215.94 112.929C221.356 123.135 226.954 133.668 234.004 147.071C247.898 125.689 254.646 114.915 264.543 97.7131C236.83 86.3504 222 80.8383 194.738 72.772Z" fill="#303437" fill-opacity="0.4"/>
<path d="M155.859 187.687C155.44 187.687 155.032 187.479 154.774 187.13C141.299 168.563 134.604 159.296 122.45 142.116C122.074 141.581 122.128 140.839 122.579 140.37C137.237 125.11 148.208 113.857 158.804 102.963C169.195 92.2992 179.017 82.2136 191.095 69.6175C191.525 69.17 192.191 69.0717 192.729 69.3883C193.266 69.6939 193.513 70.3379 193.352 70.9382C183.143 108.181 175.46 131.397 162.726 169.851C160.964 175.167 159.105 180.778 157.138 186.759C156.977 187.239 156.569 187.599 156.074 187.676C155.999 187.676 155.924 187.687 155.859 187.687ZM125.298 141.45C136.56 157.375 143.19 166.555 155.408 183.397C157.084 178.343 158.664 173.552 160.179 168.978C172.301 132.369 179.844 109.589 189.344 75.3479C178.899 86.2194 170.044 95.3118 160.716 104.884C150.314 115.57 139.558 126.616 125.298 141.45Z" fill="#303437" fill-opacity="0.4"/>
<path d="M155.859 187.687C155.537 187.687 155.225 187.567 154.967 187.348C154.559 186.988 154.409 186.41 154.58 185.897C156.558 179.915 158.417 174.305 160.168 168.989C172.892 130.568 180.564 107.384 190.762 70.2069C190.912 69.6721 191.364 69.2791 191.912 69.2136C192.46 69.1481 192.986 69.4428 193.244 69.934C202.099 86.8962 208.815 99.5469 215.929 112.94C221.624 123.658 227.502 134.737 235.057 149.102C235.229 149.44 235.261 149.833 235.143 150.193C235.024 150.553 234.756 150.848 234.412 151.001C205.774 163.652 190.278 171.074 156.44 187.567C156.257 187.643 156.053 187.687 155.859 187.687ZM192.449 74.2237C182.681 109.567 175.073 132.533 162.726 169.851C161.264 174.25 159.749 178.846 158.148 183.692C189.548 168.4 204.979 161.021 232.005 149.069C224.784 135.338 219.088 124.608 213.565 114.228C206.881 101.632 200.541 89.7014 192.449 74.2237Z" fill="#303437" fill-opacity="0.4"/>
<path d="M233.875 151.099C233.498 151.099 233.122 150.935 232.865 150.641C232.467 150.182 232.413 149.506 232.757 148.982C247.877 125.732 254.7 114.872 265.317 96.3596C265.5 96.0322 265.822 95.803 266.177 95.7156C266.542 95.6283 266.918 95.7047 267.23 95.923C278.481 103.716 284.993 108.257 294.783 115.09L300.489 119.074C300.908 119.358 301.123 119.86 301.058 120.373C300.994 120.875 300.661 121.312 300.188 121.486C277.449 130 263.834 136.309 234.455 150.979C234.283 151.056 234.079 151.099 233.875 151.099ZM266.918 98.9902C257.322 115.679 250.692 126.311 237.722 146.297C263.19 133.635 276.568 127.49 296.846 119.816L293.278 117.328C283.832 110.746 277.439 106.282 266.918 98.9902Z" fill="#303437" fill-opacity="0.4"/>
<path d="M3.6648 166.064C3.15974 166.064 2.67618 165.769 2.45051 165.289C2.18186 164.71 2.34305 164.012 2.84811 163.619C21.9329 148.872 35.1181 138.558 50.3773 126.606C59.3931 119.543 68.957 112.056 80.6271 102.963C81.1321 102.57 81.8414 102.592 82.325 103.018C97.4767 116.313 106.299 124.171 123.879 139.813L124.427 140.304C124.825 140.653 124.975 141.21 124.825 141.723C124.675 142.236 124.245 142.607 123.729 142.684C74.6523 149.702 50.7856 154.668 3.97641 166.031C3.86896 166.053 3.77226 166.064 3.6648 166.064ZM81.3901 105.801C70.1176 114.588 60.8009 121.879 52.0214 128.756C38.1377 139.627 25.984 149.145 9.53204 161.872C51.5593 151.743 75.3723 146.886 120.451 140.391C104.279 125.994 95.5639 118.245 81.3901 105.801Z" fill="#303437" fill-opacity="0.4"/>
<path d="M-70.6432 225.944C-70.8796 225.944 -71.1161 225.879 -71.331 225.748C-71.8038 225.464 -72.0509 224.908 -71.965 224.351L-63.5939 173.213C-63.4972 172.646 -63.0673 172.198 -62.5086 172.1C-38.3947 167.581 -24.8119 165.78 3.55733 163.335C4.13761 163.281 4.69641 163.63 4.91133 164.186C5.12624 164.743 4.96507 165.376 4.51373 165.758C-28.358 192.893 -43.6387 205.206 -69.8265 225.661C-70.0629 225.846 -70.3531 225.944 -70.6432 225.944ZM-61.1008 174.61L-68.7627 221.382C-45.1109 202.881 -30.0129 190.71 -0.579819 166.435C-25.5963 168.662 -38.9213 170.474 -61.1008 174.61Z" fill="#303437" fill-opacity="0.4"/>
<path d="M71.0847 212.562C70.8161 212.562 70.5474 212.486 70.311 212.311C39.4917 190.099 26.1883 180.799 2.94485 165.846C2.49353 165.551 2.24631 165.005 2.34302 164.47C2.43974 163.935 2.82659 163.499 3.35314 163.368C50.2591 151.972 74.1688 146.995 123.353 139.966C123.89 139.889 124.427 140.151 124.696 140.632C124.975 141.112 124.932 141.712 124.599 142.149L120.731 147.235C102.441 171.314 91.4052 185.842 72.1485 212.006C71.9014 212.377 71.4931 212.562 71.0847 212.562ZM7.07125 165.278C29.7236 179.915 43.8115 189.87 70.7945 209.321C89.5784 183.812 100.571 169.338 118.614 145.576L120.462 143.142C74.6416 149.757 50.8394 154.679 7.07125 165.278Z" fill="#303437" fill-opacity="0.4"/>
<path d="M71.0847 212.562C70.6549 212.562 70.2357 212.355 69.9886 211.984C69.6555 211.504 69.6662 210.86 70.0101 210.39C89.2668 184.205 100.314 169.666 118.614 145.587L122.482 140.501C122.74 140.162 123.138 139.977 123.568 139.966C123.998 139.977 124.384 140.184 124.632 140.533C136.775 157.703 143.469 166.97 156.934 185.515C157.202 185.875 157.267 186.344 157.117 186.77C156.966 187.196 156.622 187.523 156.203 187.643C124.191 196.474 107.051 201.691 78.6498 210.325L71.4608 212.508C71.3426 212.541 71.2137 212.562 71.0847 212.562ZM123.503 143.6L120.742 147.235C103.236 170.277 92.3724 184.576 74.5986 208.699L77.8869 207.694C105.74 199.224 122.773 194.039 153.613 185.515C141.288 168.542 134.658 159.362 123.503 143.6Z" fill="#303437" fill-opacity="0.4"/>
<path d="M276.729 243.747C276.536 243.747 276.353 243.703 276.171 243.627C260.17 236.205 246.694 229.841 233.67 223.685C209.933 212.464 187.517 201.866 155.322 187.578C154.838 187.359 154.527 186.89 154.516 186.355C154.505 185.82 154.806 185.329 155.279 185.1C189.15 168.596 204.656 161.163 233.337 148.49C233.993 148.207 234.756 148.48 235.078 149.134C253.217 186.191 262.62 205.61 277.965 241.848C278.18 242.361 278.073 242.972 277.675 243.365C277.406 243.616 277.073 243.747 276.729 243.747ZM159.083 186.268C189.881 199.977 211.717 210.303 234.809 221.207C246.963 226.949 259.504 232.876 274.118 239.665C259.762 205.893 250.907 187.578 233.251 151.503C206.096 163.51 190.655 170.877 159.083 186.268Z" fill="#303437" fill-opacity="0.4"/>
<path d="M276.729 243.747C276.643 243.747 276.568 243.736 276.482 243.725C276.042 243.638 275.676 243.343 275.494 242.918C260.148 206.668 251.272 188.342 232.671 150.335C232.402 149.778 232.531 149.113 232.983 148.709C233.434 148.305 234.1 148.25 234.616 148.589C250.95 159.504 263.351 167.876 275.332 175.964C287.69 184.303 299.36 192.195 314.834 202.521C315.168 202.75 315.393 203.11 315.436 203.514C315.479 203.918 315.339 204.322 315.06 204.616C302.734 217.278 295.255 225.06 282.865 237.951L277.697 243.332C277.439 243.605 277.084 243.747 276.729 243.747ZM237.292 153.653C253.712 187.207 262.921 206.406 277.17 239.97L280.942 236.052C292.945 223.565 300.338 215.87 311.997 203.896C297.19 194.007 285.842 186.344 273.849 178.245C262.899 170.856 251.605 163.226 237.292 153.653Z" fill="#303437" fill-opacity="0.4"/>
<path d="M31.0777 257.653C30.9917 257.653 30.9057 257.642 30.8305 257.631C30.3684 257.544 29.9815 257.216 29.8203 256.769C15.9903 218.85 9.76847 199.279 2.35378 164.994C2.23558 164.459 2.4505 163.903 2.89108 163.586C3.33167 163.27 3.92271 163.259 4.38478 163.553C28.9607 179.359 43.1131 189.368 71.8691 210.096C72.1808 210.325 72.385 210.674 72.4279 211.067C72.4709 211.46 72.342 211.842 72.0841 212.137C59.7907 225.813 51.9462 234.709 42.8551 245.013C39.5562 248.757 36.053 252.719 32.077 257.216C31.8191 257.489 31.4538 257.653 31.0777 257.653ZM5.6743 167.603C12.6162 199.148 18.7413 218.457 31.5612 253.691C34.9354 249.871 37.9658 246.432 40.8457 243.169C49.6788 233.148 57.3514 224.46 69.0645 211.416C40.3406 190.721 26.9727 181.367 5.6743 167.603Z" fill="#303437" fill-opacity="0.4"/>
<path d="M-70.6432 225.944C-71.202 225.944 -71.7071 225.584 -71.9005 225.049C-72.1047 224.493 -71.922 223.86 -71.4599 223.499C-45.3044 203.066 -30.0237 190.754 2.82661 163.641C3.29943 163.248 3.9872 163.237 4.47076 163.608C4.96508 163.979 5.14773 164.645 4.91132 165.223C-4.3839 188.254 -8.64999 199.824 -15.5919 222.943C-15.7638 223.499 -16.2581 223.892 -16.8384 223.903C-39.2222 224.613 -50.269 225.028 -70.5895 225.944C-70.6003 225.944 -70.6217 225.944 -70.6432 225.944ZM0.441048 169.12C-28.2935 192.817 -43.3378 204.944 -66.4523 223.03C-49.0009 222.255 -38.0508 221.84 -17.8807 221.207C-11.5836 200.294 -7.43571 188.789 0.441048 169.12Z" fill="#303437" fill-opacity="0.4"/>
<path d="M31.0777 257.653C30.809 257.653 30.5403 257.566 30.3039 257.402L23.0396 252.206C7.47955 241.084 -1.92309 234.36 -17.6229 223.663C-18.1172 223.325 -18.3321 222.703 -18.1602 222.135C-11.1861 198.919 -6.89848 187.294 2.42897 164.176C2.65464 163.619 3.20269 163.281 3.78297 163.335C4.36325 163.39 4.85754 163.815 4.97575 164.405C12.3475 198.536 18.5479 218.02 32.3349 255.808C32.5391 256.365 32.3563 256.998 31.8943 257.358C31.6579 257.555 31.3678 257.653 31.0777 257.653ZM-15.3018 221.971C-0.0640717 232.363 9.28487 239.043 24.5871 249.98L28.3267 252.654C16.0978 218.926 10.0371 199.737 3.28864 169.251C-4.78155 189.379 -8.9402 200.861 -15.3018 221.971Z" fill="#303437" fill-opacity="0.4"/>
<path d="M31.0777 257.653C30.6801 257.653 30.2824 257.467 30.0245 257.129C29.6162 256.605 29.6485 255.863 30.0783 255.372C34.0543 250.875 37.5574 246.913 40.8564 243.169C49.9475 232.865 57.8027 223.958 70.0961 210.281C70.2573 210.096 70.4722 209.965 70.6978 209.899L77.8869 207.716C106.31 199.071 123.46 193.854 155.505 185.013C156.16 184.838 156.848 185.176 157.106 185.831C157.353 186.475 157.095 187.207 156.493 187.534C129.145 202.39 108.695 214.069 88.9229 225.366C70.7515 235.746 53.6011 245.548 31.7116 257.489C31.5075 257.598 31.2926 257.653 31.0777 257.653ZM71.8262 212.399C59.6725 225.912 51.8709 234.764 42.8444 244.991C41.0498 247.033 39.1908 249.139 37.2243 251.366C55.9329 241.073 71.3641 232.253 87.6012 222.986C104.795 213.163 122.493 203.055 144.802 190.819C119.721 197.838 103.494 202.783 78.6606 210.336L71.8262 212.399Z" fill="#303437" fill-opacity="0.4"/>
<path d="M276.729 243.747C234.057 243.671 211.974 243.562 167.282 243.267C166.648 243.267 166.1 242.808 165.971 242.175C163.091 228.062 161.092 218.38 158.9 207.727C157.589 201.396 156.214 194.727 154.548 186.595C154.441 186.093 154.623 185.58 155.021 185.253C155.408 184.936 155.945 184.86 156.407 185.056C188.624 199.366 211.061 209.965 234.809 221.196C247.834 227.353 261.298 233.716 277.288 241.127C277.868 241.389 278.18 242.033 278.04 242.656C277.901 243.3 277.363 243.747 276.729 243.747ZM168.389 240.549C210.158 240.822 232.155 240.931 270.54 241.007C256.957 234.688 245.147 229.099 233.681 223.685C210.534 212.748 188.634 202.4 157.718 188.636C159.158 195.622 160.372 201.538 161.544 207.181C163.671 217.551 165.627 227.014 168.389 240.549Z" fill="#303437" fill-opacity="0.4"/>
<path d="M31.0777 257.653C30.4866 257.653 29.96 257.26 29.7881 256.682C29.6054 256.059 29.8741 255.394 30.4436 255.088C52.3008 243.158 69.4513 233.356 87.6119 222.986C107.395 211.678 127.855 199.988 155.236 185.122C155.612 184.914 156.053 184.903 156.439 185.089C156.826 185.275 157.095 185.624 157.181 186.05C158.857 194.181 160.233 200.851 161.533 207.181C163.736 217.824 165.735 227.516 168.604 241.63C168.679 242.001 168.593 242.394 168.378 242.71C168.153 243.027 167.819 243.223 167.443 243.267L146.585 245.625C102.269 250.635 75.512 253.647 31.1958 257.653C31.1528 257.642 31.1099 257.653 31.0777 257.653ZM154.914 188.385C128.35 202.837 108.308 214.276 88.9229 225.355C72.3849 234.808 56.6744 243.78 37.4714 254.324C77.962 250.613 104.204 247.644 146.295 242.885L165.681 240.702C162.962 227.374 161.028 217.998 158.9 207.727C157.686 201.877 156.418 195.72 154.914 188.385Z" fill="#303437" fill-opacity="0.4"/>
<path d="M260.019 303.322C259.837 303.322 259.643 303.278 259.471 303.202C258.848 302.918 258.536 302.209 258.741 301.554C266.091 277.704 269.53 265.763 275.429 242.055C275.483 241.826 275.601 241.608 275.773 241.433L280.942 236.052C293.332 223.161 300.811 215.379 313.147 202.706C313.609 202.226 314.351 202.16 314.888 202.564C315.425 202.957 315.597 203.688 315.296 204.289C297.931 238.988 286.293 260.131 261.18 302.656C260.922 303.082 260.482 303.322 260.019 303.322ZM277.944 243.07C273.054 262.729 269.841 274.31 264.651 291.446C284.058 258.373 295.008 238.475 308.956 210.903C299.951 220.181 293.074 227.331 282.865 237.951L277.944 243.07Z" fill="#303437" fill-opacity="0.4"/>
<path d="M260.019 303.322C259.772 303.322 259.536 303.257 259.321 303.126C231.038 285.53 212.802 273.513 185.206 255.328C179.457 251.541 173.311 247.491 166.562 243.059C166.057 242.732 165.832 242.099 166.003 241.52C166.175 240.942 166.702 240.549 167.293 240.549H167.304C211.996 240.844 234.068 240.953 276.729 241.029C277.138 241.029 277.535 241.226 277.782 241.553C278.04 241.881 278.126 242.317 278.03 242.721C272.119 266.494 268.67 278.468 261.309 302.362C261.18 302.765 260.89 303.082 260.503 303.235C260.342 303.289 260.181 303.322 260.019 303.322ZM171.881 243.3C177.136 246.76 182.036 249.98 186.668 253.036C213.769 270.893 231.844 282.802 259.257 299.884C266.08 277.693 269.497 265.807 274.999 243.747C234.928 243.671 212.963 243.562 171.881 243.3Z" fill="#303437" fill-opacity="0.4"/>
<path d="M163.22 288.696C163.134 288.696 163.037 288.685 162.941 288.663C118.872 279.32 92.0499 272.705 58.0928 264.333C49.6036 262.237 40.62 260.022 30.7552 257.609C30.1105 257.457 29.6807 256.845 29.7344 256.179C29.7774 255.514 30.3039 254.979 30.9594 254.924C75.2541 250.918 101.99 247.906 146.295 242.896L167.153 240.549C167.551 240.505 167.948 240.647 168.239 240.931C168.529 241.215 168.668 241.619 168.636 242.023C167.153 258.81 166.337 267.859 164.983 282.867L164.563 287.451C164.531 287.833 164.338 288.194 164.026 288.423C163.779 288.598 163.5 288.696 163.22 288.696ZM39.3305 256.9C46.1542 258.581 52.5802 260.164 58.7376 261.681C92.2864 269.954 118.872 276.514 162.017 285.683L162.296 282.627C163.607 268.121 164.424 259.181 165.81 243.441L146.586 245.614C105.042 250.307 78.94 253.254 39.3305 256.9Z" fill="#303437" fill-opacity="0.4"/>
<path d="M201.755 313.189C201.508 313.189 201.272 313.124 201.046 312.982C186.797 304.021 178.952 299 164.692 289.896L162.489 288.488C162.06 288.215 161.823 287.724 161.866 287.211L162.285 282.627C163.639 267.619 164.467 258.57 165.939 241.782C165.993 241.171 166.433 240.68 167.024 240.56C167.615 240.44 168.206 240.745 168.475 241.28C171.409 247.174 174.041 252.457 176.481 257.369C185.873 276.22 192.653 289.842 202.948 311.214C203.206 311.759 203.088 312.414 202.647 312.829C202.411 313.069 202.088 313.189 201.755 313.189ZM164.628 286.622L166.132 287.582C178.995 295.802 186.646 300.692 198.499 308.168C189.333 289.187 182.842 276.176 174.095 258.614C172.258 254.913 170.302 251.006 168.206 246.782C166.981 260.655 166.197 269.343 164.972 282.878L164.628 286.622Z" fill="#303437" fill-opacity="0.4"/>
<path d="M201.755 313.189C201.25 313.189 200.777 312.895 200.551 312.425C190.268 291.064 183.487 277.453 174.095 258.614C171.656 253.702 169.012 248.419 166.089 242.525C165.821 241.979 165.939 241.302 166.39 240.898C166.842 240.494 167.508 240.429 168.013 240.767C174.751 245.199 180.908 249.259 186.657 253.036C214.242 271.21 232.467 283.216 260.718 300.801C261.191 301.095 261.438 301.663 261.341 302.209C261.244 302.754 260.815 303.202 260.267 303.3C237.517 307.546 225.901 309.576 201.959 313.178C201.895 313.178 201.83 313.189 201.755 313.189ZM170.732 245.788C172.784 249.925 174.697 253.756 176.502 257.38C185.765 275.969 192.481 289.471 202.54 310.33C224.569 307 236.131 305.014 256.334 301.259C229.727 284.657 211.824 272.858 185.206 255.328C180.661 252.326 175.868 249.172 170.732 245.788Z" fill="#303437" fill-opacity="0.4"/>
<path d="M-29.3359 279.942C-29.6475 279.942 -29.9592 279.833 -30.2063 279.614C-30.5609 279.309 -30.7329 278.839 -30.6576 278.37C-27.3909 257.009 -24.8226 245.45 -18.1601 222.157C-18.0419 221.742 -17.7303 221.404 -17.3327 221.251C-16.9351 221.098 -16.4837 221.153 -16.1291 221.404C-0.39711 232.122 9.00547 238.835 24.5871 249.98L31.8514 255.164C32.2597 255.448 32.4746 255.939 32.4102 256.441C32.3457 256.944 32.034 257.369 31.572 257.555C5.59906 267.979 -6.78022 272.672 -28.9276 279.887C-29.0673 279.92 -29.1962 279.942 -29.3359 279.942ZM-16.0969 224.711C-22.1146 245.908 -24.6614 257.293 -27.6703 276.602C-7.53246 269.998 4.71789 265.381 28.2729 255.939L23.0504 252.206C7.98466 241.444 -1.2998 234.808 -16.0969 224.711Z" fill="#303437" fill-opacity="0.4"/>
<path d="M-29.3359 279.942C-29.7335 279.942 -30.1204 279.756 -30.3783 279.44C-48.4744 256.78 -57.3613 245.155 -71.7179 225.388C-72.008 224.984 -72.0617 224.449 -71.8468 223.991C-71.6319 223.532 -71.1913 223.238 -70.697 223.216C-50.3657 222.299 -39.3082 221.884 -16.9137 221.175C-16.4623 221.164 -16.0755 221.36 -15.8068 221.698C-15.5382 222.037 -15.463 222.495 -15.5812 222.91C-22.2007 246.083 -24.7582 257.566 -28.0035 278.785C-28.0894 279.32 -28.4655 279.756 -28.9813 279.898C-29.0995 279.931 -29.2177 279.942 -29.3359 279.942ZM-68.0642 225.824C-55.0831 243.638 -46.379 255.022 -30.1956 275.336C-27.219 256.398 -24.6507 244.97 -18.6867 223.958C-38.932 224.602 -49.8714 225.017 -68.0642 225.824Z" fill="#303437" fill-opacity="0.4"/>
<path d="M245.835 361.795C245.459 361.795 245.104 361.631 244.846 361.347C228.867 343.512 219.83 333.568 200.777 312.753C200.433 312.382 200.326 311.847 200.498 311.377C200.659 310.897 201.078 310.559 201.572 310.482C225.482 306.88 237.077 304.861 259.794 300.615C260.234 300.539 260.686 300.681 261.008 301.008C261.33 301.336 261.449 301.805 261.352 302.252C256.108 326.255 253.206 337.923 247.156 360.79C247.028 361.271 246.651 361.642 246.179 361.762C246.05 361.784 245.942 361.795 245.835 361.795ZM204.484 312.796C221.721 331.647 230.683 341.492 245.179 357.669C250.627 337.039 253.497 325.447 258.268 303.671C237.614 307.513 226.062 309.522 204.484 312.796Z" fill="#303437" fill-opacity="0.4"/>
<path d="M198.929 382.315C198.65 382.315 198.381 382.228 198.144 382.064C197.768 381.791 197.564 381.344 197.586 380.874C199.069 354.078 199.649 339.877 200.412 311.792C200.423 311.236 200.766 310.744 201.282 310.559C201.798 310.362 202.368 310.504 202.744 310.908C221.807 331.734 230.844 341.678 246.834 359.524C247.124 359.852 247.243 360.288 247.157 360.714C247.071 361.14 246.791 361.5 246.394 361.685C227.406 370.428 217.949 374.631 199.434 382.228C199.273 382.282 199.101 382.315 198.929 382.315ZM203.012 315.198C202.314 340.412 201.734 354.471 200.39 378.877C217.057 372.022 226.417 367.863 243.6 359.961C229.007 343.686 220.077 333.852 203.012 315.198Z" fill="#303437" fill-opacity="0.4"/>
<path d="M198.929 382.315C198.757 382.315 198.574 382.282 198.402 382.206C175.438 372.371 163.338 366.794 139.558 355.049C139.128 354.831 138.838 354.394 138.805 353.914C138.773 353.434 139.01 352.953 139.407 352.68C161.963 337.705 175.385 328.678 200.992 310.701C201.411 310.406 201.948 310.373 202.4 310.624C202.84 310.864 203.12 311.345 203.098 311.858C202.335 339.975 201.744 354.187 200.261 381.016C200.24 381.464 200.003 381.857 199.627 382.097C199.423 382.239 199.176 382.315 198.929 382.315ZM142.867 353.641C164.606 364.36 176.588 369.883 197.693 378.931C199.047 354.219 199.627 340.139 200.347 314.466C176.857 330.948 163.628 339.855 142.867 353.641Z" fill="#303437" fill-opacity="0.4"/>
<path d="M59.522 338.338C59.3394 338.338 59.1674 338.305 58.9955 338.229C58.6624 338.087 58.4045 337.814 58.2648 337.476C45.9177 305.625 39.8893 289.405 29.7881 256.693C29.6484 256.223 29.7558 255.71 30.089 255.35C30.4221 254.99 30.9164 254.837 31.3892 254.957C41.254 257.369 50.2376 259.585 58.7376 261.681C92.6625 270.053 119.463 276.667 163.5 285.989C164.058 286.109 164.488 286.578 164.553 287.146C164.628 287.724 164.327 288.281 163.822 288.543L160.018 290.464C117.561 311.956 96.2408 322.74 60.0378 338.218C59.8766 338.305 59.694 338.338 59.522 338.338ZM33.0656 258.177C42.5757 288.838 48.5719 304.992 60.2635 335.173C95.6176 320.022 116.905 309.249 158.814 288.03L159.158 287.855C117.314 278.938 91.0721 272.465 58.1036 264.322C50.2805 262.401 42.0384 260.371 33.0656 258.177Z" fill="#303437" fill-opacity="0.4"/>
<path d="M59.522 338.338C59.2641 338.338 59.017 338.262 58.7914 338.12C48.6794 331.44 39.9537 325.655 31.905 320.317C10.9183 306.4 -5.65192 295.409 -30.0559 279.745C-30.4965 279.462 -30.7329 278.949 -30.6684 278.425C-30.604 277.901 -30.2386 277.464 -29.7443 277.3C-7.67217 270.107 4.6749 265.436 30.5833 255.033C30.9272 254.891 31.314 254.913 31.6579 255.066C31.991 255.23 32.249 255.525 32.3564 255.885C42.4253 288.51 48.4431 304.697 60.7686 336.482C60.9836 337.039 60.8223 337.661 60.371 338.043C60.1238 338.229 59.8229 338.338 59.522 338.338ZM-26.1982 278.992C-3.09443 293.848 13.0782 304.577 33.3665 318.036C40.4696 322.74 48.0992 327.805 56.7281 333.513C45.5739 304.665 39.6421 288.51 30.2179 258.101C6.23303 267.717 -6.09254 272.388 -26.1982 278.992Z" fill="#303437" fill-opacity="0.4"/>
<path d="M140.149 355.18C139.859 355.18 139.568 355.082 139.321 354.896C138.87 354.536 138.687 353.936 138.87 353.379C146.693 329.89 151.303 316.901 159.663 293.313L161.952 286.862C162.092 286.469 162.393 286.163 162.78 286.032C163.166 285.901 163.586 285.945 163.929 286.163L166.132 287.572C180.381 296.675 188.226 301.696 202.464 310.657C202.851 310.897 203.088 311.323 203.098 311.781C203.109 312.24 202.894 312.676 202.518 312.938C176.889 330.937 163.457 339.964 140.879 354.951C140.665 355.115 140.407 355.18 140.149 355.18ZM163.919 289.383L162.199 294.23C154.301 316.518 149.756 329.344 142.674 350.508C162.833 337.115 176.029 328.209 199.305 311.88C186.141 303.584 178.361 298.618 164.703 289.885L163.919 289.383Z" fill="#303437" fill-opacity="0.4"/>
<path d="M140.149 355.18C140.073 355.18 140.009 355.169 139.934 355.158C106.89 349.733 90.7927 346.186 59.1997 338.294C58.6409 338.152 58.2218 337.661 58.1788 337.072C58.1359 336.482 58.4583 335.937 58.9955 335.707C95.1126 320.262 116.4 309.489 158.814 288.03L162.618 286.109C163.113 285.858 163.704 285.934 164.112 286.305C164.52 286.676 164.671 287.266 164.488 287.79L162.199 294.241C153.85 317.806 149.24 330.796 141.428 354.252C141.234 354.82 140.718 355.18 140.149 355.18ZM63.7775 336.624C92.4046 343.741 108.427 347.201 139.246 352.287C146.854 329.486 151.443 316.529 159.674 293.313L160.824 290.06L160.018 290.464C119.033 311.214 97.7561 321.987 63.7775 336.624Z" fill="#303437" fill-opacity="0.4"/>
<path d="M4.81461 352.779C4.32029 352.779 3.86893 352.506 3.63252 352.058C-12.0028 322.162 -19.138 307.437 -30.5717 279.101C-30.7974 278.556 -30.6362 277.923 -30.1956 277.54C-29.7443 277.158 -29.1103 277.115 -28.616 277.431C-4.20127 293.105 12.3797 304.108 33.3772 318.025C41.4259 323.362 50.1516 329.147 60.2635 335.827C60.7041 336.111 60.9298 336.635 60.8653 337.148C60.8008 337.672 60.4355 338.109 59.9412 338.262C36.4721 345.858 25.2533 349.024 5.06174 352.746C4.97577 352.779 4.88982 352.779 4.81461 352.779ZM-26.4883 282.027C-16.1077 307.459 -8.99392 322.085 5.53456 349.886C24.1895 346.404 35.2363 343.359 56.4058 336.537C47.2932 330.523 39.309 325.218 31.8943 320.306C11.9498 307.088 -4.0078 296.5 -26.4883 282.027Z" fill="#303437" fill-opacity="0.4"/>
<path d="M4.81461 352.779C4.65341 352.779 4.48148 352.746 4.32029 352.68C-20.7499 342.638 -33.0325 337.17 -55.0402 326.801C-55.6957 326.495 -55.9965 325.709 -55.7172 325.032C-49.5705 310.133 -44.0256 300.189 -30.4858 277.857C-30.2171 277.42 -29.7335 277.18 -29.2284 277.213C-28.7234 277.257 -28.2828 277.584 -28.0894 278.053C-16.6987 306.28 -9.58492 320.961 6.00741 350.77C6.27605 351.272 6.20085 351.895 5.82475 352.32C5.5561 352.626 5.19071 352.779 4.81461 352.779ZM-52.7405 324.89C-32.5167 334.408 -20.4276 339.801 1.91322 348.795C-12.1102 321.911 -19.138 307.295 -29.5831 281.59C-41.683 301.597 -47.0667 311.312 -52.7405 324.89Z" fill="#303437" fill-opacity="0.4"/>
<path d="M-54.4813 326.932C-54.5351 326.932 -54.5996 326.932 -54.6533 326.921C-55.2551 326.844 -55.7279 326.364 -55.8139 325.764L-63.5832 270.216C-63.6476 269.769 -63.4864 269.31 -63.1533 269.005C-62.8202 268.699 -62.3581 268.579 -61.9176 268.699L-57.5332 269.845C-47.4858 272.465 -40.9415 274.179 -29.0136 277.257C-28.5945 277.366 -28.2613 277.661 -28.1001 278.064C-27.9389 278.468 -27.9819 278.927 -28.1969 279.298C-41.6615 301.488 -47.1634 311.367 -53.2348 326.102C-53.4498 326.615 -53.944 326.932 -54.4813 326.932ZM-60.628 271.854L-53.8151 320.568C-48.4851 308.299 -42.9295 298.432 -31.4314 279.451C-42.2633 276.645 -48.6463 274.986 -58.1887 272.487L-60.628 271.854Z" fill="#303437" fill-opacity="0.4"/>
<path d="M-29.3359 279.942C-29.4434 279.942 -29.5616 279.931 -29.6691 279.898C-41.6078 276.809 -48.152 275.106 -58.1995 272.487L-62.5838 271.341C-63.0889 271.21 -63.4757 270.795 -63.5724 270.271L-71.9758 224.831C-72.094 224.209 -71.7716 223.587 -71.1913 223.325C-70.6218 223.074 -69.9448 223.248 -69.5794 223.761C-55.2444 243.496 -46.379 255.088 -28.3151 277.715C-27.9497 278.174 -27.9175 278.818 -28.2291 279.309C-28.4548 279.713 -28.8846 279.942 -29.3359 279.942ZM-61.0794 268.917L-57.5225 269.845C-48.6356 272.17 -42.4889 273.775 -32.9251 276.242C-47.9049 257.435 -56.4694 246.269 -68.2362 230.158L-61.0794 268.917Z" fill="#303437" fill-opacity="0.4"/>
<path d="M245.835 361.795C245.512 361.795 245.19 361.675 244.943 361.445C244.567 361.107 244.406 360.572 244.545 360.07C250.585 337.246 253.486 325.611 258.719 301.652C258.816 301.205 259.128 300.833 259.557 300.67C259.976 300.506 260.449 300.571 260.825 300.833C281.146 315.733 290.72 322.565 307.409 333.71C307.817 333.983 308.054 334.463 308.011 334.965C307.968 335.467 307.656 335.904 307.205 336.1C283.521 346.546 271.378 351.785 246.34 361.685C246.168 361.762 246.007 361.795 245.835 361.795ZM260.89 304.272C256.119 326.026 253.249 337.628 247.823 358.182C270.378 349.231 282.425 344.057 303.841 334.627C288.808 324.541 279.287 317.752 260.89 304.272Z" fill="#303437" fill-opacity="0.4"/>
<path d="M297.501 377.403C297.404 377.403 297.318 377.392 297.222 377.371C278.309 373.277 267.692 369.872 245.383 361.707C244.857 361.511 244.502 361.009 244.492 360.441C244.481 359.874 244.825 359.361 245.351 359.153C270.346 349.275 282.468 344.036 306.119 333.612C306.571 333.415 307.097 333.481 307.484 333.797C307.871 334.114 308.064 334.616 307.968 335.107C304.959 351.905 303.078 360.397 298.791 376.388C298.64 376.999 298.103 377.403 297.501 377.403ZM249.671 360.376C269.132 367.438 279.512 370.701 296.545 374.434C300.403 359.961 302.197 351.949 304.884 337.137C283.736 346.459 271.711 351.622 249.671 360.376Z" fill="#303437" fill-opacity="0.4"/>
<path d="M233.391 383.319C223.301 383.319 212.168 382.959 198.864 382.315C198.23 382.282 197.715 381.813 197.607 381.18C197.5 380.547 197.844 379.925 198.424 379.685C216.896 372.109 226.331 367.918 245.287 359.186C245.609 359.044 245.964 359.022 246.297 359.142C268.477 367.252 279.029 370.636 297.791 374.696C298.425 374.838 298.866 375.406 298.855 376.061C298.844 376.716 298.372 377.272 297.738 377.381C273.194 381.551 255.914 383.319 233.391 383.319ZM205.119 379.87C241.074 381.453 260.825 380.547 290.377 375.832C275.558 372.36 265.049 368.889 245.91 361.904C229.254 369.566 219.948 373.725 205.119 379.87Z" fill="#303437" fill-opacity="0.4"/>
<path d="M260.019 303.322C259.611 303.322 259.224 303.137 258.966 302.798C258.623 302.351 258.579 301.739 258.87 301.248C283.951 258.788 295.567 237.678 312.9 203.044C313.19 202.466 313.846 202.171 314.458 202.346C315.071 202.521 315.479 203.121 315.436 203.765C312.9 236.336 310.192 254.619 302.81 288.849C302.702 289.318 302.369 289.711 301.907 289.853C285.906 295.103 277.46 297.854 260.428 303.246C260.288 303.3 260.159 303.322 260.019 303.322ZM312.202 210.445C296.878 240.811 285.38 261.604 262.985 299.589C277.589 294.961 285.906 292.243 300.349 287.506C307.044 256.387 309.838 238.497 312.202 210.445Z" fill="#303437" fill-opacity="0.4"/>
<path d="M306.657 336.231C306.399 336.231 306.141 336.155 305.915 336.002C289.184 324.825 279.588 317.97 259.235 303.049C258.827 302.744 258.612 302.231 258.698 301.728C258.784 301.226 259.138 300.801 259.622 300.648C276.654 295.267 285.09 292.505 301.08 287.266C301.466 287.135 301.886 287.2 302.219 287.419C302.552 287.637 302.777 288.008 302.82 288.412L307.978 334.714C308.032 335.238 307.796 335.751 307.344 336.035C307.14 336.166 306.893 336.231 306.657 336.231ZM262.985 302.438C280.877 315.536 290.323 322.282 304.991 332.116L300.338 290.366C286.143 295.027 277.815 297.744 262.985 302.438Z" fill="#303437" fill-opacity="0.4"/>
<path d="M67.9577 376.17C67.818 376.17 67.6783 376.148 67.5386 376.104C41.2755 367.46 28.7135 362.679 4.30954 352.68C3.75076 352.451 3.41766 351.884 3.4714 351.272C3.52512 350.661 3.97641 350.181 4.56744 350.072C24.6086 346.371 35.7628 343.228 59.103 335.675C59.4683 335.555 59.8659 335.598 60.1883 335.795C60.5214 335.991 60.7471 336.319 60.8224 336.701C63.9064 351.818 65.5613 359.23 69.2471 374.489C69.3653 374.969 69.2149 375.471 68.8603 375.81C68.6131 376.05 68.2908 376.17 67.9577 376.17ZM9.59652 351.905C30.5296 360.441 42.9519 365.124 66.0771 372.764C62.8856 359.513 61.2522 352.135 58.512 338.742C37.7831 345.422 26.661 348.587 9.59652 351.905Z" fill="#303437" fill-opacity="0.4"/>
<path d="M-22.394 361.151C-22.7594 361.151 -23.114 360.998 -23.3719 360.725C-36.5679 346.481 -43.2841 339.364 -55.4377 326.517C-55.889 326.047 -55.9428 325.316 -55.5667 324.781C-55.1906 324.246 -54.4921 324.061 -53.9118 324.334C-31.9472 334.681 -19.7076 340.139 5.30892 350.148C5.82472 350.355 6.16864 350.869 6.15789 351.425C6.14715 351.982 5.80328 352.495 5.28748 352.691C-7.296 357.494 -12.6797 359.153 -22.1254 361.129C-22.2221 361.151 -22.3081 361.151 -22.394 361.151ZM-48.5711 329.846C-39.4263 339.528 -32.9358 346.437 -21.9427 358.302C-13.9477 356.61 -8.81117 355.082 1.05358 351.382C-19.4067 343.141 -31.2809 337.923 -48.5711 329.846Z" fill="#303437" fill-opacity="0.4"/>
<path d="M67.9577 376.17C67.8824 376.17 67.8179 376.159 67.7427 376.148L-22.609 361.129C-23.2537 361.02 -23.7266 360.463 -23.7373 359.808C-23.748 359.153 -23.2967 358.575 -22.6627 358.444C-13.3782 356.512 -8.08047 354.874 4.35255 350.126C4.66418 350.006 5.01877 350.006 5.3304 350.137C29.6699 360.103 42.1889 364.884 68.3874 373.496C69.0537 373.714 69.4406 374.423 69.2794 375.111C69.1074 375.755 68.5702 376.17 67.9577 376.17ZM-15.3447 359.579L51.3229 370.658C35.0214 365.036 23.3191 360.463 4.79311 352.877C-4.20123 356.304 -9.47746 358.105 -15.3447 359.579Z" fill="#303437" fill-opacity="0.4"/>
<path d="M67.9577 376.17C67.3559 376.17 66.8078 375.755 66.6574 375.133C62.9608 359.841 61.306 352.397 58.2111 337.246C58.1144 336.788 58.2648 336.308 58.598 335.991C58.9311 335.664 59.4039 335.533 59.8552 335.653C91.373 343.534 107.427 347.07 140.385 352.473C140.998 352.571 141.46 353.084 141.513 353.706C141.567 354.329 141.191 354.907 140.6 355.115C109.555 365.68 94.7472 370.199 68.2693 376.148C68.1511 376.159 68.0544 376.17 67.9577 376.17ZM61.2737 338.818C64.0031 352.124 65.6473 359.513 68.9463 373.19C93.0279 367.743 107.524 363.41 134.561 354.274C105.74 349.45 89.7934 345.924 61.2737 338.818Z" fill="#303437" fill-opacity="0.4"/>
<path d="M314.093 205.031C313.835 205.031 313.577 204.955 313.351 204.802C297.867 194.465 286.196 186.584 273.839 178.234C261.857 170.146 249.456 161.774 233.133 150.859C232.736 150.586 232.499 150.128 232.531 149.637C232.564 149.145 232.843 148.709 233.284 148.501C262.749 133.788 276.418 127.446 299.264 118.899C299.618 118.768 300.016 118.79 300.349 118.976C300.682 119.161 300.929 119.478 301.026 119.849C309.193 152.616 312.159 169.83 315.425 203.536C315.479 204.06 315.221 204.562 314.781 204.835C314.576 204.966 314.34 205.031 314.093 205.031ZM236.583 149.909C251.96 160.192 263.834 168.203 275.332 175.975C287.056 183.888 298.157 191.387 312.481 200.96C309.386 169.764 306.42 152.736 298.791 121.999C277.428 130.033 263.92 136.276 236.583 149.909Z" fill="#303437" fill-opacity="0.4"/>
<path d="M299.736 121.552C299.328 121.552 298.93 121.366 298.672 121.028L294.191 115.177C273.989 88.7845 261.793 72.8593 241.3 45.1566C240.892 44.6108 240.956 43.8359 241.44 43.3556C241.923 42.8753 242.686 42.8317 243.213 43.2683C256.355 53.8669 265.919 61.6603 276.052 69.9122C282.844 75.4462 290.065 81.3295 299.07 88.6317C299.349 88.8609 299.532 89.1884 299.564 89.5595C300.757 101.162 301.047 107.177 301.069 120.198C301.069 120.777 300.703 121.301 300.166 121.486C300.026 121.53 299.876 121.552 299.736 121.552ZM249.789 52.055C266.65 74.7367 278.287 89.9524 296.308 113.496L298.372 116.192C298.296 106.107 297.963 100.289 296.953 90.4C288.152 83.2614 281.049 77.4764 274.365 72.0297C266.488 65.6007 258.945 59.4555 249.789 52.055Z" fill="#303437" fill-opacity="0.4"/>
<path d="M298.232 91.0549C297.931 91.0549 297.641 90.9566 297.394 90.7602C288.389 83.4579 281.167 77.5746 274.365 72.0406C264.232 63.7888 254.668 55.9954 241.536 45.4076C241.064 45.0256 240.902 44.3816 241.128 43.814C241.365 43.2464 241.934 42.919 242.525 42.9845L280.824 47.6562C281.275 47.7107 281.672 47.9945 281.877 48.4202C289.431 64.3127 293.052 72.6956 299.478 89.1993C299.704 89.7778 299.521 90.4327 299.027 90.7929C298.791 90.9566 298.511 91.0549 298.232 91.0549ZM246.92 46.2481C258.203 55.3623 266.897 62.4353 276.042 69.8904C281.812 74.5839 287.884 79.5394 295.105 85.4008C289.85 72.0843 286.411 64.2254 279.77 50.254L246.92 46.2481Z" fill="#303437" fill-opacity="0.4"/>
<path d="M298.232 91.0549C297.684 91.0549 297.19 90.7165 296.985 90.1926C290.516 73.5688 287.078 65.6007 279.459 49.5991C279.222 49.097 279.308 48.5076 279.674 48.0928C280.039 47.678 280.619 47.5361 281.135 47.7217L305.109 56.5957C305.733 56.8249 306.098 57.4907 305.969 58.1456L299.564 89.9524C299.446 90.5419 298.963 90.9894 298.361 91.033C298.307 91.044 298.275 91.0549 298.232 91.0549ZM283.317 51.4328C289.291 64.0944 292.773 72.1171 297.824 84.9424L303.1 58.7569L283.317 51.4328Z" fill="#303437" fill-opacity="0.4"/>
<path d="M343.386 136.189C343.236 136.189 343.075 136.167 342.924 136.102C325.623 129.716 317.069 126.846 299.349 121.497C298.78 121.323 298.393 120.799 298.393 120.187C298.372 107.286 298.081 101.326 296.899 89.8324C296.846 89.2539 297.147 88.7081 297.662 88.4571C298.178 88.206 298.791 88.3152 299.188 88.7299C316.898 106.784 326.182 116.051 344.321 133.842C344.773 134.29 344.858 134.999 344.525 135.545C344.278 135.949 343.838 136.189 343.386 136.189ZM301.069 119.172C315.93 123.669 324.656 126.54 337.938 131.375C323.485 117.175 314.523 108.203 299.94 93.3689C300.8 102.363 301.037 108.312 301.069 119.172Z" fill="#303437" fill-opacity="0.4"/>
<path d="M349.393 105.408C349.275 105.408 349.157 105.397 349.039 105.365L297.877 91.0112C297.2 90.8147 296.781 90.1271 296.921 89.4176L303.325 57.6108C303.422 57.1087 303.798 56.7048 304.282 56.5739C304.765 56.432 305.292 56.5848 305.625 56.9668C314.448 66.6595 322.238 74.4856 330.491 82.7703C336.799 89.1011 343.322 95.6501 350.36 103.116C350.779 103.564 350.855 104.229 350.543 104.764C350.296 105.157 349.855 105.408 349.393 105.408ZM299.801 88.7081L345.02 101.402C339.281 95.41 333.876 89.9743 328.611 84.6913C320.895 76.9416 313.577 69.6066 305.442 60.7435L299.801 88.7081Z" fill="#303437" fill-opacity="0.4"/>
<path d="M343.386 136.189C343.042 136.189 342.709 136.058 342.451 135.807C324.291 118.004 315.006 108.716 297.276 90.651C296.846 90.2144 296.76 89.5377 297.071 89.0028C297.383 88.468 298.006 88.2169 298.587 88.3697L349.748 102.723C350.425 102.909 350.844 103.607 350.704 104.306L344.697 135.087C344.601 135.578 344.246 135.971 343.784 136.124C343.655 136.167 343.526 136.189 343.386 136.189ZM302.767 92.3756C317.682 107.548 326.773 116.629 342.548 132.096L347.835 105.015L302.767 92.3756Z" fill="#303437" fill-opacity="0.4"/>
<path d="M344.901 168.989C344.547 168.989 344.192 168.847 343.934 168.574C326.139 150.04 317.07 140.566 298.758 121.126C298.339 120.679 298.264 120.002 298.587 119.467C298.909 118.943 299.532 118.692 300.112 118.867C317.693 124.171 326.676 127.195 343.838 133.526C344.321 133.7 344.654 134.137 344.708 134.65C346.116 147.017 346.427 153.795 346.234 167.636C346.223 168.181 345.89 168.684 345.385 168.88C345.235 168.967 345.073 168.989 344.901 168.989ZM304.217 122.971C319.509 139.18 328.396 148.49 343.601 164.317C343.698 152.944 343.365 146.635 342.15 135.818C326.999 130.229 318.552 127.359 304.217 122.971Z" fill="#303437" fill-opacity="0.4"/>
<path d="M344.901 168.989C344.633 168.989 344.364 168.902 344.128 168.738C343.762 168.476 343.547 168.05 343.558 167.603C343.752 153.741 343.461 147.333 342.054 134.967C342 134.454 342.226 133.951 342.656 133.668C343.085 133.384 343.623 133.373 344.063 133.635C354.326 139.704 360.988 143.666 368.79 148.305L380.438 155.225C380.911 155.509 381.169 156.055 381.083 156.611C380.997 157.168 380.589 157.605 380.051 157.736C368.091 160.53 361.278 162.724 345.363 168.902C345.224 168.967 345.063 168.989 344.901 168.989ZM345.02 137.368C346.105 147.519 346.395 154.112 346.266 165.638C359.58 160.497 366.426 158.249 376.183 155.858L367.436 150.663C360.236 146.384 354.003 142.684 345.02 137.368Z" fill="#303437" fill-opacity="0.4"/>
<path d="M379.761 157.768C379.525 157.768 379.299 157.703 379.084 157.583L367.436 150.663C359.634 146.024 352.972 142.061 342.709 136.004C342.215 135.709 341.957 135.13 342.065 134.563L348.072 103.782C348.179 103.247 348.577 102.832 349.103 102.712C349.619 102.592 350.167 102.8 350.479 103.236C352.724 106.369 354.777 109.185 356.679 111.772C367.403 126.453 373.314 134.53 381.029 155.924C381.223 156.469 381.061 157.07 380.632 157.441C380.384 157.659 380.073 157.768 379.761 157.768ZM344.891 134.126C354.691 139.922 361.203 143.786 368.79 148.305L377.182 153.293C370.251 134.945 364.792 127.468 354.519 113.409C353.144 111.521 351.671 109.523 350.113 107.362L344.891 134.126Z" fill="#303437" fill-opacity="0.4"/>
<path d="M314.093 205.031C313.953 205.031 313.813 205.009 313.685 204.966C313.179 204.802 312.814 204.343 312.76 203.798C309.504 170.255 306.56 153.129 298.425 120.515C298.275 119.915 298.543 119.281 299.081 118.987C299.618 118.692 300.284 118.79 300.703 119.238C319.014 138.678 328.073 148.152 345.869 166.675C346.352 167.177 346.384 167.985 345.922 168.52C335.338 181.05 329.169 188.222 315.64 203.95L315.114 204.573C314.856 204.867 314.48 205.031 314.093 205.031ZM302.272 124.848C309.279 153.468 312.148 170.43 315.124 200.392C327.278 186.257 333.382 179.162 343.085 167.679C327.009 150.946 318.037 141.57 302.272 124.848Z" fill="#303437" fill-opacity="0.4"/>
<path d="M373.625 217.54C373.539 217.54 373.443 217.529 373.357 217.507C363.728 215.488 356.013 213.861 348.405 212.257C338.185 210.096 328.138 207.978 313.835 204.998C313.362 204.9 312.986 204.562 312.836 204.092C312.685 203.623 312.782 203.121 313.094 202.761L313.631 202.138C327.149 186.421 333.317 179.238 343.891 166.73C344.171 166.402 344.579 166.228 345.009 166.26C345.439 166.293 345.815 166.522 346.051 166.893C358.839 187.272 364.792 197.161 374.807 215.51C375.065 215.979 375.022 216.547 374.711 216.983C374.442 217.343 374.044 217.54 373.625 217.54ZM316.629 202.804C329.75 205.544 339.271 207.552 348.942 209.594C355.787 211.034 362.697 212.497 371.025 214.243C362.116 198.023 356.238 188.254 344.74 169.917C335.112 181.301 328.976 188.44 316.629 202.804Z" fill="#303437" fill-opacity="0.4"/>
<path d="M373.625 217.54C373.604 217.54 373.582 217.54 373.561 217.54C373.099 217.518 372.68 217.256 372.454 216.841C362.46 198.547 356.529 188.691 343.773 168.367C343.44 167.843 343.505 167.155 343.924 166.697C344.343 166.239 345.009 166.14 345.557 166.435C364.62 177.154 373.41 182.066 390.281 191.212C390.615 191.398 390.862 191.715 390.958 192.097C391.055 192.479 390.98 192.872 390.765 193.188L374.732 216.95C374.474 217.321 374.066 217.54 373.625 217.54ZM348.867 171.412C359.344 188.167 365.093 197.805 373.744 213.578L387.692 192.893C373.045 184.958 364.405 180.144 348.867 171.412Z" fill="#303437" fill-opacity="0.4"/>
<path d="M389.637 193.788C389.422 193.788 389.207 193.734 389.003 193.625C372.121 184.467 363.32 179.544 344.246 168.825C343.784 168.563 343.515 168.061 343.558 167.537C343.59 167.013 343.934 166.544 344.418 166.359C360.472 160.126 367.35 157.91 379.46 155.083C380.127 154.93 380.793 155.302 381.018 155.946C386.091 170.004 388.132 177.459 390.948 192.173C391.044 192.686 390.84 193.221 390.432 193.526C390.206 193.69 389.927 193.788 389.637 193.788ZM348.082 167.854C364.502 177.088 373.217 181.945 387.778 189.859C385.317 177.383 383.361 170.419 378.912 158.008C368.328 160.519 361.622 162.658 348.082 167.854Z" fill="#303437" fill-opacity="0.4"/>
<path d="M301.499 289.929C301.273 289.929 301.058 289.875 300.854 289.755C300.338 289.46 300.069 288.859 300.188 288.27C307.538 254.193 310.246 235.976 312.76 203.557C312.793 203.165 312.986 202.804 313.287 202.575C313.599 202.335 313.985 202.248 314.362 202.324C328.664 205.304 338.712 207.421 348.931 209.583C356.539 211.187 364.255 212.814 373.883 214.833C374.367 214.931 374.764 215.302 374.904 215.782C375.044 216.263 374.915 216.787 374.549 217.147C361.697 229.918 351.532 240.178 339.743 252.043C329.395 262.478 317.66 274.299 302.423 289.525C302.176 289.787 301.843 289.929 301.499 289.929ZM315.318 205.315C312.932 235.495 310.321 253.494 303.766 284.384C317.456 270.697 328.256 259.803 337.863 250.122C349.092 238.803 358.86 228.957 370.874 217.005C362.374 215.226 355.346 213.741 348.394 212.268C338.529 210.183 328.836 208.131 315.318 205.315Z" fill="#303437" fill-opacity="0.4"/>
<path d="M338.637 290.617C328.138 290.617 316.393 290.377 301.456 289.929C300.918 289.918 300.446 289.569 300.241 289.067C300.048 288.554 300.166 287.975 300.553 287.593C315.791 272.378 327.515 260.556 337.863 250.122C349.651 238.246 359.827 227.986 372.68 215.204C373.023 214.855 373.539 214.735 374.001 214.877C374.474 215.018 374.829 215.411 374.926 215.892L390.174 286.873C390.26 287.255 390.174 287.659 389.938 287.975C389.701 288.292 389.347 288.488 388.96 288.521C369.821 289.962 355.927 290.617 338.637 290.617ZM304.679 287.288C341.28 288.346 358.334 288.052 387.219 285.912L372.819 218.871C360.773 230.856 350.994 240.713 339.754 252.043C329.922 261.965 318.832 273.142 304.679 287.288Z" fill="#303437" fill-opacity="0.4"/>
<path d="M306.657 336.231C306.453 336.231 306.238 336.188 306.055 336.089C305.647 335.882 305.378 335.478 305.324 335.02L300.166 288.718C300.123 288.325 300.252 287.932 300.51 287.637C300.779 287.342 301.144 287.179 301.542 287.2C341.001 288.379 358.119 288.106 388.777 285.803C389.411 285.749 389.981 286.163 390.163 286.775C390.346 287.386 390.077 288.052 389.529 288.357C365.158 302.1 349.178 311.497 327.042 324.487C321.046 328.001 314.576 331.811 307.334 336.057C307.119 336.166 306.882 336.231 306.657 336.231ZM303.003 289.973L307.753 332.651C314.286 328.82 320.186 325.36 325.688 322.129C346.191 310.089 361.418 301.15 382.921 288.969C356.163 290.846 338.852 291.032 303.003 289.973Z" fill="#303437" fill-opacity="0.4"/>
<path d="M348.125 361.598C347.932 361.598 347.738 361.554 347.545 361.467C334.521 355.191 325.72 349.602 305.894 336.002C305.507 335.74 305.292 335.293 305.303 334.823C305.324 334.354 305.571 333.928 305.969 333.688C313.212 329.442 319.681 325.644 325.677 322.129C347.814 309.129 363.814 299.731 388.207 285.978C388.734 285.683 389.39 285.77 389.809 286.207C390.228 286.644 390.324 287.31 390.024 287.844L349.286 360.91C349.049 361.347 348.598 361.598 348.125 361.598ZM309.182 334.954C327.074 347.201 335.692 352.648 347.566 358.444L385.338 290.704C363.266 303.191 347.867 312.24 327.031 324.476C321.561 327.696 315.683 331.145 309.182 334.954Z" fill="#303437" fill-opacity="0.4"/>
<path d="M297.501 377.403C297.136 377.403 296.792 377.25 296.534 376.988C296.201 376.639 296.083 376.148 296.201 375.679C300.51 359.579 302.294 351.523 305.324 334.616C305.41 334.157 305.711 333.786 306.119 333.601C306.538 333.415 307.022 333.47 307.398 333.732C327.095 347.245 335.821 352.79 348.695 358.989C349.178 359.219 349.479 359.721 349.458 360.266C349.436 360.812 349.103 361.292 348.609 361.489C329.739 369.009 319.283 372.273 297.802 377.36C297.705 377.392 297.609 377.403 297.501 377.403ZM307.602 337.17C304.948 351.873 303.089 360.223 299.382 374.194C318.187 369.697 328.406 366.532 344.751 360.103C333.543 354.503 324.839 348.958 307.602 337.17Z" fill="#303437" fill-opacity="0.4"/>
<path d="M154.043 383.898C125.857 383.898 101.485 381.518 67.7428 376.159C67.1087 376.061 66.6252 375.504 66.6037 374.849C66.5822 374.194 67.0228 373.616 67.6568 373.474C94.0165 367.558 108.771 363.05 139.719 352.528C140.052 352.418 140.417 352.44 140.729 352.593C164.456 364.316 176.524 369.883 199.445 379.685C200.025 379.936 200.347 380.547 200.251 381.169C200.143 381.791 199.627 382.261 199.004 382.304C182.144 383.341 167.648 383.898 154.043 383.898ZM75.1789 374.554C119.022 381.235 147.424 382.512 193.105 379.925C173.59 371.509 161.63 365.942 140.063 355.289C112.166 364.774 97.4015 369.359 75.1789 374.554Z" fill="#303437" fill-opacity="0.4"/>
<path d="M14.3785 402.945C14.0024 402.945 13.6263 402.781 13.3684 402.486C-0.923706 385.983 -8.34909 377.578 -23.3934 360.714C-23.7802 360.288 -23.8555 359.655 -23.5761 359.142C-23.2967 358.629 -22.7486 358.356 -22.1791 358.444L68.1726 373.463C68.7313 373.55 69.172 373.998 69.2794 374.554C69.3869 375.122 69.1289 375.69 68.6346 375.984C42.2749 391.713 30.7982 397.804 14.7761 402.89C14.6471 402.923 14.5074 402.945 14.3785 402.945ZM-18.8264 361.773C-5.64112 376.563 1.70908 384.902 14.8083 400.02C29.498 395.282 40.5985 389.497 64.0676 375.548L-18.8264 361.773Z" fill="#303437" fill-opacity="0.4"/>
<path d="M100.529 420.627C100.507 420.627 100.486 420.627 100.453 420.627C62.1226 418.586 44.3166 414.93 13.8842 402.857C13.3576 402.65 13.0137 402.115 13.0352 401.537C13.0567 400.958 13.4328 400.456 13.9808 400.281C29.7451 395.282 41.1143 389.246 67.2806 373.638C67.8716 373.288 68.6239 373.441 69.0322 373.998C82.4431 392.128 89.1378 401.231 101.614 418.455C101.925 418.881 101.958 419.449 101.711 419.907C101.474 420.354 101.012 420.627 100.529 420.627ZM18.3867 401.7C45.6706 412.255 63.1649 415.77 97.756 417.746C86.5588 402.301 79.9178 393.274 67.603 376.606C43.962 390.687 32.4424 396.887 18.3867 401.7Z" fill="#303437" fill-opacity="0.4"/>
<path d="M100.529 420.627C100.109 420.627 99.7011 420.431 99.4432 420.071C86.978 402.857 80.2833 393.754 66.8831 375.635C66.55 375.188 66.5285 374.587 66.8079 374.118C67.0873 373.638 67.6245 373.387 68.1618 373.474C117.969 381.398 147.284 382.774 198.843 379.597C199.498 379.565 200.068 379.99 200.229 380.623C200.39 381.256 200.079 381.922 199.488 382.195C155.827 402.65 134.636 410.902 100.883 420.584C100.765 420.605 100.647 420.627 100.529 420.627ZM71.0095 376.672C82.9375 392.805 89.557 401.81 101.055 417.691C132.433 408.653 153.044 400.762 191.901 382.73C145.522 385.295 116.776 383.81 71.0095 376.672Z" fill="#303437" fill-opacity="0.4"/>
<path d="M175.041 429.043C148.853 429.043 130.305 426.805 100.26 420.605C99.6474 420.475 99.2068 419.951 99.1853 419.318C99.1638 418.684 99.5614 418.128 100.163 417.953C133.744 408.315 154.86 400.096 198.37 379.717C198.821 379.51 199.359 379.565 199.756 379.87C200.154 380.176 200.347 380.689 200.261 381.191C197.027 399.998 195.35 409.352 192.041 427.7C191.923 428.333 191.385 428.803 190.751 428.814C185.153 428.956 179.962 429.043 175.041 429.043ZM106.213 419.023C137.967 425.354 156.988 426.925 189.58 426.107C192.61 409.308 194.265 400.03 197.156 383.265C157.364 401.853 136.388 410.138 106.213 419.023Z" fill="#303437" fill-opacity="0.4"/>
<path d="M190.708 428.814C190.397 428.814 190.096 428.705 189.849 428.497C189.472 428.181 189.301 427.689 189.387 427.198C192.696 408.85 194.362 399.507 197.596 380.711C197.715 380.034 198.295 379.543 198.983 379.586C241.773 381.693 261.986 380.689 297.275 374.696C297.92 374.587 298.554 374.969 298.769 375.602C298.984 376.235 298.715 376.923 298.135 377.25C254.679 401.144 232.843 412.485 191.181 428.737C191.041 428.781 190.88 428.814 190.708 428.814ZM200.046 382.37C197.081 399.583 195.426 408.872 192.46 425.299C230.275 410.454 251.799 399.517 289.872 378.669C259.299 383.494 239.033 384.247 200.046 382.37Z" fill="#303437" fill-opacity="0.4"/>
<path d="M299.865 417.768C299.747 417.768 299.64 417.757 299.521 417.724C298.952 417.582 298.565 417.036 298.522 416.447L296.158 376.126C296.115 375.46 296.556 374.871 297.19 374.718C318.52 369.675 328.89 366.434 347.62 358.968C348.2 358.738 348.856 358.935 349.211 359.459C349.565 359.972 349.533 360.67 349.125 361.14C336.09 376.224 302.025 415.694 300.961 417.145C300.725 417.549 300.317 417.768 299.865 417.768ZM298.909 377.109L301.004 412.899C308.161 404.451 330.351 378.735 343.494 363.519C327.987 369.533 317.671 372.644 298.909 377.109Z" fill="#303437" fill-opacity="0.4"/>
<path d="M227.137 452.456C226.696 452.456 226.266 452.227 226.009 451.834C225.675 451.31 225.729 450.622 226.148 450.164C253.4 420.289 268.53 404.145 296.545 375.078C296.921 374.696 297.48 374.565 297.974 374.751C298.468 374.936 298.812 375.406 298.844 375.952L301.209 416.272C301.241 416.774 300.994 417.255 300.564 417.517C272.087 435.046 257.075 442.218 227.567 452.38C227.427 452.434 227.277 452.456 227.137 452.456ZM296.341 379.193C268.928 407.671 254.571 423.061 231.747 448.046C257.569 438.921 272.302 431.706 298.468 415.617L296.341 379.193Z" fill="#303437" fill-opacity="0.4"/>
<path d="M227.137 452.456C226.9 452.456 226.664 452.39 226.46 452.27C213.748 444.673 206.204 439.685 189.967 428.585C189.548 428.301 189.322 427.81 189.387 427.297C189.44 426.794 189.773 426.358 190.235 426.172C231.747 409.985 253.529 398.666 296.867 374.838C297.447 374.522 298.178 374.674 298.576 375.22C298.973 375.755 298.93 376.519 298.468 376.999C268.197 408.413 253.722 423.967 228.126 452.03C227.857 452.314 227.502 452.456 227.137 452.456ZM193.599 427.777C207.955 437.579 215.349 442.436 226.879 449.356C251.605 422.254 266.381 406.438 290.355 381.507C252.734 402.104 231.188 413.019 193.599 427.777Z" fill="#303437" fill-opacity="0.4"/>
<path d="M114.444 463C114.251 463 114.047 462.956 113.864 462.869C73.9753 443.604 52.6877 429.742 13.6155 402.716C13.046 402.323 12.8633 401.569 13.1857 400.947C13.508 400.336 14.228 400.063 14.862 400.314C44.9721 412.255 62.6062 415.868 100.593 417.899C101.152 417.931 101.625 418.302 101.797 418.837C107.417 436.214 110.125 444.379 115.712 461.199C115.884 461.723 115.734 462.291 115.336 462.651C115.089 462.88 114.767 463 114.444 463ZM24.4581 406.885C56.8356 429.119 77.4785 442.108 112.156 459.016C107.427 444.815 104.601 436.247 99.5291 420.573C66.4424 418.772 48.7117 415.705 24.4581 406.885Z" fill="#303437" fill-opacity="0.4"/>
<path d="M14.3785 402.945C14.1421 402.945 13.9057 402.879 13.6908 402.748L-17.5691 383.712C-17.8808 383.527 -18.0957 383.221 -18.1817 382.872L-23.7051 360.114C-23.8555 359.502 -23.5761 358.88 -23.0281 358.586C-22.48 358.291 -21.8138 358.411 -21.4054 358.869C-6.35041 375.755 1.075 384.16 15.3778 400.674C15.8184 401.177 15.8292 401.93 15.3993 402.454C15.1414 402.781 14.7653 402.945 14.3785 402.945ZM-15.7101 381.671L7.6515 395.905C-2.14878 384.629 -9.0476 376.814 -19.8258 364.72L-15.7101 381.671Z" fill="#303437" fill-opacity="0.4"/>
<path d="M114.444 463C113.81 463 113.262 462.552 113.134 461.909C112.994 461.232 113.381 460.555 114.036 460.337C139.966 451.768 156.311 444.444 190.085 426.249C190.526 426.009 191.052 426.041 191.461 426.325C207.644 437.404 215.166 442.359 227.814 449.924C228.319 450.229 228.566 450.819 228.448 451.397C228.319 451.976 227.846 452.401 227.266 452.456L114.573 463C114.53 463 114.487 463 114.444 463ZM190.633 429.043C162.07 444.411 145.952 451.998 125.728 459.212L222.892 450.12C212.361 443.746 204.85 438.768 190.633 429.043Z" fill="#303437" fill-opacity="0.4"/>
<path d="M227.137 452.456C226.578 452.456 226.052 452.096 225.869 451.528C225.632 450.819 226.009 450.044 226.707 449.793C255.99 439.707 270.894 432.59 299.167 415.181C299.693 414.853 300.37 414.941 300.811 415.377C301.251 415.814 301.337 416.501 301.026 417.047C296.287 425.168 293.901 429.087 288.84 436.989C288.657 437.284 288.356 437.491 288.023 437.579C271.722 441.53 229.114 451.888 227.556 452.38C227.427 452.434 227.277 452.456 227.137 452.456ZM295.975 420.333C278.277 431.073 265.672 437.699 250.348 443.942C265.242 440.307 282.446 436.127 286.873 435.057C290.667 429.13 292.945 425.452 295.975 420.333Z" fill="#303437" fill-opacity="0.4"/>
<path d="M114.444 463C113.886 463 113.359 462.64 113.176 462.072C107.728 445.689 104.859 437.044 99.2498 419.689C99.0993 419.23 99.2068 418.717 99.5184 418.357C99.8408 417.997 100.324 417.833 100.786 417.931C136.259 425.255 155.569 427.013 190.676 426.096C191.288 426.063 191.847 426.5 192.008 427.111C192.17 427.722 191.89 428.366 191.342 428.661C157.407 446.944 140.965 454.312 114.864 462.935C114.724 462.978 114.584 463 114.444 463ZM102.516 421.064C107.513 436.52 110.221 444.673 115.293 459.922C139.192 451.965 155.139 444.914 185.056 428.945C153.946 429.512 134.872 427.657 102.516 421.064Z" fill="#303437" fill-opacity="0.4"/>
<path d="M388.863 288.521C388.24 288.521 387.692 288.085 387.552 287.451L372.304 216.47C372.228 216.099 372.304 215.717 372.508 215.411L388.53 191.66C388.863 191.169 389.476 190.95 390.045 191.125C390.604 191.3 390.991 191.835 390.991 192.435L390.217 287.179C390.206 287.877 389.69 288.456 389.013 288.521C388.96 288.521 388.917 288.521 388.863 288.521ZM375.055 216.459L387.617 274.964L388.251 196.877L375.055 216.459Z" fill="#303437" fill-opacity="0.4"/>
<path d="M-62.2721 174.807C-62.5408 174.807 -62.7987 174.731 -63.0351 174.567C-63.5724 174.185 -63.7658 173.464 -63.4864 172.864L-31.3776 103.4C-31.109 102.832 -30.4965 102.516 -29.8947 102.647C-29.2822 102.778 -28.8416 103.313 -28.8202 103.935L-27.724 138.481C-27.7133 138.852 -27.853 139.213 -28.1001 139.475L-61.2943 174.392C-61.5629 174.665 -61.9175 174.807 -62.2721 174.807ZM-31.3347 109.709L-57.6192 166.588L-30.4427 138.001L-31.3347 109.709Z" fill="#303437" fill-opacity="0.4"/>
<path d="M304.637 59.2372C304.486 59.2372 304.325 59.2153 304.174 59.1498L280.211 50.2758C280.071 50.2212 279.942 50.1448 279.824 50.0575L239.205 16.5807C238.646 16.1223 238.549 15.3036 238.968 14.7251C239.387 14.1466 240.182 13.9829 240.784 14.3758L305.378 56.7267C305.947 57.1087 306.162 57.8619 305.851 58.484C305.614 58.9534 305.142 59.2372 304.637 59.2372ZM281.339 47.7981L293.858 52.4261L260.116 30.3011L281.339 47.7981Z" fill="#303437" fill-opacity="0.4"/>
<path d="M299.865 417.724C299.468 417.724 299.07 417.538 298.812 417.2C298.415 416.687 298.436 415.956 298.855 415.464L347.115 359.339C347.566 358.804 348.351 358.717 348.91 359.131C349.468 359.546 349.63 360.321 349.286 360.932L323.979 405.008C323.85 405.226 323.667 405.412 323.431 405.532L300.488 417.582C300.284 417.669 300.08 417.724 299.865 417.724ZM339.862 371.924L305.528 411.852L321.851 403.283L339.862 371.924Z" fill="#303437" fill-opacity="0.4"/>
<path d="M287.712 437.622C287.4 437.622 287.099 437.513 286.852 437.306C286.336 436.869 286.218 436.116 286.573 435.537L298.726 415.639C298.855 415.432 299.038 415.257 299.253 415.148L322.195 403.098C322.797 402.781 323.538 402.967 323.915 403.534C324.301 404.102 324.205 404.866 323.71 405.324L288.614 437.273C288.356 437.502 288.034 437.622 287.712 437.622ZM300.811 417.396L293.794 428.89L314.071 410.433L300.811 417.396Z" fill="#303437" fill-opacity="0.4"/>
</svg>
