<svg width="438" height="397" viewBox="0 0 438 397" fill="none" xmlns="http://www.w3.org/2000/svg">
<path d="M65.9929 -25.3023C65.5076 -25.3023 65.0342 -25.5427 64.7501 -25.9756C64.3476 -26.6008 64.4542 -27.4424 65.0105 -27.9354L94.1289 -53.701C94.342 -53.8934 94.6024 -54.0136 94.8865 -54.0497L129.639 -59.1355C130.361 -59.2437 131.06 -58.7989 131.273 -58.0775C131.486 -57.3681 131.154 -56.5986 130.491 -56.286L66.6203 -25.4466C66.4191 -25.3504 66.206 -25.3023 65.9929 -25.3023ZM95.7506 -51.1401L75.0954 -32.8649L120.407 -54.7471L95.7506 -51.1401Z" fill="#303437" fill-opacity="0.4"/>
<path d="M95.1114 -51.0559C94.4841 -51.0559 93.9159 -51.4527 93.7147 -52.0659C93.478 -52.7512 93.762 -53.4967 94.3775 -53.8573L167.304 -96.2511C167.955 -96.6238 168.772 -96.4555 169.221 -95.8543C169.671 -95.2532 169.6 -94.3995 169.067 -93.8705C154.769 -79.7553 146.838 -71.9643 130.882 -56.5505C130.657 -56.3341 130.373 -56.2019 130.077 -56.1538L95.3245 -51.068C95.2534 -51.068 95.1824 -51.0559 95.1114 -51.0559ZM158.592 -87.7267L102.58 -55.1679L129.189 -59.0634C141.523 -70.9784 149.052 -78.3365 158.592 -87.7267Z" fill="#303437" fill-opacity="0.4"/>
<path d="M95.7979 -5.48808C95.502 -5.48808 95.218 -5.57224 94.9694 -5.75259C91.9629 -7.8326 88.9563 -9.9607 86.0208 -12.0407C77.889 -17.7998 70.2187 -23.2463 65.3775 -25.4466C64.8567 -25.687 64.5134 -26.216 64.5016 -26.8052C64.4898 -27.3943 64.8211 -27.9233 65.342 -28.1758L129.213 -59.0153C129.817 -59.3038 130.539 -59.1475 130.977 -58.6306C131.415 -58.1136 131.45 -57.3681 131.072 -56.803L125.757 -48.9399C115.494 -33.7546 108.712 -23.7272 97.0171 -6.14935C96.7922 -5.82473 96.4608 -5.59629 96.0702 -5.51212C95.9874 -5.48808 95.8926 -5.48808 95.7979 -5.48808ZM69.3546 -26.7571C74.2906 -24.0038 80.8481 -19.3628 87.7135 -14.4934C90.2347 -12.702 92.8151 -10.8745 95.4074 -9.08302C106.617 -25.9035 113.316 -35.8105 123.33 -50.6351L125.532 -53.8814L69.3546 -26.7571Z" fill="#303437" fill-opacity="0.4"/>
<path d="M95.7979 -5.48808C95.4783 -5.48808 95.1706 -5.58427 94.8984 -5.80068C94.271 -6.28161 94.1289 -7.18335 94.5669 -7.8326C106.273 -25.4225 113.056 -35.4499 123.318 -50.6351L128.633 -58.4863C128.692 -58.5704 128.763 -58.6546 128.834 -58.7267C144.778 -74.1284 152.709 -81.9195 166.996 -96.0226C167.552 -96.5757 168.44 -96.5877 169.02 -96.0587C169.6 -95.5297 169.671 -94.628 169.174 -94.0028C142.541 -60.2537 127.769 -42.4353 96.9106 -5.99306C96.6383 -5.65641 96.224 -5.48808 95.7979 -5.48808ZM131 -56.6587L125.78 -48.9278C120.62 -41.2811 116.335 -34.9449 111.86 -28.284C126.834 -46.0904 138.209 -59.905 151.703 -76.7615C145.607 -70.8221 139.428 -64.7984 131 -56.6587Z" fill="#303437" fill-opacity="0.4"/>
<path d="M95.8097 -5.48808C95.4191 -5.48808 95.0285 -5.64439 94.7326 -5.95699C94.2118 -6.52208 94.1881 -7.38775 94.6853 -7.97688C125.52 -44.3831 140.269 -62.1894 166.878 -95.9024C167.256 -96.3713 167.872 -96.5757 168.44 -96.4074C169.02 -96.2391 169.434 -95.7341 169.494 -95.1329C170.594 -85.0335 171.518 -79.587 174.216 -67.4315C174.347 -66.8544 174.134 -66.2532 173.66 -65.9046C152.567 -49.7093 138.659 -38.7803 121.058 -24.9416C113.778 -19.2186 105.906 -13.0266 96.6975 -5.81271C96.4371 -5.58427 96.1175 -5.48808 95.8097 -5.48808ZM166.972 -91.2014C144.506 -62.7906 130.326 -45.5373 106.368 -17.1626C110.937 -20.7455 115.198 -24.1 119.27 -27.2981C136.67 -40.9685 150.448 -51.8134 171.139 -67.696C168.89 -77.8676 167.907 -83.3262 166.972 -91.2014Z" fill="#303437" fill-opacity="0.4"/>
<path d="M172.784 -65.5799C172.618 -65.5799 172.441 -65.604 172.275 -65.6761C171.802 -65.8565 171.447 -66.2532 171.34 -66.7582C168.618 -79.0459 167.683 -84.5525 166.558 -94.7843C166.487 -95.4696 166.878 -96.1188 167.517 -96.3593C191.427 -105.353 204.211 -108.395 229.648 -111.136C230.334 -111.208 230.95 -110.811 231.187 -110.162C231.423 -109.513 231.199 -108.791 230.642 -108.407C209.537 -93.5459 198.257 -84.9373 173.672 -65.8926C173.423 -65.6882 173.104 -65.5799 172.784 -65.5799ZM169.636 -93.9426C170.606 -85.2018 171.506 -79.8515 173.731 -69.6919C195.215 -86.332 206.46 -94.9045 224.179 -107.481C203.086 -104.968 190.717 -101.83 169.636 -93.9426Z" fill="#303437" fill-opacity="0.4"/>
<path d="M95.8097 -5.48808C95.2889 -5.48808 94.78 -5.77664 94.5196 -6.25757C94.1645 -6.90682 94.3302 -7.7244 94.9102 -8.18127C104.119 -15.3952 111.991 -21.5751 119.27 -27.2981C136.883 -41.1368 150.792 -52.0779 171.896 -68.2852C172.323 -68.6098 172.879 -68.6819 173.364 -68.4655C173.85 -68.2491 174.193 -67.7922 174.252 -67.2632C175.803 -53.9656 176.927 -46.9079 179.969 -31.3499C180.123 -30.5444 179.614 -29.7509 178.809 -29.5825C145.264 -22.6331 128.302 -17.7036 96.3187 -5.57224C96.153 -5.51213 95.9754 -5.48808 95.8097 -5.48808ZM171.624 -64.3055C151.667 -48.9639 138.103 -38.2993 121.081 -24.9175C115.897 -20.8417 110.405 -16.5254 104.356 -11.7762C130.551 -21.4188 147.288 -26.0838 176.797 -32.2276C174.134 -45.8619 172.985 -52.9316 171.624 -64.3055Z" fill="#303437" fill-opacity="0.4"/>
<path d="M178.525 -29.5585C178.43 -29.5585 178.324 -29.5705 178.229 -29.5946C177.649 -29.7148 177.187 -30.1837 177.069 -30.7728C174.015 -46.427 172.879 -53.5207 171.316 -66.9145C171.257 -67.4435 171.47 -67.9605 171.885 -68.2852C196.505 -87.366 207.809 -95.9746 228.961 -110.883C229.541 -111.292 230.323 -111.232 230.832 -110.727C231.341 -110.234 231.435 -109.441 231.057 -108.839C212.686 -79.5028 201.855 -63.1753 179.744 -30.2198C179.46 -29.799 178.998 -29.5585 178.525 -29.5585ZM174.347 -66.4095C175.732 -54.6749 176.809 -47.7496 179.283 -34.8727C198.458 -63.4518 209.064 -79.4667 224.57 -104.102C207.324 -91.8386 196.032 -83.2059 174.347 -66.4095Z" fill="#303437" fill-opacity="0.4"/>
<path d="M178.525 -29.5585C178.111 -29.5585 177.696 -29.7388 177.412 -30.0755C176.963 -30.5925 176.927 -31.3499 177.306 -31.915C199.393 -64.8345 210.212 -81.162 228.571 -110.45C229.009 -111.148 229.908 -111.352 230.607 -110.919C248.042 -99.846 259.003 -92.56 281.73 -76.0762C282.191 -75.7516 282.416 -75.1865 282.333 -74.6214C282.251 -74.0563 281.86 -73.5994 281.327 -73.4191C242.716 -60.9029 221.007 -51.092 179.2 -29.7268C178.975 -29.6066 178.75 -29.5585 178.525 -29.5585ZM230.264 -107.577C213.266 -80.4647 202.636 -64.3656 182.952 -35.005C219.042 -53.3524 241.591 -63.548 277.599 -75.3668C257.062 -90.2034 246.326 -97.3572 230.264 -107.577Z" fill="#303437" fill-opacity="0.4"/>
<path d="M280.854 -73.3469C280.546 -73.3469 280.25 -73.4431 279.99 -73.6235C257.322 -90.0591 246.397 -97.3212 229.009 -108.358C228.476 -108.695 228.204 -109.344 228.346 -109.97C228.488 -110.595 229.009 -111.064 229.636 -111.124C256.742 -114.045 271.503 -113.649 298.325 -109.272C298.786 -109.2 299.189 -108.899 299.402 -108.479C299.615 -108.058 299.627 -107.553 299.414 -107.12C293.578 -95.0848 290.193 -88.6043 282.132 -74.0924C281.931 -73.7196 281.576 -73.4551 281.162 -73.3589C281.079 -73.3589 280.96 -73.3469 280.854 -73.3469ZM234.241 -108.587C249.321 -98.9563 260.139 -91.6943 280.368 -77.038C287.423 -89.7586 290.785 -96.191 295.875 -106.639C272.035 -110.426 257.748 -110.907 234.241 -108.587Z" fill="#303437" fill-opacity="0.4"/>
<path d="M47.279 41.0897C47.0068 41.0897 46.7464 41.0176 46.5097 40.8613C45.9415 40.5126 45.6811 39.8153 45.8587 39.166L64.5726 -27.226C64.691 -27.6468 64.9869 -27.9955 65.3656 -28.1758C65.7563 -28.3562 66.206 -28.3682 66.5966 -28.1879C71.6746 -25.8674 79.4751 -20.3487 87.7134 -14.5055C90.6371 -12.4375 93.6318 -10.3094 96.6265 -8.24139C96.9934 -7.9889 97.2302 -7.58011 97.2657 -7.12323C97.3012 -6.66635 97.1355 -6.2215 96.8159 -5.9089C77.451 13.0517 67.4726 22.6342 48.2734 40.693C48.0011 40.9575 47.646 41.0897 47.279 41.0897ZM66.9281 -24.6651L50.1554 34.8377C66.4783 19.46 76.2909 10.0338 93.4542 -6.77457C90.9567 -8.51793 88.4592 -10.2853 86.0089 -12.0167C78.7175 -17.2107 71.7693 -22.1282 66.9281 -24.6651Z" fill="#303437" fill-opacity="0.4"/>
<path d="M47.279 41.0897C47.2199 41.0897 47.1607 41.0897 47.1015 41.0777C46.3795 40.9815 45.8231 40.3683 45.7994 39.6349L44.5921 1.58155C44.5803 1.25693 44.675 0.932297 44.8643 0.655762L64.7738 -27.6829C65.1881 -28.284 65.9693 -28.4884 66.6203 -28.1638C67.2713 -27.8512 67.6027 -27.0937 67.4015 -26.3964L48.6876 39.9956C48.5219 40.6569 47.9301 41.0897 47.279 41.0897ZM47.5749 1.99033L48.4627 29.9563L62.217 -18.8218L47.5749 1.99033Z" fill="#303437" fill-opacity="0.4"/>
<path d="M83.3457 69.9213C83.0142 69.9213 82.6828 69.8011 82.4105 69.5847C65.4958 55.5055 58.0979 49.5901 46.4031 40.8012C46.048 40.5367 45.835 40.1279 45.8113 39.671C45.7876 39.2141 45.9652 38.7933 46.2848 38.4807C65.4722 20.4339 75.4387 10.8634 94.78 -8.07306C95.2534 -8.54196 95.9873 -8.62613 96.5555 -8.28948C97.1236 -7.9408 97.4077 -7.25549 97.2302 -6.60623C89.8914 21.2996 87.3465 36.7494 84.8253 68.5266C84.7779 69.0797 84.4346 69.5727 83.9257 69.7891C83.7363 69.8732 83.5469 69.9213 83.3457 69.9213ZM49.5991 39.4666C60.0273 47.3298 67.3306 53.173 82.1028 65.4367C84.411 37.3024 86.8612 21.9608 93.0281 -2.1817C76.4922 13.9775 66.6795 23.3796 49.5991 39.4666Z" fill="#303437" fill-opacity="0.4"/>
<path d="M83.3457 69.9213C83.1326 69.9213 82.9314 69.8732 82.7301 69.7891C82.162 69.5246 81.8187 68.9354 81.8661 68.2982C84.411 36.3045 86.9796 20.7465 94.3657 -7.37573C94.4841 -7.84464 94.8274 -8.22938 95.2772 -8.39771C127.438 -20.5892 144.494 -25.5548 178.217 -32.5282C178.845 -32.6605 179.496 -32.3599 179.803 -31.7828C180.111 -31.2057 180.028 -30.4963 179.578 -30.0154C141.594 10.3224 120.407 32.3489 84.3873 69.4765C84.1151 69.765 83.7363 69.9213 83.3457 69.9213ZM97.0408 -5.84879C90.1755 20.3618 87.5595 35.6312 85.1567 64.4027C118.418 30.1126 139.215 8.47083 174.169 -28.6207C143.879 -22.2123 127.071 -17.2107 97.0408 -5.84879Z" fill="#303437" fill-opacity="0.4"/>
<path d="M10.7154 79.5519C10.1827 79.5519 9.67369 79.2513 9.41328 78.7584C9.10553 78.1812 9.21208 77.4719 9.66188 77.003C23.866 62.1544 31.3468 54.3273 46.2256 38.5528C46.7465 38.0118 47.575 37.9397 48.1787 38.3845C59.9207 47.1975 67.3424 53.137 84.3045 67.2522C84.7661 67.6369 84.9554 68.2742 84.7779 68.8633C84.6003 69.4524 84.0914 69.8612 83.4877 69.9213C52.3452 72.6025 37.4428 74.5863 10.9994 79.5399C10.8929 79.5399 10.8101 79.5519 10.7154 79.5519ZM47.4448 41.5827C34.306 55.5175 26.9317 63.2485 15.0003 75.7165C37.8097 71.5324 52.5228 69.6087 79.5935 67.2281C65.1053 55.2049 57.8966 49.4579 47.4448 41.5827Z" fill="#303437" fill-opacity="0.4"/>
<path d="M178.525 -29.5585C177.886 -29.5585 177.318 -29.9793 177.116 -30.6045C176.903 -31.3019 177.211 -32.0713 177.862 -32.396C217.953 -52.8835 241.059 -63.512 280.416 -76.2686C280.806 -76.3888 281.221 -76.3527 281.588 -76.1483C281.943 -75.9439 282.203 -75.6073 282.298 -75.1985C285.884 -60.8669 287.885 -53.0037 291.507 -38.7682L292.312 -35.6302C292.43 -35.1613 292.324 -34.6684 292.016 -34.2956C291.708 -33.9229 291.258 -33.7185 290.773 -33.7546C246.16 -36.8926 222.084 -35.9909 178.738 -29.5585C178.667 -29.5585 178.596 -29.5585 178.525 -29.5585ZM279.812 -72.9261C244.669 -61.468 223.446 -52.138 187.284 -33.8387C224.795 -39.0328 248.504 -39.682 288.926 -36.9167L288.642 -38.0348C285.151 -51.7533 283.162 -59.5563 279.812 -72.9261Z" fill="#303437" fill-opacity="0.4"/>
<path d="M83.3457 69.9213C82.9314 69.9213 82.5289 69.753 82.233 69.4164C81.724 68.8272 81.7477 67.9255 82.2922 67.3724C118.3 30.2568 139.476 8.2424 177.448 -32.0834C177.921 -32.5883 178.667 -32.6965 179.259 -32.3358C179.851 -31.9872 180.123 -31.2658 179.922 -30.6045C176.158 -18.0283 174.264 -11.5478 170.429 2.03843C170.346 2.35104 170.156 2.61555 169.908 2.81994C157.053 12.8353 146.53 21.0832 136.599 28.8501C119.779 42.0155 105.267 53.3895 84.2334 69.6328C83.973 69.8131 83.6653 69.9213 83.3457 69.9213ZM175.305 -25.4706C145.205 6.46297 125.567 26.9625 99.0057 54.3994C111.908 44.3721 122.762 35.8717 134.8 26.4575C144.625 18.7627 155.053 10.5989 167.73 0.715881C170.831 -10.2613 172.666 -16.5855 175.305 -25.4706Z" fill="#303437" fill-opacity="0.4"/>
<path d="M169.02 3.10848C168.653 3.10848 168.298 2.97623 168.014 2.71172C167.6 2.32698 167.434 1.73785 167.6 1.1968C171.435 -12.4134 173.34 -18.8939 177.105 -31.4942C177.27 -32.0473 177.744 -32.4561 178.312 -32.5402C221.907 -39.0087 246.113 -39.9105 290.974 -36.7604C291.708 -36.7123 292.3 -36.1111 292.347 -35.3537C292.395 -34.5962 291.886 -33.9349 291.164 -33.7786C243.189 -23.8836 216.012 -14.8301 169.541 3.02432C169.375 3.07242 169.198 3.10848 169.02 3.10848ZM179.661 -29.7148C176.347 -18.6294 174.477 -12.2451 171.257 -0.859154C212.71 -16.7418 239.011 -25.5668 279.883 -34.476C242.254 -36.7003 218.794 -35.4739 179.661 -29.7148Z" fill="#303437" fill-opacity="0.4"/>
<path d="M280.854 -73.3469C280.439 -73.3469 280.037 -73.5273 279.753 -73.8399C279.327 -74.3208 279.256 -75.0182 279.564 -75.5832C287.589 -90.0471 290.962 -96.4916 296.774 -108.467C297.058 -109.056 297.698 -109.392 298.337 -109.284C317.015 -106.242 326.449 -103.778 344.228 -97.3091C344.855 -97.0807 345.258 -96.4435 345.198 -95.7702C345.139 -95.0969 344.642 -94.5318 343.979 -94.4115C322.803 -90.6242 309.795 -85.8631 281.446 -73.4551C281.256 -73.383 281.055 -73.3469 280.854 -73.3469ZM298.952 -106.146C293.945 -95.8423 290.666 -89.5181 284.298 -77.9759C307.782 -88.1595 320.566 -92.8365 338.037 -96.3473C323.833 -101.325 315.015 -103.489 298.952 -106.146Z" fill="#303437" fill-opacity="0.4"/>
<path d="M388.474 -57.5244C388.414 -57.5244 388.355 -57.5244 388.296 -57.5364L346.11 -62.6824C345.388 -62.7665 344.843 -63.3797 344.808 -64.1131C344.263 -77.6152 343.766 -83.8191 342.263 -95.698C342.192 -96.2992 342.476 -96.9003 343.009 -97.2009C343.529 -97.5015 344.18 -97.4534 344.654 -97.0687C362.421 -82.6889 372.009 -74.6935 389.421 -60.1815C389.93 -59.7607 390.095 -59.0393 389.847 -58.4262C389.598 -57.8851 389.054 -57.5244 388.474 -57.5244ZM347.708 -65.5198L383.609 -61.1314C369.487 -72.9021 360.314 -80.5248 345.648 -92.4157C346.773 -83.0256 347.246 -76.8457 347.708 -65.5198Z" fill="#303437" fill-opacity="0.4"/>
<path d="M346.287 -62.6703C346.169 -62.6703 346.039 -62.6824 345.92 -62.7184C320.578 -69.3192 307.179 -71.5074 280.759 -73.3469C280.073 -73.395 279.516 -73.912 279.398 -74.5973C279.279 -75.2827 279.646 -75.956 280.274 -76.2325C308.86 -88.7366 321.998 -93.5459 343.47 -97.3813C343.873 -97.4534 344.275 -97.3572 344.607 -97.1168C344.938 -96.8763 345.151 -96.5036 345.198 -96.0948C346.713 -84.0957 347.222 -77.8556 347.767 -64.2454C347.791 -63.7644 347.578 -63.3196 347.222 -63.019C346.95 -62.7906 346.619 -62.6703 346.287 -62.6703ZM287.033 -75.8958C309.167 -74.1645 322.377 -71.8921 344.725 -66.133C344.24 -77.6993 343.731 -83.8311 342.452 -94.135C323.584 -90.6603 310.966 -86.2358 287.033 -75.8958Z" fill="#303437" fill-opacity="0.4"/>
<path d="M290.868 -33.7666C290.666 -33.7666 290.477 -33.8027 290.288 -33.8868C289.862 -34.0672 289.554 -34.4399 289.435 -34.8968L288.642 -38.0348C285.02 -52.2703 283.02 -60.1455 279.433 -74.4771C279.315 -74.946 279.422 -75.439 279.729 -75.8117C280.037 -76.1844 280.487 -76.3768 280.972 -76.3527C307.605 -74.5011 321.111 -72.3009 346.666 -65.6401C347.282 -65.4838 347.72 -64.9427 347.779 -64.3055C347.826 -63.6683 347.471 -63.0671 346.903 -62.8026C327.858 -54.3262 316.4 -48.1704 291.613 -33.959C291.377 -33.8267 291.116 -33.7666 290.868 -33.7666ZM282.795 -73.2026C286.074 -60.1214 288.051 -52.3424 291.495 -38.7803L291.815 -37.5299C313.831 -50.1422 325.265 -56.298 341.766 -63.7765C319.655 -69.4033 306.445 -71.4954 282.795 -73.2026Z" fill="#303437" fill-opacity="0.4"/>
<path d="M409.472 20.8908C409.176 20.8908 408.892 20.8066 408.632 20.6263L402.346 16.2378C391.575 8.72333 384.39 3.70966 372.009 -4.86288C371.784 -5.01917 371.606 -5.23559 371.488 -5.48808C360.681 -29.799 355.248 -41.4855 344.95 -63.536C344.63 -64.2334 344.867 -65.063 345.518 -65.4717C346.169 -65.8685 347.009 -65.7002 347.471 -65.087C370.032 -34.5842 383.455 -17.0424 405.696 12.0057L410.632 18.4501C411.082 19.0392 411.046 19.8688 410.537 20.3978C410.253 20.7225 409.863 20.8908 409.472 20.8908ZM374.021 -7.11121C385.597 0.908249 392.616 5.80169 402.453 12.6669C383.739 -11.7882 371.216 -28.1518 353.851 -51.4888C360.551 -37.085 365.688 -25.8554 374.021 -7.11121Z" fill="#303437" fill-opacity="0.4"/>
<path d="M372.837 -4.59837C372.648 -4.59837 372.458 -4.63444 372.281 -4.70657C339.6 -18.1365 323.194 -24.2322 290.453 -33.8147C289.885 -33.983 289.459 -34.488 289.388 -35.0892C289.317 -35.6903 289.613 -36.2795 290.134 -36.568C315.015 -50.8395 326.52 -57.0194 345.684 -65.5439C346.418 -65.8685 347.27 -65.5439 347.613 -64.8105C357.923 -42.7359 363.368 -31.0494 374.175 -6.71445C374.423 -6.14935 374.317 -5.50011 373.891 -5.05525C373.618 -4.76669 373.24 -4.59837 372.837 -4.59837ZM294.667 -35.7144C324.188 -26.9855 340.535 -20.9619 369.973 -8.90266C360.361 -30.4843 354.987 -42.0386 345.565 -62.2135C328.082 -54.3984 316.802 -48.3868 294.667 -35.7144Z" fill="#303437" fill-opacity="0.4"/>
<path d="M215.397 44.1677C215.053 44.1677 214.698 44.0474 214.426 43.7949L213.822 43.2539C194.457 26.0247 184.739 17.38 168.061 2.73577C167.671 2.38709 167.481 1.85807 167.576 1.34107C167.671 0.824081 168.026 0.391251 168.511 0.198875C215.136 -17.7157 242.408 -26.8052 290.584 -36.7484C291.223 -36.8806 291.862 -36.568 292.182 -35.9909C292.489 -35.4138 292.395 -34.6924 291.945 -34.2235C278.628 -20.3367 267.822 -9.22729 256.364 2.53138C244.681 14.5185 232.607 26.9144 216.474 43.7108C216.166 44.0114 215.775 44.1677 215.397 44.1677ZM171.873 2.12258C187.308 15.6847 196.99 24.2934 215.314 40.5968C230.974 24.3054 242.799 12.1619 254.245 0.415291C264.708 -10.3334 274.651 -20.5291 286.453 -32.8168C242.136 -23.4627 215.408 -14.5656 171.873 2.12258Z" fill="#303437" fill-opacity="0.4"/>
<path d="M336.924 53.4375C336.901 53.4375 336.877 53.4375 336.853 53.4375C336.333 53.4135 335.859 53.1129 335.622 52.644C327.301 36.8215 320.827 24.63 314.553 12.8232C306.717 -1.92922 299.307 -15.8761 289.554 -34.5601C289.281 -35.0891 289.341 -35.7384 289.708 -36.2073C290.086 -36.6762 290.69 -36.8686 291.27 -36.7003C324.141 -27.0817 340.594 -20.9619 373.393 -7.48392C373.796 -7.31561 374.104 -6.99097 374.234 -6.58219C374.376 -6.1734 374.329 -5.71652 374.116 -5.3438C362.373 15.1076 354.845 27.1068 338.155 52.7642C337.883 53.1851 337.422 53.4375 336.924 53.4375ZM293.815 -32.8408C302.775 -15.7078 309.771 -2.51836 317.169 11.3925C323.135 22.6341 329.302 34.2365 337.066 49.001C352.371 25.4476 359.805 13.5807 370.707 -5.36784C340.18 -17.884 323.845 -23.9557 293.815 -32.8408Z" fill="#303437" fill-opacity="0.4"/>
<path d="M250.99 93.7393C250.528 93.7393 250.078 93.5108 249.794 93.1261C234.951 72.6746 227.577 62.4669 214.189 43.5425C213.775 42.9533 213.834 42.1357 214.331 41.6187C230.477 24.8103 242.562 12.4144 254.233 0.415306C265.679 -11.3313 276.498 -22.4408 289.802 -36.3155C290.276 -36.8085 291.01 -36.9167 291.602 -36.568C292.193 -36.2314 292.466 -35.522 292.288 -34.8607C281.043 6.16238 272.58 31.7357 258.553 74.0934C256.612 79.9487 254.564 86.1286 252.398 92.7173C252.221 93.2463 251.771 93.6431 251.226 93.7272C251.144 93.7272 251.061 93.7393 250.99 93.7393ZM217.326 42.8091C229.731 60.3509 237.034 70.4624 250.493 89.0141C252.339 83.4474 254.079 78.1692 255.748 73.1315C269.1 32.8058 277.409 7.71337 287.873 -30.0034C276.368 -18.0283 266.614 -8.01295 256.34 2.53139C244.882 14.3021 233.033 26.4695 217.326 42.8091Z" fill="#303437" fill-opacity="0.4"/>
<path d="M250.99 93.7393C250.635 93.7393 250.291 93.607 250.007 93.3665C249.557 92.9698 249.392 92.3325 249.581 91.7675C251.759 85.1787 253.807 78.9988 255.736 73.1435C269.751 30.8219 278.202 5.28469 289.435 -35.6663C289.601 -36.2554 290.098 -36.6882 290.702 -36.7604C291.306 -36.8325 291.886 -36.5079 292.17 -35.9669C301.923 -17.2828 309.321 -3.34796 317.157 11.4045C323.431 23.2112 329.905 35.4148 338.227 51.2373C338.416 51.61 338.451 52.0428 338.321 52.4396C338.191 52.8364 337.895 53.161 337.516 53.3293C305.971 67.2642 288.903 75.44 251.629 93.607C251.428 93.6912 251.203 93.7393 250.99 93.7393ZM291.294 -31.2417C280.534 7.68933 272.154 32.9861 258.553 74.0934C256.944 78.9387 255.275 84.0005 253.511 89.3388C288.098 72.4943 305.095 64.3666 334.865 51.2012C326.911 36.0761 320.637 24.2573 314.553 12.8232C307.191 -1.05153 300.207 -14.1929 291.294 -31.2417Z" fill="#303437" fill-opacity="0.4"/>
<path d="M336.924 53.4375C336.51 53.4375 336.096 53.2572 335.812 52.9326C335.374 52.4276 335.315 51.6821 335.694 51.105C352.348 25.4957 359.864 13.5326 371.559 -6.85873C371.76 -7.21942 372.115 -7.4719 372.506 -7.56809C372.908 -7.66428 373.323 -7.58011 373.666 -7.33965C386.059 1.2449 393.232 6.24654 404.015 13.7731L410.301 18.1615C410.762 18.4741 410.999 19.0272 410.928 19.5923C410.857 20.1453 410.49 20.6263 409.969 20.8186C384.923 30.1967 369.925 37.1461 337.564 53.3053C337.374 53.3895 337.149 53.4375 336.924 53.4375ZM373.323 -3.96114C362.752 14.4223 355.449 26.1329 341.162 48.1473C369.215 34.2005 383.952 27.4314 406.288 18.9791L402.358 16.2378C391.954 8.98784 384.911 4.07035 373.323 -3.96114Z" fill="#303437" fill-opacity="0.4"/>
<path d="M83.3457 69.9213C82.7894 69.9213 82.2567 69.5967 82.0081 69.0677C81.7122 68.4305 81.8897 67.661 82.4461 67.2281C103.468 50.9848 117.992 39.6229 134.8 26.4575C144.731 18.6785 155.266 10.4306 168.121 0.415306C168.677 -0.0175323 169.458 0.0065155 169.991 0.475426C186.681 15.1197 196.399 23.7764 215.763 41.0056L216.367 41.5466C216.805 41.9314 216.971 42.5445 216.805 43.1096C216.639 43.6747 216.166 44.0835 215.598 44.1677C161.539 51.8986 135.25 57.3691 83.6889 69.8853C83.5705 69.9093 83.464 69.9213 83.3457 69.9213ZM168.961 3.54133C156.544 13.22 146.282 21.2515 136.611 28.8261C121.318 40.8012 107.931 51.2854 89.8085 65.3044C136.102 54.1469 162.332 48.7966 211.988 41.6428C194.173 25.7842 184.574 17.2478 168.961 3.54133Z" fill="#303437" fill-opacity="0.4"/>
<path d="M1.4945 135.881C1.23409 135.881 0.973668 135.808 0.736933 135.664C0.216115 135.351 -0.0560896 134.738 0.0386045 134.125L9.25941 77.7965C9.36594 77.1713 9.83942 76.6784 10.4549 76.5701C37.0166 71.5925 51.9783 69.6087 83.2273 66.9155C83.8665 66.8554 84.482 67.2402 84.7187 67.8533C84.9555 68.4665 84.7779 69.1639 84.2808 69.5847C48.0721 99.4743 31.2403 113.036 2.39411 135.568C2.1337 135.772 1.81409 135.881 1.4945 135.881ZM12.0055 79.3355L3.56593 130.855C29.6186 110.476 46.2493 97.0697 78.6702 70.3301C51.1142 72.7828 36.4366 74.7787 12.0055 79.3355Z" fill="#303437" fill-opacity="0.4"/>
<path d="M157.609 121.14C157.314 121.14 157.018 121.056 156.757 120.864C122.809 96.3964 108.156 86.1526 82.5526 69.6808C82.0555 69.3562 81.7832 68.7551 81.8897 68.1659C81.9962 67.5768 82.4224 67.0959 83.0024 66.9516C134.67 54.3994 161.007 48.9168 215.183 41.1739C215.775 41.0897 216.367 41.3783 216.663 41.9073C216.971 42.4363 216.923 43.0976 216.557 43.5785L212.295 49.1813C192.149 75.7045 179.993 91.7073 158.781 120.527C158.509 120.936 158.059 121.14 157.609 121.14ZM87.0979 69.0557C112.05 85.1787 127.568 96.1439 157.29 117.569C177.981 89.471 190.09 73.5283 209.963 47.3538L211.999 44.6727C161.527 51.9587 135.309 57.3811 87.0979 69.0557Z" fill="#303437" fill-opacity="0.4"/>
<path d="M157.609 121.14C157.136 121.14 156.674 120.912 156.402 120.503C156.035 119.974 156.047 119.264 156.426 118.747C177.637 89.9039 189.805 73.889 209.963 47.3658L214.225 41.763C214.509 41.3903 214.947 41.1859 215.42 41.1739C215.894 41.1859 216.32 41.4144 216.592 41.7991C229.968 60.7116 237.342 70.9193 252.173 91.3466C252.469 91.7434 252.54 92.2604 252.375 92.7293C252.209 93.1982 251.83 93.5589 251.368 93.6911C216.107 103.418 197.227 109.165 165.943 118.675L158.024 121.08C157.894 121.116 157.752 121.14 157.609 121.14ZM215.349 45.1776L212.307 49.1813C193.025 74.5623 181.058 90.3127 161.48 116.884L165.102 115.778C195.783 106.448 214.544 100.737 248.516 91.3466C234.939 72.6506 227.636 62.5391 215.349 45.1776Z" fill="#303437" fill-opacity="0.4"/>
<path d="M384.129 155.49C383.916 155.49 383.715 155.442 383.514 155.358C365.889 147.182 351.046 140.173 336.7 133.392C310.552 121.032 285.861 109.357 250.398 93.619C249.865 93.3786 249.522 92.8616 249.51 92.2724C249.498 91.6833 249.83 91.1423 250.35 90.8898C287.66 72.7107 304.74 64.5229 336.333 50.564C337.055 50.2514 337.895 50.552 338.25 51.2734C358.231 92.0921 368.588 113.481 385.491 153.398C385.727 153.963 385.609 154.637 385.171 155.07C384.875 155.346 384.508 155.49 384.129 155.49ZM254.541 92.1762C288.465 107.277 312.517 118.651 337.954 130.662C351.342 136.987 365.155 143.515 381.253 150.994C365.439 113.794 355.686 93.619 336.238 53.8824C306.326 67.1079 289.317 75.2235 254.541 92.1762Z" fill="#303437" fill-opacity="0.4"/>
<path d="M384.129 155.49C384.035 155.49 383.952 155.478 383.857 155.466C383.372 155.37 382.969 155.045 382.768 154.577C365.865 114.648 356.088 94.4606 335.599 52.5959C335.303 51.9827 335.445 51.2493 335.942 50.8045C336.439 50.3596 337.173 50.2995 337.741 50.6722C355.733 62.6954 369.393 71.9172 382.591 80.8264C396.203 90.0121 409.058 98.7048 426.103 110.079C426.47 110.331 426.718 110.728 426.766 111.173C426.813 111.618 426.659 112.063 426.351 112.387C412.774 126.334 404.536 134.907 390.888 149.106L385.195 155.033C384.911 155.334 384.52 155.49 384.129 155.49ZM340.689 56.251C358.775 93.2102 368.919 114.359 384.615 151.33L388.769 147.014C401.991 133.259 410.135 124.783 422.978 111.594C406.667 100.701 394.167 92.2604 380.957 83.3392C368.896 75.1995 356.455 66.7953 340.689 56.251Z" fill="#303437" fill-opacity="0.4"/>
<path d="M113.541 170.808C113.447 170.808 113.352 170.796 113.269 170.784C112.76 170.688 112.334 170.327 112.156 169.834C96.9224 128.065 90.0689 106.508 81.9016 68.743C81.7714 68.1539 82.0081 67.5407 82.4934 67.1921C82.9787 66.8434 83.6298 66.8314 84.1387 67.156C111.209 84.5656 126.798 95.5908 158.474 118.423C158.817 118.675 159.042 119.06 159.089 119.493C159.136 119.926 158.994 120.347 158.71 120.671C145.169 135.736 136.528 145.535 126.514 156.885C122.88 161.009 119.022 165.373 114.642 170.327C114.358 170.628 113.956 170.808 113.541 170.808ZM85.5592 71.6166C93.2057 106.364 99.9526 127.633 114.074 166.443C117.791 162.235 121.129 158.448 124.301 154.853C134.031 143.816 142.482 134.245 155.384 119.878C123.745 97.0817 109.02 86.7778 85.5592 71.6166Z" fill="#303437" fill-opacity="0.4"/>
<path d="M1.4945 135.881C0.878991 135.881 0.322672 135.484 0.109611 134.895C-0.115288 134.281 0.0859054 133.584 0.594886 133.187C29.4056 110.68 46.2374 97.1178 82.4224 67.2522C82.9432 66.8194 83.7008 66.8073 84.2335 67.2161C84.7779 67.6249 84.9791 68.3583 84.7187 68.9955C74.4799 94.3645 69.7808 107.109 62.1342 132.574C61.9449 133.187 61.4003 133.62 60.7611 133.632C36.1052 134.414 23.937 134.871 1.55366 135.881C1.54182 135.881 1.51818 135.881 1.4945 135.881ZM79.7947 73.2878C48.1432 99.3901 31.5717 112.748 6.11085 132.67C25.3337 131.817 37.3954 131.36 59.613 130.662C66.5493 107.626 71.1183 94.9536 79.7947 73.2878Z" fill="#303437" fill-opacity="0.4"/>
<path d="M113.541 170.808C113.245 170.808 112.949 170.712 112.689 170.531L104.687 164.808C87.5477 152.557 77.1905 145.15 59.897 133.368C59.3526 132.995 59.1158 132.31 59.3052 131.684C66.9873 106.111 71.7101 93.3064 81.9844 67.8413C82.233 67.2281 82.8367 66.8554 83.4758 66.9155C84.115 66.9756 84.6595 67.4445 84.7897 68.0938C92.9097 105.69 99.7395 127.152 114.926 168.776C115.151 169.389 114.95 170.086 114.441 170.483C114.18 170.7 113.861 170.808 113.541 170.808ZM62.4538 131.504C79.2383 142.95 89.5362 150.308 106.392 162.356L110.511 165.301C97.0408 128.15 90.3648 107.013 82.9313 73.4321C74.0419 95.6028 69.4611 108.251 62.4538 131.504Z" fill="#303437" fill-opacity="0.4"/>
<path d="M113.541 170.808C113.103 170.808 112.665 170.603 112.381 170.231C111.931 169.654 111.967 168.836 112.44 168.295C116.82 163.341 120.679 158.977 124.313 154.853C134.327 143.503 142.979 133.692 156.521 118.627C156.698 118.423 156.935 118.279 157.183 118.206L165.102 115.802C196.41 106.279 215.302 100.532 250.599 90.7936C251.321 90.6012 252.079 90.9739 252.363 91.6953C252.635 92.4047 252.351 93.2102 251.688 93.5709C221.563 109.934 199.038 122.799 177.258 135.243C157.243 146.677 138.351 157.474 114.24 170.628C114.015 170.748 113.778 170.808 113.541 170.808ZM158.426 120.96C145.039 135.844 136.445 145.595 126.502 156.861C124.526 159.109 122.478 161.43 120.312 163.883C140.92 152.545 157.917 142.83 175.803 132.622C194.741 121.801 214.236 110.668 238.81 97.1899C211.183 104.921 193.309 110.367 165.954 118.687L158.426 120.96Z" fill="#303437" fill-opacity="0.4"/>
<path d="M384.129 155.49C337.126 155.406 312.801 155.286 263.572 154.961C262.874 154.961 262.27 154.456 262.128 153.759C258.956 138.213 256.754 127.548 254.339 115.814C252.895 108.84 251.38 101.494 249.546 92.5369C249.427 91.9839 249.628 91.4188 250.066 91.0581C250.492 90.7094 251.084 90.6252 251.593 90.8417C287.08 106.604 311.795 118.279 337.954 130.65C352.3 137.432 367.132 144.441 384.745 152.605C385.384 152.893 385.727 153.603 385.574 154.288C385.42 154.997 384.828 155.49 384.129 155.49ZM264.791 151.968C310.801 152.268 335.031 152.388 377.311 152.473C362.35 145.511 349.341 139.355 336.711 133.392C311.215 121.344 287.092 109.947 253.037 94.7853C254.624 102.48 255.961 108.997 257.251 115.213C259.595 126.635 261.749 137.059 264.791 151.968Z" fill="#303437" fill-opacity="0.4"/>
<path d="M113.541 170.808C112.89 170.808 112.31 170.375 112.121 169.738C111.92 169.052 112.215 168.319 112.843 167.982C136.919 154.841 155.81 144.044 175.814 132.622C197.606 120.166 220.143 107.289 250.303 90.9138C250.717 90.6854 251.203 90.6733 251.629 90.8777C252.055 91.0821 252.351 91.4669 252.446 91.9358C254.292 100.893 255.807 108.239 257.239 115.213C259.666 126.935 261.868 137.612 265.028 153.158C265.111 153.567 265.016 153.999 264.779 154.348C264.531 154.697 264.164 154.913 263.75 154.961L240.775 157.558C191.96 163.077 162.486 166.395 113.671 170.808C113.624 170.796 113.577 170.808 113.541 170.808ZM249.948 94.5087C220.688 110.427 198.612 123.028 177.258 135.231C159.042 145.643 141.736 155.526 120.584 167.141C165.185 163.053 194.09 159.783 240.455 154.54L261.808 152.136C258.814 137.456 256.683 127.128 254.339 115.814C253.002 109.369 251.605 102.588 249.948 94.5087Z" fill="#303437" fill-opacity="0.4"/>
<path d="M365.723 221.113C365.522 221.113 365.309 221.065 365.12 220.981C364.433 220.668 364.09 219.886 364.315 219.165C372.411 192.894 376.199 179.741 382.697 153.627C382.756 153.374 382.887 153.134 383.076 152.941L388.769 147.014C402.417 132.815 410.656 124.242 424.244 110.283C424.753 109.754 425.57 109.682 426.162 110.127C426.754 110.56 426.943 111.365 426.612 112.027C407.483 150.248 394.664 173.537 367.002 220.379C366.718 220.848 366.232 221.113 365.723 221.113ZM385.467 154.745C380.081 176.399 376.542 189.155 370.825 208.032C392.202 171.601 404.264 149.683 419.628 119.313C409.709 129.532 402.133 137.407 390.888 149.106L385.467 154.745Z" fill="#303437" fill-opacity="0.4"/>
<path d="M365.723 221.113C365.451 221.113 365.191 221.041 364.954 220.896C333.8 201.515 313.713 188.278 283.316 168.247C276.983 164.075 270.213 159.614 262.779 154.733C262.223 154.372 261.974 153.675 262.164 153.038C262.353 152.4 262.933 151.968 263.584 151.968H263.596C312.825 152.292 337.138 152.412 384.13 152.497C384.579 152.497 385.017 152.713 385.289 153.074C385.574 153.434 385.668 153.915 385.562 154.36C379.052 180.547 375.252 193.736 367.144 220.055C367.002 220.5 366.682 220.848 366.256 221.017C366.078 221.077 365.901 221.113 365.723 221.113ZM268.638 154.997C274.426 158.809 279.824 162.356 284.926 165.722C314.778 185.392 334.687 198.509 364.883 217.326C372.399 192.882 376.163 179.789 382.224 155.49C338.085 155.406 313.89 155.286 268.638 154.997Z" fill="#303437" fill-opacity="0.4"/>
<path d="M259.098 205.002C259.003 205.002 258.897 204.99 258.79 204.966C210.248 194.674 180.703 187.388 143.299 178.166C133.948 175.858 124.052 173.417 113.186 170.76C112.476 170.591 112.002 169.918 112.062 169.185C112.109 168.451 112.689 167.862 113.411 167.802C162.202 163.39 191.652 160.071 240.455 154.553L263.43 151.968C263.868 151.919 264.306 152.076 264.626 152.388C264.945 152.701 265.099 153.146 265.064 153.591C263.43 172.082 262.53 182.05 261.039 198.581L260.577 203.631C260.542 204.052 260.329 204.449 259.986 204.701C259.713 204.894 259.406 205.002 259.098 205.002ZM122.632 169.978C130.148 171.83 137.227 173.573 144.009 175.244C180.963 184.358 210.248 191.584 257.772 201.683L258.08 198.317C259.524 182.338 260.424 172.491 261.951 155.154L240.775 157.546C195.014 162.716 166.262 165.963 122.632 169.978Z" fill="#303437" fill-opacity="0.4"/>
<path d="M301.544 231.982C301.272 231.982 301.012 231.91 300.763 231.753C285.068 221.882 276.427 216.352 260.719 206.324L258.293 204.773C257.819 204.473 257.559 203.932 257.606 203.367L258.068 198.317C259.559 181.785 260.471 171.818 262.093 153.326C262.152 152.653 262.637 152.112 263.288 151.98C263.939 151.847 264.59 152.184 264.886 152.773C268.117 159.266 271.017 165.085 273.704 170.495C284.05 191.259 291.519 206.264 302.858 229.806C303.142 230.407 303.012 231.128 302.527 231.585C302.266 231.85 301.911 231.982 301.544 231.982ZM260.648 202.717L262.306 203.775C276.474 212.829 284.902 218.215 297.958 226.451C287.861 205.543 280.712 191.211 271.077 171.866C269.053 167.79 266.898 163.486 264.59 158.833C263.241 174.114 262.377 183.685 261.027 198.593L260.648 202.717Z" fill="#303437" fill-opacity="0.4"/>
<path d="M301.544 231.982C300.988 231.982 300.467 231.657 300.219 231.14C288.891 207.611 281.422 192.618 271.077 171.866C268.39 166.455 265.478 160.636 262.258 154.144C261.962 153.543 262.092 152.797 262.59 152.352C263.087 151.907 263.821 151.835 264.377 152.208C271.799 157.089 278.581 161.562 284.914 165.722C315.299 185.741 335.374 198.966 366.493 218.336C367.013 218.66 367.286 219.285 367.179 219.886C367.073 220.488 366.599 220.981 365.996 221.089C340.937 225.766 328.142 228.002 301.769 231.97C301.698 231.97 301.627 231.982 301.544 231.982ZM267.372 157.739C269.633 162.295 271.739 166.516 273.728 170.507C283.931 190.983 291.329 205.855 302.409 228.832C326.674 225.165 339.41 222.976 361.663 218.84C332.355 200.553 312.636 187.556 283.316 168.247C278.309 164.941 273.03 161.466 267.372 157.739Z" fill="#303437" fill-opacity="0.4"/>
<path d="M46.995 195.359C46.6517 195.359 46.3085 195.239 46.0362 194.998C45.6456 194.662 45.4562 194.145 45.5391 193.628C49.1375 170.098 51.9665 157.366 59.3053 131.708C59.4355 131.252 59.7787 130.879 60.2166 130.711C60.6546 130.542 61.1518 130.602 61.5424 130.879C78.8714 142.686 89.2285 150.08 106.392 162.356L114.393 168.067C114.843 168.379 115.08 168.92 115.009 169.473C114.938 170.026 114.595 170.495 114.086 170.7C85.4763 182.182 71.8404 187.352 47.4448 195.299C47.2909 195.335 47.1489 195.359 46.995 195.359ZM61.5779 134.522C54.9493 157.871 52.144 170.411 48.8297 191.68C71.0118 184.406 84.5057 179.32 110.452 168.92L104.699 164.808C88.1041 152.953 77.8771 145.643 61.5779 134.522Z" fill="#303437" fill-opacity="0.4"/>
<path d="M46.995 195.359C46.557 195.359 46.1309 195.155 45.8468 194.806C25.9137 169.846 16.1247 157.041 0.310784 135.267C-0.00880845 134.822 -0.0679865 134.233 0.168749 133.728C0.405484 133.223 0.890799 132.899 1.43529 132.875C23.8304 131.865 36.0104 131.408 60.6782 130.626C61.1754 130.614 61.6015 130.831 61.8975 131.203C62.1934 131.576 62.2762 132.081 62.146 132.538C54.8545 158.063 52.0374 170.712 48.4627 194.085C48.368 194.674 47.9538 195.155 47.3856 195.311C47.2554 195.347 47.1252 195.359 46.995 195.359ZM4.33531 135.748C18.6341 155.37 28.2219 167.91 46.048 190.285C49.3268 169.425 52.1558 156.837 58.7252 133.692C36.4248 134.402 24.3749 134.859 4.33531 135.748Z" fill="#303437" fill-opacity="0.4"/>
<path d="M350.099 285.521C349.684 285.521 349.294 285.341 349.01 285.028C331.409 265.382 321.454 254.429 300.467 231.501C300.089 231.092 299.97 230.503 300.16 229.986C300.337 229.457 300.799 229.084 301.343 229C327.68 225.032 340.452 222.808 365.475 218.131C365.96 218.047 366.457 218.203 366.812 218.564C367.167 218.925 367.298 219.442 367.191 219.935C361.415 246.374 358.219 259.226 351.555 284.415C351.413 284.944 350.998 285.353 350.478 285.485C350.336 285.509 350.217 285.521 350.099 285.521ZM304.551 231.549C323.537 252.313 333.409 263.158 349.377 280.976C355.378 258.252 358.538 245.484 363.794 221.498C341.044 225.73 328.319 227.942 304.551 231.549Z" fill="#303437" fill-opacity="0.4"/>
<path d="M298.431 308.125C298.124 308.125 297.828 308.028 297.567 307.848C297.153 307.547 296.928 307.055 296.952 306.538C298.585 277.021 299.224 261.378 300.065 230.443C300.077 229.83 300.455 229.289 301.024 229.084C301.592 228.868 302.219 229.024 302.633 229.469C323.632 252.409 333.587 263.362 351.2 283.02C351.519 283.381 351.649 283.862 351.555 284.331C351.46 284.8 351.152 285.196 350.714 285.401C329.799 295.031 319.382 299.66 298.988 308.028C298.81 308.089 298.621 308.125 298.431 308.125ZM302.929 234.194C302.16 261.968 301.521 277.453 300.041 304.337C318.4 296.787 328.71 292.206 347.637 283.501C331.562 265.575 321.726 254.742 302.929 234.194Z" fill="#303437" fill-opacity="0.4"/>
<path d="M298.431 308.125C298.242 308.125 298.041 308.089 297.851 308.004C272.556 297.171 259.228 291.028 233.033 278.091C232.56 277.85 232.24 277.369 232.205 276.84C232.169 276.311 232.43 275.782 232.868 275.482C257.713 258.986 272.497 249.043 300.704 229.241C301.166 228.916 301.757 228.88 302.255 229.156C302.74 229.421 303.048 229.95 303.024 230.515C302.184 261.487 301.533 277.141 299.899 306.694C299.875 307.187 299.615 307.62 299.201 307.884C298.976 308.04 298.704 308.125 298.431 308.125ZM236.679 276.54C260.625 288.346 273.823 294.43 297.07 304.397C298.562 277.177 299.201 261.667 299.994 233.388C274.119 251.544 259.548 261.354 236.679 276.54Z" fill="#303437" fill-opacity="0.4"/>
<path d="M144.873 259.683C144.672 259.683 144.482 259.647 144.293 259.563C143.926 259.407 143.642 259.106 143.488 258.733C129.888 223.65 123.247 205.783 112.121 169.75C111.967 169.233 112.085 168.668 112.452 168.271C112.819 167.874 113.364 167.706 113.884 167.838C124.751 170.495 134.646 172.936 144.009 175.244C181.378 184.466 210.899 191.752 259.406 202.02C260.021 202.152 260.495 202.669 260.566 203.294C260.648 203.932 260.317 204.545 259.761 204.833L255.57 206.95C208.803 230.623 185.319 242.502 145.441 259.551C145.264 259.647 145.062 259.683 144.873 259.683ZM115.731 171.385C126.207 205.158 132.811 222.952 145.69 256.196C184.633 239.508 208.081 227.641 254.245 204.268L254.624 204.076C208.531 194.253 179.626 187.123 143.311 178.154C134.693 176.038 125.615 173.802 115.731 171.385Z" fill="#303437" fill-opacity="0.4"/>
<path d="M144.873 259.683C144.589 259.683 144.317 259.599 144.068 259.443C132.93 252.085 123.318 245.712 114.453 239.833C91.3354 224.503 73.0832 212.396 46.2019 195.143C45.7166 194.83 45.4562 194.265 45.5272 193.688C45.5982 193.111 46.0007 192.63 46.5452 192.45C70.8579 184.526 84.4583 179.38 112.997 167.922C113.376 167.766 113.802 167.79 114.18 167.958C114.547 168.139 114.831 168.463 114.95 168.86C126.041 204.797 132.669 222.628 146.246 257.639C146.483 258.252 146.305 258.938 145.808 259.359C145.536 259.563 145.205 259.683 144.873 259.683ZM50.4513 194.313C75.9003 210.677 93.7147 222.496 116.062 237.32C123.887 242.502 132.291 248.081 141.796 254.369C129.509 222.592 122.975 204.797 112.594 171.301C86.1746 181.893 72.5978 187.039 50.4513 194.313Z" fill="#303437" fill-opacity="0.4"/>
<path d="M233.684 278.235C233.365 278.235 233.045 278.127 232.773 277.922C232.276 277.526 232.075 276.864 232.276 276.251C240.893 250.377 245.971 236.07 255.18 210.088L257.701 202.982C257.855 202.549 258.186 202.212 258.613 202.068C259.039 201.924 259.5 201.972 259.879 202.212L262.306 203.763C278.001 213.791 286.642 219.321 302.326 229.192C302.752 229.457 303.012 229.926 303.024 230.431C303.036 230.936 302.799 231.417 302.385 231.705C274.154 251.531 259.358 261.475 234.489 277.982C234.252 278.163 233.968 278.235 233.684 278.235ZM259.867 205.759L257.973 211.098C249.273 235.649 244.266 249.776 236.466 273.089C258.672 258.337 273.207 248.526 298.846 230.539C284.346 221.401 275.776 215.931 260.731 206.312L259.867 205.759Z" fill="#303437" fill-opacity="0.4"/>
<path d="M233.684 278.235C233.601 278.235 233.53 278.223 233.448 278.211C197.05 272.235 179.318 268.328 144.518 259.635C143.903 259.479 143.441 258.938 143.394 258.289C143.346 257.639 143.701 257.038 144.293 256.786C184.076 239.773 207.525 227.906 254.245 204.268L258.435 202.152C258.979 201.876 259.63 201.96 260.08 202.369C260.53 202.777 260.696 203.427 260.495 204.004L257.973 211.11C248.776 237.068 243.698 251.375 235.093 277.213C234.88 277.838 234.312 278.235 233.684 278.235ZM149.561 257.796C181.094 265.635 198.742 269.446 232.69 275.049C241.07 249.932 246.125 235.661 255.192 210.088L256.458 206.505L255.57 206.95C210.425 229.806 186.988 241.672 149.561 257.796Z" fill="#303437" fill-opacity="0.4"/>
<path d="M84.6122 275.59C84.0677 275.59 83.5705 275.289 83.3101 274.796C66.0876 241.865 58.2281 225.646 45.6338 194.433C45.3852 193.832 45.5627 193.135 46.048 192.714C46.5452 192.293 47.2435 192.245 47.788 192.594C74.6811 209.859 92.9452 221.979 116.074 237.308C124.94 243.187 134.551 249.56 145.69 256.918C146.175 257.23 146.424 257.808 146.353 258.373C146.282 258.95 145.879 259.431 145.335 259.599C119.483 267.967 107.126 271.454 84.8844 275.554C84.7897 275.59 84.695 275.59 84.6122 275.59ZM50.1317 197.656C61.566 225.67 69.4019 241.781 85.4052 272.404C105.954 268.568 118.122 265.214 141.44 257.699C131.403 251.075 122.608 245.231 114.441 239.821C92.4717 225.261 74.8942 213.598 50.1317 197.656Z" fill="#303437" fill-opacity="0.4"/>
<path d="M84.6122 275.59C84.4346 275.59 84.2453 275.554 84.0677 275.482C56.4525 264.42 42.9231 258.397 18.6815 246.975C17.9594 246.638 17.628 245.772 17.9357 245.027C24.7064 228.615 30.8141 217.662 45.7284 193.063C46.0243 192.582 46.5571 192.317 47.1134 192.353C47.6697 192.401 48.155 192.762 48.3681 193.279C60.915 224.371 68.7509 240.542 85.9261 273.378C86.222 273.931 86.1392 274.616 85.7249 275.085C85.429 275.422 85.0265 275.59 84.6122 275.59ZM21.2146 244.871C43.4913 255.355 56.8077 261.294 81.4163 271.201C65.9693 241.588 58.2281 225.489 46.7227 197.175C33.3946 219.213 27.4644 229.914 21.2146 244.871Z" fill="#303437" fill-opacity="0.4"/>
<path d="M19.297 247.119C19.2378 247.119 19.1668 247.119 19.1076 247.107C18.4447 247.023 17.9239 246.494 17.8292 245.832L9.27124 184.647C9.20022 184.154 9.3778 183.649 9.74474 183.312C10.1117 182.975 10.6206 182.843 11.1059 182.975L15.9353 184.238C27.0027 187.123 34.2113 189.011 47.3501 192.401C47.8117 192.522 48.1787 192.846 48.3562 193.291C48.5338 193.736 48.4864 194.241 48.2497 194.65C33.4182 219.093 27.3578 229.974 20.67 246.205C20.4333 246.77 19.8888 247.119 19.297 247.119ZM12.5263 186.45L20.0309 240.109C25.9019 226.595 32.0215 215.726 44.6868 194.818C32.7553 191.728 25.7244 189.901 15.2133 187.147L12.5263 186.45Z" fill="#303437" fill-opacity="0.4"/>
<path d="M46.995 195.359C46.8766 195.359 46.7464 195.347 46.628 195.311C33.4774 191.909 26.2688 190.033 15.2014 187.147L10.372 185.885C9.81569 185.741 9.38959 185.284 9.28306 184.707L0.0267081 134.654C-0.103496 133.969 0.251583 133.283 0.890768 132.995C1.51812 132.718 2.26383 132.911 2.66628 133.476C18.4565 155.214 28.2219 167.982 48.1195 192.906C48.5219 193.411 48.5574 194.121 48.2142 194.662C47.9656 195.107 47.4921 195.359 46.995 195.359ZM12.0292 183.216L15.9472 184.238C25.7362 186.799 32.5068 188.566 43.0415 191.283C26.5411 170.567 17.1071 158.268 4.14588 140.521L12.0292 183.216Z" fill="#303437" fill-opacity="0.4"/>
<path d="M350.099 285.521C349.744 285.521 349.389 285.389 349.116 285.136C348.702 284.764 348.525 284.174 348.678 283.621C355.331 258.481 358.527 245.664 364.291 219.273C364.398 218.78 364.741 218.372 365.214 218.191C365.676 218.011 366.197 218.083 366.611 218.372C388.994 234.783 399.541 242.31 417.923 254.585C418.373 254.886 418.634 255.415 418.586 255.968C418.539 256.521 418.196 257.002 417.699 257.218C391.61 268.725 378.235 274.496 350.655 285.401C350.466 285.485 350.288 285.521 350.099 285.521ZM366.682 222.159C361.427 246.121 358.266 258.902 352.289 281.541C377.134 271.682 390.403 265.983 413.994 255.595C397.434 244.486 386.947 237.007 366.682 222.159Z" fill="#303437" fill-opacity="0.4"/>
<path d="M407.01 302.714C406.903 302.714 406.809 302.702 406.702 302.678C385.869 298.169 374.175 294.418 349.602 285.425C349.022 285.208 348.631 284.655 348.619 284.03C348.607 283.405 348.986 282.84 349.566 282.611C377.098 271.73 390.45 265.959 416.503 254.477C417 254.261 417.58 254.333 418.006 254.682C418.432 255.03 418.645 255.583 418.539 256.124C415.225 274.628 413.153 283.982 408.43 301.596C408.265 302.269 407.673 302.714 407.01 302.714ZM354.324 283.958C375.761 291.737 387.195 295.332 405.956 299.444C410.206 283.501 412.183 274.676 415.142 258.361C391.847 268.628 378.602 274.315 354.324 283.958Z" fill="#303437" fill-opacity="0.4"/>
<path d="M336.392 309.231C325.277 309.231 313.014 308.834 298.36 308.125C297.662 308.089 297.094 307.572 296.975 306.874C296.857 306.177 297.236 305.492 297.875 305.227C318.222 296.883 328.615 292.266 349.495 282.647C349.85 282.491 350.241 282.467 350.608 282.599C375.039 291.533 386.663 295.26 407.33 299.732C408.028 299.889 408.513 300.514 408.501 301.235C408.49 301.957 407.969 302.57 407.27 302.69C380.235 307.283 361.202 309.231 336.392 309.231ZM305.249 305.431C344.855 307.175 366.611 306.177 399.162 300.983C382.839 297.159 371.263 293.336 350.182 285.641C331.835 294.082 321.584 298.662 305.249 305.431Z" fill="#303437" fill-opacity="0.4"/>
<path d="M365.723 221.113C365.274 221.113 364.847 220.908 364.563 220.536C364.185 220.043 364.137 219.37 364.457 218.828C392.084 172.058 404.879 148.805 423.972 110.656C424.292 110.019 425.014 109.694 425.688 109.886C426.363 110.079 426.813 110.74 426.766 111.449C423.972 147.327 420.989 167.465 412.857 205.17C412.739 205.687 412.372 206.12 411.863 206.276C394.238 212.059 384.934 215.089 366.173 221.029C366.019 221.089 365.877 221.113 365.723 221.113ZM423.203 118.808C406.323 152.256 393.658 175.16 368.99 217.001C385.076 211.903 394.238 208.909 410.147 203.691C417.521 169.413 420.599 149.707 423.203 118.808Z" fill="#303437" fill-opacity="0.4"/>
<path d="M417.095 257.363C416.811 257.363 416.527 257.279 416.278 257.11C397.848 244.799 387.278 237.248 364.859 220.812C364.409 220.476 364.173 219.911 364.267 219.357C364.362 218.804 364.753 218.335 365.285 218.167C384.047 212.24 393.338 209.198 410.952 203.427C411.378 203.282 411.839 203.355 412.206 203.595C412.573 203.836 412.822 204.244 412.869 204.689L418.551 255.692C418.61 256.269 418.35 256.834 417.852 257.146C417.628 257.291 417.355 257.363 417.095 257.363ZM368.99 220.139C388.698 234.567 399.103 241.997 415.26 252.83L410.135 206.841C394.499 211.975 385.325 214.969 368.99 220.139Z" fill="#303437" fill-opacity="0.4"/>
<path d="M154.165 301.356C154.011 301.356 153.857 301.332 153.703 301.283C124.774 291.761 110.937 286.495 84.0559 275.482C83.4404 275.229 83.0734 274.604 83.1326 273.931C83.1918 273.257 83.6889 272.728 84.3399 272.608C106.415 268.532 118.702 265.07 144.411 256.75C144.814 256.617 145.252 256.665 145.607 256.882C145.974 257.098 146.223 257.459 146.305 257.88C149.703 274.532 151.525 282.696 155.585 299.504C155.716 300.033 155.55 300.586 155.159 300.959C154.887 301.223 154.532 301.356 154.165 301.356ZM89.8795 274.628C112.938 284.03 126.621 289.188 152.094 297.604C148.578 283.008 146.779 274.88 143.76 260.128C120.927 267.486 108.676 270.973 89.8795 274.628Z" fill="#303437" fill-opacity="0.4"/>
<path d="M54.6416 284.812C54.2391 284.812 53.8485 284.643 53.5644 284.343C39.0289 268.652 31.6309 260.813 18.2435 246.662C17.7464 246.145 17.6872 245.34 18.1015 244.75C18.5158 244.161 19.2852 243.957 19.9243 244.257C44.1187 255.655 57.6007 261.667 85.1567 272.692C85.7249 272.921 86.1037 273.486 86.0918 274.099C86.08 274.712 85.7012 275.277 85.1331 275.494C71.2722 280.784 65.342 282.611 54.9375 284.788C54.831 284.812 54.7363 284.812 54.6416 284.812ZM25.8073 250.329C35.8803 260.994 43.0297 268.604 55.1387 281.674C63.9452 279.81 69.6032 278.127 80.4694 274.051C57.9322 264.973 44.8526 259.226 25.8073 250.329Z" fill="#303437" fill-opacity="0.4"/>
<path d="M154.165 301.356C154.082 301.356 154.011 301.344 153.928 301.332L54.4048 284.788C53.6946 284.667 53.1738 284.054 53.1619 283.333C53.1501 282.611 53.6472 281.974 54.3456 281.83C64.5726 279.702 70.4081 277.898 84.1032 272.668C84.4465 272.536 84.8371 272.536 85.1804 272.68C111.991 283.657 125.78 288.924 154.638 298.41C155.372 298.65 155.798 299.432 155.621 300.189C155.432 300.899 154.84 301.356 154.165 301.356ZM62.4064 283.08L135.842 295.284C117.885 289.092 104.995 284.054 84.5885 275.698C74.6811 279.473 68.8693 281.457 62.4064 283.08Z" fill="#303437" fill-opacity="0.4"/>
<path d="M154.165 301.356C153.502 301.356 152.898 300.899 152.733 300.213C148.661 283.369 146.838 275.169 143.429 258.481C143.323 257.976 143.488 257.447 143.855 257.098C144.222 256.738 144.743 256.593 145.24 256.725C179.957 265.406 197.641 269.302 233.945 275.253C234.619 275.361 235.128 275.927 235.188 276.612C235.247 277.297 234.832 277.934 234.181 278.163C199.985 289.801 183.674 294.779 154.508 301.332C154.378 301.344 154.272 301.356 154.165 301.356ZM146.803 260.212C149.809 274.868 151.62 283.008 155.254 298.073C181.78 292.074 197.748 287.3 227.529 277.237C195.783 271.923 178.217 268.039 146.803 260.212Z" fill="#303437" fill-opacity="0.4"/>
<path d="M425.286 112.844C425.002 112.844 424.718 112.76 424.469 112.592C407.412 101.206 394.558 92.5249 380.945 83.3272C367.747 74.418 354.088 65.1962 336.108 53.173C335.67 52.8725 335.409 52.3675 335.445 51.8264C335.48 51.2854 335.788 50.8045 336.273 50.576C368.73 34.3688 383.786 27.3833 408.951 17.9691C409.342 17.8249 409.78 17.8489 410.147 18.0533C410.514 18.2577 410.786 18.6064 410.892 19.0152C419.888 55.1088 423.155 74.0693 426.754 111.197C426.813 111.774 426.529 112.327 426.043 112.628C425.818 112.772 425.558 112.844 425.286 112.844ZM339.907 52.127C356.846 63.4529 369.925 72.2779 382.591 80.8384C395.505 89.5552 407.732 97.8151 423.51 108.359C420.101 73.9972 416.834 55.241 408.43 21.3837C384.899 30.2328 370.02 37.1101 339.907 52.127Z" fill="#303437" fill-opacity="0.4"/>
<path d="M409.472 20.8908C409.022 20.8908 408.584 20.6864 408.3 20.3137L403.364 13.8692C381.111 -15.2028 367.676 -32.7446 345.104 -63.2595C344.654 -63.8606 344.725 -64.7143 345.258 -65.2433C345.79 -65.7723 346.631 -65.8204 347.211 -65.3395C361.687 -53.665 372.222 -45.0804 383.384 -35.9909C390.865 -29.8951 398.819 -23.4146 408.738 -15.3711C409.046 -15.1186 409.247 -14.7579 409.283 -14.3492C410.596 -1.56852 410.916 5.05625 410.94 19.3999C410.94 20.0371 410.537 20.6143 409.945 20.8186C409.792 20.8667 409.626 20.8908 409.472 20.8908ZM354.455 -55.6608C373.027 -30.6766 385.846 -13.9163 405.696 12.0177L407.969 14.9874C407.886 3.87798 407.519 -2.53038 406.406 -13.4234C396.712 -21.2865 388.888 -27.6588 381.525 -33.6584C372.849 -40.7401 364.54 -47.5091 354.455 -55.6608Z" fill="#303437" fill-opacity="0.4"/>
<path d="M407.815 -12.702C407.483 -12.702 407.164 -12.8102 406.892 -13.0266C396.972 -21.0701 389.018 -27.5506 381.525 -33.6464C370.363 -42.7359 359.829 -51.3205 345.364 -62.9829C344.843 -63.4038 344.666 -64.1131 344.914 -64.7383C345.175 -65.3635 345.802 -65.7242 346.453 -65.6521L388.639 -60.5062C389.136 -60.446 389.574 -60.1334 389.799 -59.6645C398.121 -42.1588 402.109 -32.925 409.188 -14.7459C409.436 -14.1087 409.235 -13.3873 408.691 -12.9905C408.43 -12.8102 408.123 -12.702 407.815 -12.702ZM351.294 -62.0572C363.723 -52.0178 373.299 -44.2268 383.372 -36.0149C389.728 -30.845 396.416 -25.3864 404.37 -18.93C398.582 -33.5983 394.794 -42.255 387.479 -57.6446L351.294 -62.0572Z" fill="#303437" fill-opacity="0.4"/>
<path d="M407.815 -12.702C407.211 -12.702 406.667 -13.0747 406.442 -13.6518C399.316 -31.9631 395.528 -40.7401 387.136 -58.366C386.876 -58.9191 386.97 -59.5684 387.373 -60.0252C387.775 -60.4821 388.414 -60.6384 388.983 -60.434L415.39 -50.6592C416.077 -50.4067 416.479 -49.6733 416.337 -48.9519L409.283 -13.9163C409.152 -13.2671 408.62 -12.7741 407.957 -12.726C407.898 -12.714 407.862 -12.702 407.815 -12.702ZM391.385 -56.3461C397.967 -42.3993 401.802 -33.5622 407.365 -19.435L413.177 -48.2786L391.385 -56.3461Z" fill="#303437" fill-opacity="0.4"/>
<path d="M457.553 37.0139C457.387 37.0139 457.21 36.9898 457.044 36.9177C437.987 29.8841 428.565 26.722 409.046 20.8307C408.418 20.6383 407.992 20.0612 407.992 19.3879C407.969 5.17648 407.649 -1.38818 406.347 -14.0486C406.288 -14.6858 406.619 -15.287 407.187 -15.5635C407.756 -15.84 408.43 -15.7198 408.868 -15.2629C428.375 4.62342 438.602 14.8311 458.583 34.4289C459.08 34.9218 459.175 35.7033 458.808 36.3045C458.535 36.7494 458.05 37.0139 457.553 37.0139ZM410.94 18.2697C427.31 23.2233 436.921 26.3854 451.552 31.7117C435.631 16.0695 425.759 6.18643 409.697 -10.1531C410.644 -0.245972 410.904 6.30666 410.94 18.2697Z" fill="#303437" fill-opacity="0.4"/>
<path d="M464.17 3.10849C464.039 3.10849 463.909 3.09647 463.779 3.0604L407.424 -12.7501C406.678 -12.9665 406.217 -13.724 406.371 -14.5055L413.425 -49.541C413.532 -50.0941 413.946 -50.5389 414.479 -50.6832C415.012 -50.8395 415.592 -50.6712 415.959 -50.2504C425.677 -39.5738 434.258 -30.9532 443.349 -21.8276C450.297 -14.8541 457.482 -7.64023 465.235 0.583626C465.697 1.07658 465.779 1.81 465.436 2.39913C465.164 2.83196 464.679 3.10849 464.17 3.10849ZM409.543 -15.287L459.352 -1.30402C453.031 -7.90474 447.077 -13.8923 441.277 -19.7115C432.779 -28.248 424.718 -36.3275 415.757 -46.0904L409.543 -15.287Z" fill="#303437" fill-opacity="0.4"/>
<path d="M457.553 37.0139C457.174 37.0139 456.807 36.8696 456.523 36.5931C436.519 16.9833 426.292 6.75152 406.761 -13.1468C406.288 -13.6278 406.193 -14.3732 406.536 -14.9623C406.88 -15.5515 407.566 -15.828 408.206 -15.6597L464.56 0.150795C465.306 0.355186 465.768 1.12467 465.614 1.89416L458.997 35.7995C458.89 36.3406 458.5 36.7734 457.991 36.9417C457.849 36.9898 457.707 37.0139 457.553 37.0139ZM412.81 -11.2472C429.239 5.46504 439.253 15.4683 456.63 32.5052L462.453 2.67566L412.81 -11.2472Z" fill="#303437" fill-opacity="0.4"/>
<path d="M459.222 73.1435C458.831 73.1435 458.441 72.9872 458.157 72.6866C438.555 52.2713 428.565 41.8352 408.395 20.4219C407.933 19.9289 407.85 19.1835 408.205 18.5944C408.561 18.0172 409.247 17.7407 409.886 17.9331C429.251 23.7764 439.147 27.1068 458.05 34.0802C458.583 34.2726 458.95 34.7535 459.009 35.3186C460.559 48.9409 460.903 56.4073 460.69 71.6527C460.678 72.2538 460.311 72.8069 459.755 73.0233C459.589 73.1195 459.411 73.1435 459.222 73.1435ZM414.408 22.4538C431.252 40.3082 441.041 50.564 457.79 67.9976C457.896 55.4695 457.529 48.5201 456.192 36.6051C439.502 30.4492 430.198 27.2871 414.408 22.4538Z" fill="#303437" fill-opacity="0.4"/>
<path d="M459.222 73.1435C458.926 73.1435 458.63 73.0473 458.37 72.867C457.967 72.5784 457.73 72.1095 457.742 71.6166C457.955 56.3471 457.636 49.2895 456.085 35.6673C456.026 35.1022 456.274 34.5491 456.748 34.2365C457.221 33.9239 457.813 33.9119 458.299 34.2004C469.603 40.8853 476.941 45.2498 485.535 50.3596L498.366 57.9823C498.887 58.2949 499.171 58.8961 499.076 59.5092C498.982 60.1224 498.532 60.6034 497.94 60.7476C484.766 63.8256 477.261 66.2422 459.731 73.0473C459.577 73.1195 459.399 73.1435 459.222 73.1435ZM459.352 38.3124C460.548 49.4939 460.867 56.756 460.725 69.4524C475.391 63.7895 482.931 61.3127 493.679 58.6796L484.044 52.9566C476.113 48.2435 469.248 44.1676 459.352 38.3124Z" fill="#303437" fill-opacity="0.4"/>
<path d="M497.62 60.7837C497.36 60.7837 497.111 60.7116 496.875 60.5793L484.044 52.9566C475.45 47.8468 468.111 43.4823 456.807 36.8095C456.263 36.4848 455.979 35.8476 456.097 35.2224L462.714 1.31704C462.832 0.727905 463.27 0.271019 463.85 0.138763C464.418 0.00650787 465.022 0.234955 465.365 0.715881C467.839 4.16653 470.1 7.26852 472.195 10.118C484.008 26.2892 490.518 35.1863 499.017 58.7518C499.23 59.3529 499.053 60.0142 498.579 60.423C498.307 60.6635 497.964 60.7837 497.62 60.7837ZM459.21 34.7415C470.005 41.1258 477.178 45.382 485.535 50.3596L494.779 55.8542C487.145 35.6432 481.132 27.4073 469.816 11.9215C468.301 9.84148 466.679 7.64124 464.963 5.26064L459.21 34.7415Z" fill="#303437" fill-opacity="0.4"/>
<path d="M425.286 112.844C425.132 112.844 424.978 112.82 424.836 112.772C424.28 112.592 423.877 112.087 423.818 111.485C420.232 74.5382 416.988 55.6739 408.028 19.7486C407.862 19.0873 408.158 18.39 408.75 18.0653C409.342 17.7407 410.076 17.8489 410.537 18.3419C430.707 39.7552 440.685 50.1913 460.287 70.5946C460.82 71.1477 460.855 72.0374 460.346 72.6265C448.687 86.4292 441.893 94.3284 426.99 111.654L426.41 112.339C426.126 112.664 425.712 112.844 425.286 112.844ZM412.265 24.5218C419.983 56.0466 423.143 74.7306 426.422 107.734C439.81 92.1642 446.533 84.3492 457.221 71.7008C439.514 53.2692 429.63 42.9413 412.265 24.5218Z" fill="#303437" fill-opacity="0.4"/>
<path d="M490.861 126.623C490.767 126.623 490.66 126.611 490.566 126.587C479.96 124.362 471.461 122.571 463.081 120.803C451.824 118.423 440.757 116.09 425.002 112.808C424.481 112.7 424.067 112.327 423.901 111.81C423.735 111.293 423.842 110.74 424.185 110.343L424.777 109.658C439.668 92.3446 446.462 84.4333 458.109 70.6547C458.417 70.2941 458.867 70.1017 459.34 70.1377C459.814 70.1738 460.228 70.4263 460.488 70.8351C474.574 93.2824 481.132 104.175 492.164 124.386C492.448 124.903 492.4 125.529 492.057 126.009C491.761 126.406 491.323 126.623 490.861 126.623ZM428.079 110.391C442.532 113.409 453.019 115.621 463.672 117.87C471.213 119.457 478.824 121.068 487.997 122.992C478.184 105.125 471.71 94.3645 459.044 74.1655C448.439 86.7057 441.68 94.5688 428.079 110.391Z" fill="#303437" fill-opacity="0.4"/>
<path d="M490.861 126.623C490.838 126.623 490.814 126.623 490.79 126.623C490.282 126.599 489.82 126.31 489.571 125.853C478.563 105.702 472.029 94.8454 457.979 72.4582C457.612 71.8811 457.683 71.1237 458.145 70.6187C458.606 70.1137 459.34 70.0055 459.944 70.3301C480.942 82.1369 490.625 87.5473 509.208 97.6227C509.575 97.8271 509.848 98.1758 509.954 98.5966C510.061 99.0174 509.978 99.4503 509.741 99.7989L492.081 125.973C491.797 126.382 491.347 126.623 490.861 126.623ZM463.59 75.8127C475.13 94.2683 481.463 104.885 490.992 122.258L506.356 99.4743C490.222 90.7335 480.706 85.4312 463.59 75.8127Z" fill="#303437" fill-opacity="0.4"/>
<path d="M508.498 100.46C508.262 100.46 508.025 100.4 507.8 100.28C489.204 90.1924 479.51 84.77 458.5 72.9632C457.991 72.6746 457.695 72.1216 457.742 71.5444C457.778 70.9673 458.157 70.4503 458.689 70.2459C476.373 63.3807 483.949 60.94 497.289 57.826C498.023 57.6577 498.757 58.0665 499.005 58.7758C504.592 74.2617 506.841 82.4735 509.942 98.6808C510.049 99.2459 509.824 99.835 509.374 100.172C509.126 100.352 508.818 100.46 508.498 100.46ZM462.726 71.8931C480.812 82.0647 490.412 87.4151 506.451 96.1319C503.74 82.3894 501.586 74.7186 496.685 61.0482C485.026 63.8136 477.64 66.1701 462.726 71.8931Z" fill="#303437" fill-opacity="0.4"/>
<path d="M411.413 206.36C411.165 206.36 410.928 206.3 410.703 206.168C410.135 205.843 409.839 205.182 409.969 204.533C418.065 166.996 421.048 146.93 423.818 111.221C423.854 110.788 424.067 110.391 424.398 110.139C424.741 109.874 425.168 109.778 425.582 109.862C441.337 113.145 452.404 115.477 463.661 117.858C472.041 119.625 480.54 121.417 491.146 123.641C491.678 123.749 492.116 124.158 492.27 124.687C492.424 125.216 492.282 125.793 491.88 126.19C477.723 140.257 466.525 151.559 453.54 164.628C442.141 176.122 429.216 189.143 412.431 205.916C412.159 206.204 411.792 206.36 411.413 206.36ZM426.635 113.157C424.007 146.401 421.131 166.227 413.911 200.253C428.991 185.176 440.887 173.176 451.469 162.512C463.838 150.044 474.598 139.199 487.831 126.034C478.468 124.074 470.727 122.439 463.069 120.815C452.203 118.519 441.526 116.259 426.635 113.157Z" fill="#303437" fill-opacity="0.4"/>
<path d="M452.321 207.118C440.757 207.118 427.819 206.853 411.366 206.36C410.774 206.348 410.253 205.964 410.028 205.411C409.815 204.846 409.945 204.208 410.372 203.787C427.156 187.027 440.07 174.006 451.469 162.512C464.454 149.431 475.663 138.129 489.82 124.05C490.199 123.665 490.767 123.533 491.276 123.689C491.797 123.845 492.187 124.278 492.294 124.807L509.09 202.994C509.185 203.415 509.09 203.86 508.83 204.208C508.569 204.557 508.179 204.773 507.753 204.809C486.671 206.397 471.366 207.118 452.321 207.118ZM414.917 203.451C455.233 204.617 474.018 204.292 505.835 201.936L489.974 128.089C476.705 141.291 465.933 152.148 453.552 164.628C442.721 175.557 430.506 187.869 414.917 203.451Z" fill="#303437" fill-opacity="0.4"/>
<path d="M417.095 257.363C416.87 257.363 416.633 257.315 416.432 257.206C415.982 256.978 415.686 256.533 415.627 256.028L409.945 205.026C409.898 204.593 410.04 204.16 410.324 203.836C410.62 203.511 411.023 203.331 411.461 203.355C454.925 204.653 473.781 204.353 507.551 201.816C508.25 201.755 508.877 202.212 509.078 202.886C509.28 203.559 508.984 204.292 508.38 204.629C481.534 219.766 463.933 230.118 439.549 244.426C432.944 248.297 425.819 252.493 417.841 257.17C417.604 257.291 417.343 257.363 417.095 257.363ZM413.07 206.408L418.302 253.419C425.499 249.199 431.997 245.388 438.058 241.829C460.642 228.567 477.415 218.72 501.1 205.302C471.627 207.37 452.558 207.575 413.07 206.408Z" fill="#303437" fill-opacity="0.4"/>
<path d="M462.773 285.305C462.56 285.305 462.347 285.257 462.134 285.16C447.788 278.247 438.093 272.091 416.254 257.11C415.828 256.822 415.592 256.329 415.603 255.812C415.627 255.295 415.899 254.826 416.337 254.561C424.315 249.884 431.441 245.7 438.046 241.829C462.43 227.509 480.055 217.157 506.924 202.008C507.504 201.683 508.226 201.78 508.688 202.26C509.149 202.741 509.256 203.475 508.924 204.064L464.051 284.547C463.791 285.028 463.294 285.305 462.773 285.305ZM419.876 255.956C439.585 269.446 449.078 275.446 462.157 281.83L503.764 207.214C479.451 220.969 462.489 230.936 439.537 244.414C433.512 247.961 427.038 251.76 419.876 255.956Z" fill="#303437" fill-opacity="0.4"/>
<path d="M407.01 302.714C406.607 302.714 406.229 302.546 405.945 302.257C405.578 301.872 405.447 301.331 405.578 300.814C410.324 283.08 412.289 274.207 415.627 255.583C415.722 255.078 416.053 254.67 416.503 254.465C416.965 254.261 417.497 254.321 417.912 254.609C439.608 269.494 449.22 275.602 463.4 282.431C463.933 282.684 464.264 283.237 464.241 283.838C464.217 284.439 463.85 284.968 463.306 285.184C442.52 293.468 431.003 297.063 407.341 302.666C407.235 302.702 407.128 302.714 407.01 302.714ZM418.136 258.397C415.213 274.592 413.165 283.79 409.081 299.179C429.796 294.226 441.052 290.739 459.056 283.657C446.71 277.49 437.123 271.382 418.136 258.397Z" fill="#303437" fill-opacity="0.4"/>
<path d="M248.989 309.868C217.941 309.868 191.096 307.247 153.928 301.344C153.23 301.235 152.697 300.622 152.674 299.901C152.65 299.179 153.135 298.542 153.834 298.386C182.869 291.869 199.121 286.904 233.211 275.313C233.578 275.193 233.98 275.217 234.324 275.385C260.459 288.298 273.752 294.43 299 305.227C299.639 305.504 299.994 306.177 299.887 306.862C299.769 307.548 299.201 308.064 298.514 308.113C279.942 309.255 263.975 309.868 248.989 309.868ZM162.119 299.576C210.413 306.934 241.698 308.341 292.016 305.492C270.52 296.222 257.346 290.09 233.59 278.355C202.861 288.803 186.598 293.853 162.119 299.576Z" fill="#303437" fill-opacity="0.4"/>
<path d="M95.1469 330.848C94.7326 330.848 94.3184 330.668 94.0343 330.343C78.2914 312.164 70.1122 302.907 53.5408 284.331C53.1146 283.862 53.0317 283.164 53.3395 282.599C53.6472 282.034 54.251 281.734 54.8783 281.83L154.402 298.374C155.017 298.47 155.503 298.963 155.621 299.576C155.739 300.201 155.455 300.827 154.911 301.151C125.875 318.477 113.233 325.186 95.5849 330.788C95.4428 330.824 95.289 330.848 95.1469 330.848ZM58.5714 285.497C73.0951 301.788 81.1914 310.974 95.6204 327.626C111.801 322.408 124.029 316.036 149.88 300.67L58.5714 285.497Z" fill="#303437" fill-opacity="0.4"/>
<path d="M190.042 350.326C190.019 350.326 189.995 350.326 189.959 350.326C147.738 348.078 128.124 344.05 94.6024 330.752C94.0224 330.524 93.6436 329.935 93.6673 329.297C93.6909 328.66 94.1052 328.107 94.7089 327.915C112.073 322.408 124.597 315.759 153.419 298.566C154.07 298.181 154.899 298.35 155.349 298.963C170.121 318.933 177.495 328.961 191.238 347.933C191.581 348.402 191.616 349.027 191.344 349.532C191.084 350.025 190.575 350.326 190.042 350.326ZM99.562 329.478C129.616 341.104 148.886 344.976 186.988 347.152C174.654 330.139 167.339 320.196 153.774 301.836C127.733 317.346 115.044 324.176 99.562 329.478Z" fill="#303437" fill-opacity="0.4"/>
<path d="M190.042 350.326C189.581 350.326 189.131 350.11 188.847 349.713C175.116 330.752 167.742 320.725 152.981 300.766C152.614 300.273 152.591 299.612 152.898 299.095C153.206 298.566 153.798 298.29 154.39 298.386C209.253 307.115 241.544 308.63 298.337 305.131C299.059 305.095 299.686 305.564 299.864 306.261C300.041 306.958 299.698 307.692 299.047 307.992C250.954 330.524 227.612 339.613 190.433 350.278C190.303 350.302 190.172 350.326 190.042 350.326ZM157.527 301.909C170.665 319.679 177.957 329.598 190.622 347.092C225.186 337.137 247.888 328.444 290.69 308.581C239.603 311.407 207.939 309.772 157.527 301.909Z" fill="#303437" fill-opacity="0.4"/>
<path d="M272.118 359.596C243.272 359.596 222.842 357.131 189.746 350.302C189.072 350.158 188.586 349.581 188.563 348.883C188.539 348.186 188.977 347.573 189.64 347.38C226.63 336.764 249.889 327.71 297.816 305.263C298.313 305.035 298.905 305.095 299.343 305.431C299.781 305.768 299.994 306.333 299.899 306.886C296.336 327.602 294.49 337.906 290.844 358.117C290.714 358.814 290.122 359.331 289.424 359.343C283.257 359.5 277.539 359.596 272.118 359.596ZM196.304 348.559C231.281 355.532 252.232 357.263 288.133 356.362C291.471 337.858 293.294 327.638 296.478 309.171C252.647 329.646 229.541 338.772 196.304 348.559Z" fill="#303437" fill-opacity="0.4"/>
<path d="M289.376 359.343C289.033 359.343 288.702 359.223 288.429 358.995C288.015 358.646 287.826 358.105 287.92 357.564C291.566 337.353 293.401 327.061 296.964 306.357C297.094 305.612 297.733 305.071 298.491 305.119C345.625 307.439 367.889 306.333 406.761 299.732C407.472 299.612 408.17 300.033 408.407 300.73C408.643 301.428 408.347 302.185 407.708 302.546C359.84 328.865 335.788 341.357 289.897 359.259C289.743 359.307 289.566 359.343 289.376 359.343ZM299.662 308.185C296.395 327.145 294.573 337.377 291.306 355.472C332.959 339.12 356.668 327.073 398.606 304.109C364.93 309.423 342.606 310.253 299.662 308.185Z" fill="#303437" fill-opacity="0.4"/>
<path d="M409.614 347.176C409.484 347.176 409.365 347.164 409.235 347.128C408.608 346.972 408.182 346.37 408.134 345.721L405.53 301.307C405.483 300.574 405.968 299.925 406.667 299.757C430.163 294.202 441.585 290.631 462.217 282.407C462.856 282.155 463.578 282.371 463.968 282.948C464.359 283.513 464.323 284.283 463.874 284.8C449.516 301.416 411.993 344.892 410.821 346.491C410.561 346.935 410.111 347.176 409.614 347.176ZM408.561 302.39L410.869 341.814C418.752 332.508 443.195 304.181 457.671 287.421C440.591 294.045 429.228 297.472 408.561 302.39Z" fill="#303437" fill-opacity="0.4"/>
<path d="M329.503 385.386C329.018 385.386 328.544 385.133 328.26 384.7C327.893 384.123 327.952 383.366 328.414 382.861C358.432 349.953 375.098 332.171 405.956 300.153C406.371 299.732 406.986 299.588 407.531 299.793C408.075 299.997 408.454 300.514 408.49 301.115L411.094 345.529C411.129 346.082 410.857 346.611 410.383 346.899C379.016 366.209 362.48 374.108 329.976 385.301C329.822 385.362 329.657 385.386 329.503 385.386ZM405.732 304.686C375.536 336.054 359.722 353.007 334.581 380.528C363.025 370.477 379.253 362.53 408.075 344.807L405.732 304.686Z" fill="#303437" fill-opacity="0.4"/>
<path d="M329.503 385.386C329.242 385.386 328.982 385.313 328.757 385.181C314.754 376.813 306.445 371.318 288.56 359.091C288.098 358.778 287.849 358.237 287.92 357.672C287.98 357.119 288.346 356.638 288.855 356.434C334.581 338.603 358.574 326.135 406.312 299.889C406.951 299.54 407.756 299.708 408.194 300.31C408.632 300.899 408.584 301.74 408.075 302.269C374.731 336.872 358.787 354.005 330.592 384.917C330.296 385.229 329.905 385.386 329.503 385.386ZM292.56 358.201C308.374 368.998 316.518 374.348 329.219 381.971C356.455 352.117 372.731 334.696 399.138 307.235C357.698 329.923 333.965 341.946 292.56 358.201Z" fill="#303437" fill-opacity="0.4"/>
<path d="M205.371 397C205.158 397 204.933 396.952 204.732 396.856C160.794 375.635 137.345 360.365 94.3065 330.596C93.6792 330.163 93.4779 329.334 93.833 328.648C94.1881 327.975 94.9812 327.674 95.6796 327.951C128.846 341.104 148.27 345.084 190.113 347.32C190.729 347.356 191.25 347.765 191.439 348.354C197.63 367.495 200.612 376.488 206.767 395.016C206.957 395.593 206.791 396.218 206.353 396.615C206.081 396.868 205.726 397 205.371 397ZM106.25 335.189C141.914 359.68 164.652 373.988 202.85 392.612C197.641 376.969 194.528 367.531 188.941 350.266C152.496 348.282 132.965 344.904 106.25 335.189Z" fill="#303437" fill-opacity="0.4"/>
<path d="M95.1469 330.848C94.8865 330.848 94.6261 330.776 94.3894 330.632L59.9562 309.664C59.613 309.459 59.3762 309.123 59.2815 308.738L53.1974 283.669C53.0317 282.996 53.3395 282.311 53.9431 281.986C54.5468 281.662 55.2807 281.794 55.7305 282.299C72.3138 300.899 80.493 310.157 96.2477 328.348C96.733 328.901 96.7449 329.73 96.2714 330.307C95.9873 330.668 95.5731 330.848 95.1469 330.848ZM62.004 307.415L87.7371 323.093C76.9419 310.674 69.3428 302.065 57.4705 288.743L62.004 307.415Z" fill="#303437" fill-opacity="0.4"/>
<path d="M205.371 397C204.672 397 204.069 396.507 203.927 395.798C203.773 395.052 204.199 394.307 204.921 394.066C233.483 384.628 251.487 376.561 288.69 356.518C289.175 356.253 289.755 356.289 290.205 356.602C308.031 368.806 316.317 374.264 330.249 382.596C330.805 382.933 331.077 383.582 330.947 384.219C330.805 384.857 330.284 385.325 329.645 385.386L205.513 397C205.465 397 205.418 397 205.371 397ZM289.293 359.596C257.831 376.525 240.076 384.881 217.799 392.828L324.827 382.813C313.227 375.791 304.953 370.309 289.293 359.596Z" fill="#303437" fill-opacity="0.4"/>
<path d="M329.503 385.386C328.887 385.386 328.307 384.989 328.106 384.364C327.846 383.582 328.26 382.728 329.029 382.452C361.285 371.343 377.702 363.503 408.845 344.326C409.425 343.966 410.17 344.062 410.656 344.543C411.141 345.024 411.236 345.781 410.892 346.382C405.672 355.328 403.045 359.644 397.469 368.349C397.268 368.673 396.937 368.902 396.57 368.998C378.614 373.35 331.681 384.76 329.964 385.301C329.822 385.362 329.657 385.386 329.503 385.386ZM405.329 350.001C385.834 361.832 371.949 369.13 355.07 376.007C371.476 372.004 390.427 367.399 395.303 366.221C399.482 359.692 401.991 355.64 405.329 350.001Z" fill="#303437" fill-opacity="0.4"/>
<path d="M205.371 397C204.755 397 204.175 396.603 203.974 395.978C197.973 377.931 194.812 368.409 188.634 349.292C188.468 348.787 188.586 348.222 188.93 347.825C189.285 347.428 189.817 347.248 190.326 347.356C229.399 355.424 250.67 357.36 289.341 356.35C290.015 356.314 290.631 356.794 290.808 357.468C290.986 358.141 290.678 358.85 290.075 359.175C252.694 379.314 234.584 387.43 205.832 396.928C205.679 396.976 205.525 397 205.371 397ZM192.232 350.807C197.736 367.832 200.719 376.813 206.306 393.609C232.631 384.845 250.197 377.078 283.15 359.488C248.883 360.113 227.872 358.069 192.232 350.807Z" fill="#303437" fill-opacity="0.4"/>
<path d="M507.646 204.809C506.96 204.809 506.356 204.328 506.202 203.631L489.406 125.444C489.323 125.036 489.406 124.615 489.631 124.278L507.279 98.1157C507.646 97.5746 508.321 97.3342 508.948 97.5266C509.564 97.7189 509.99 98.3081 509.99 98.9693L509.137 203.331C509.126 204.1 508.557 204.737 507.812 204.809C507.753 204.809 507.705 204.809 507.646 204.809ZM492.436 125.432L506.273 189.877L506.971 103.863L492.436 125.432Z" fill="#303437" fill-opacity="0.4"/>
<path d="M10.7154 79.5519C10.4194 79.5519 10.1353 79.4677 9.87492 79.2874C9.28308 78.8666 9.07004 78.073 9.3778 77.4118L44.746 0.896233C45.042 0.271027 45.7166 -0.077652 46.3794 0.0666275C47.0541 0.210907 47.5394 0.800041 47.5631 1.48537L48.7705 39.5387C48.7823 39.9475 48.6285 40.3443 48.3562 40.6329L11.7925 79.095C11.4965 79.3956 11.106 79.5519 10.7154 79.5519ZM44.7934 7.84563L15.8406 70.4984L45.7758 39.0097L44.7934 7.84563Z" fill="#303437" fill-opacity="0.4"/>
<path d="M414.87 -47.7496C414.704 -47.7496 414.526 -47.7736 414.361 -47.8458L387.965 -57.6206C387.811 -57.6807 387.669 -57.7649 387.539 -57.8611L342.796 -94.7362C342.18 -95.2411 342.073 -96.1429 342.535 -96.7801C342.997 -97.4173 343.873 -97.5977 344.536 -97.1649L415.686 -50.5149C416.314 -50.0941 416.55 -49.2645 416.207 -48.5792C415.947 -48.0622 415.426 -47.7496 414.87 -47.7496ZM389.207 -60.3499L402.997 -55.252L365.83 -79.623L389.207 -60.3499Z" fill="#303437" fill-opacity="0.4"/>
<path d="M409.614 347.128C409.176 347.128 408.738 346.923 408.454 346.551C408.016 345.986 408.04 345.18 408.501 344.639L461.66 282.816C462.157 282.227 463.021 282.13 463.637 282.587C464.252 283.044 464.43 283.898 464.051 284.571L436.176 333.121C436.034 333.361 435.832 333.566 435.572 333.698L410.301 346.972C410.076 347.068 409.851 347.128 409.614 347.128ZM453.67 296.679L415.852 340.659L433.832 331.221L453.67 296.679Z" fill="#303437" fill-opacity="0.4"/>
<path d="M396.227 369.046C395.883 369.046 395.552 368.926 395.28 368.697C394.711 368.216 394.581 367.387 394.972 366.75L408.359 344.831C408.501 344.603 408.703 344.411 408.939 344.29L434.211 331.017C434.874 330.668 435.69 330.872 436.105 331.498C436.531 332.123 436.424 332.964 435.88 333.469L397.221 368.661C396.937 368.914 396.582 369.046 396.227 369.046ZM410.656 346.767L402.926 359.428L425.262 339.096L410.656 346.767Z" fill="#303437" fill-opacity="0.4"/>
</svg>
