<svg width="510" height="510" viewBox="0 0 510 510" fill="none" xmlns="http://www.w3.org/2000/svg">
<path d="M65.9929 87.6977C65.5076 87.6977 65.0342 87.4573 64.7501 87.0244C64.3476 86.3992 64.4542 85.5576 65.0105 85.0646L94.1289 59.299C94.342 59.1066 94.6024 58.9864 94.8865 58.9503L129.639 53.8645C130.361 53.7563 131.06 54.2011 131.273 54.9225C131.486 55.6319 131.154 56.4014 130.491 56.714L66.6203 87.5534C66.4191 87.6496 66.206 87.6977 65.9929 87.6977ZM95.7506 61.8599L75.0954 80.1351L120.407 58.2529L95.7506 61.8599Z" fill="#303437" fill-opacity="0.4"/>
<path d="M95.1114 61.9441C94.4841 61.9441 93.9159 61.5473 93.7147 60.9341C93.478 60.2488 93.762 59.5034 94.3775 59.1427L167.304 16.7489C167.955 16.3762 168.772 16.5445 169.221 17.1457C169.671 17.7468 169.6 18.6005 169.067 19.1295C154.769 33.2447 146.838 41.0357 130.882 56.4495C130.657 56.6659 130.373 56.7981 130.077 56.8462L95.3245 61.932C95.2534 61.932 95.1824 61.9441 95.1114 61.9441ZM158.592 25.2733L102.58 57.8321L129.189 53.9366C141.523 42.0216 149.052 34.6635 158.592 25.2733Z" fill="#303437" fill-opacity="0.4"/>
<path d="M95.7979 107.512C95.502 107.512 95.218 107.428 94.9694 107.247C91.9629 105.167 88.9563 103.039 86.0208 100.959C77.889 95.2002 70.2187 89.7537 65.3775 87.5534C64.8567 87.313 64.5134 86.784 64.5016 86.1948C64.4898 85.6057 64.8211 85.0767 65.342 84.8242L129.213 53.9847C129.817 53.6962 130.539 53.8525 130.977 54.3695C131.415 54.8864 131.45 55.6319 131.072 56.197L125.757 64.0601C115.494 79.2454 108.712 89.2728 97.0171 106.851C96.7922 107.175 96.4608 107.404 96.0702 107.488C95.9874 107.512 95.8926 107.512 95.7979 107.512ZM69.3546 86.2429C74.2906 88.9962 80.8481 93.6372 87.7135 98.5066C90.2347 100.298 92.8151 102.126 95.4074 103.917C106.617 87.0966 113.316 77.1895 123.33 62.3649L125.532 59.1186L69.3546 86.2429Z" fill="#303437" fill-opacity="0.4"/>
<path d="M95.7979 107.512C95.4783 107.512 95.1706 107.416 94.8984 107.199C94.271 106.718 94.1289 105.817 94.5669 105.167C106.273 87.5775 113.056 77.5501 123.318 62.3649L128.633 54.5137C128.692 54.4296 128.763 54.3454 128.834 54.2733C144.778 38.8716 152.709 31.0805 166.996 16.9774C167.552 16.4243 168.44 16.4123 169.02 16.9413C169.6 17.4703 169.671 18.372 169.174 18.9972C142.541 52.7463 127.769 70.5647 96.9106 107.007C96.6383 107.344 96.224 107.512 95.7979 107.512ZM131 56.3413L125.78 64.0722C120.62 71.7189 116.335 78.0551 111.86 84.716C126.834 66.9096 138.209 53.095 151.703 36.2385C145.607 42.1779 139.428 48.2016 131 56.3413Z" fill="#303437" fill-opacity="0.4"/>
<path d="M95.8097 107.512C95.4191 107.512 95.0285 107.356 94.7326 107.043C94.2118 106.478 94.1881 105.612 94.6853 105.023C125.52 68.6169 140.269 50.8106 166.878 17.0976C167.256 16.6287 167.872 16.4243 168.44 16.5926C169.02 16.7609 169.434 17.2659 169.494 17.8671C170.594 27.9665 171.518 33.413 174.216 45.5685C174.347 46.1456 174.134 46.7468 173.66 47.0954C152.567 63.2907 138.659 74.2197 121.058 88.0584C113.778 93.7814 105.906 99.9734 96.6975 107.187C96.4371 107.416 96.1175 107.512 95.8097 107.512ZM166.972 21.7986C144.506 50.2094 130.326 67.4627 106.368 95.8374C110.937 92.2545 115.198 88.9 119.27 85.7019C136.67 72.0315 150.448 61.1866 171.139 45.304C168.89 35.1324 167.907 29.6738 166.972 21.7986Z" fill="#303437" fill-opacity="0.4"/>
<path d="M172.784 47.4201C172.618 47.4201 172.441 47.396 172.275 47.3239C171.802 47.1435 171.447 46.7468 171.34 46.2418C168.618 33.9541 167.683 28.4475 166.558 18.2157C166.487 17.5304 166.878 16.8812 167.517 16.6407C191.427 7.64736 204.211 4.6055 229.648 1.86421C230.334 1.79207 230.95 2.18884 231.187 2.83809C231.423 3.48734 231.199 4.20873 230.642 4.59347C209.537 19.4541 198.257 28.0627 173.672 47.1074C173.423 47.3118 173.104 47.4201 172.784 47.4201ZM169.636 19.0574C170.606 27.7982 171.506 33.1485 173.731 43.3081C195.215 26.668 206.46 18.0955 224.179 5.51926C203.086 8.0321 190.717 11.1702 169.636 19.0574Z" fill="#303437" fill-opacity="0.4"/>
<path d="M95.8097 107.512C95.2889 107.512 94.78 107.223 94.5196 106.742C94.1645 106.093 94.3302 105.276 94.9102 104.819C104.119 97.6048 111.991 91.4249 119.27 85.7019C136.883 71.8632 150.792 60.9221 171.896 44.7148C172.323 44.3902 172.879 44.3181 173.364 44.5345C173.85 44.7509 174.193 45.2078 174.252 45.7368C175.803 59.0344 176.927 66.0921 179.969 81.6501C180.123 82.4556 179.614 83.2491 178.809 83.4175C145.264 90.3669 128.302 95.2964 96.3187 107.428C96.153 107.488 95.9754 107.512 95.8097 107.512ZM171.624 48.6945C151.667 64.0361 138.103 74.7007 121.081 88.0825C115.897 92.1583 110.405 96.4746 104.356 101.224C130.551 91.5812 147.288 86.9162 176.797 80.7724C174.134 67.1381 172.985 60.0684 171.624 48.6945Z" fill="#303437" fill-opacity="0.4"/>
<path d="M178.525 83.4415C178.43 83.4415 178.324 83.4295 178.229 83.4054C177.649 83.2852 177.187 82.8163 177.069 82.2272C174.015 66.573 172.879 59.4793 171.316 46.0855C171.257 45.5565 171.47 45.0395 171.885 44.7148C196.505 25.634 207.809 17.0254 228.961 2.1167C229.541 1.70791 230.323 1.76802 230.832 2.273C231.341 2.76595 231.435 3.55948 231.057 4.16064C212.686 33.4972 201.855 49.8247 179.744 82.7802C179.46 83.201 178.998 83.4415 178.525 83.4415ZM174.347 46.5905C175.732 58.3251 176.809 65.2504 179.283 78.1273C198.458 49.5482 209.064 33.5333 224.57 8.89777C207.324 21.1614 196.032 29.7941 174.347 46.5905Z" fill="#303437" fill-opacity="0.4"/>
<path d="M178.525 83.4415C178.111 83.4415 177.696 83.2612 177.412 82.9245C176.963 82.4075 176.927 81.6501 177.306 81.085C199.393 48.1655 210.212 31.838 228.571 2.54953C229.009 1.85219 229.908 1.64779 230.607 2.08063C248.042 13.154 259.003 20.44 281.73 36.9238C282.191 37.2484 282.416 37.8135 282.333 38.3786C282.251 38.9437 281.86 39.4006 281.327 39.5809C242.716 52.0971 221.007 61.908 179.2 83.2732C178.975 83.3934 178.75 83.4415 178.525 83.4415ZM230.264 5.42307C213.266 32.5353 202.636 48.6344 182.952 77.995C219.042 59.6476 241.591 49.452 277.599 37.6332C257.062 22.7966 246.326 15.6428 230.264 5.42307Z" fill="#303437" fill-opacity="0.4"/>
<path d="M280.854 39.6531C280.546 39.6531 280.25 39.5569 279.99 39.3765C257.322 22.9409 246.397 15.6788 229.009 4.64157C228.476 4.30492 228.204 3.65566 228.346 3.03046C228.488 2.40525 229.009 1.93635 229.636 1.87623C256.742 -1.0454 271.503 -0.648635 298.325 3.7278C298.786 3.79994 299.189 4.10052 299.402 4.52133C299.615 4.94214 299.627 5.44712 299.414 5.87995C293.578 17.9152 290.193 24.3957 282.132 38.9076C281.931 39.2804 281.576 39.5449 281.162 39.6411C281.079 39.6411 280.96 39.6531 280.854 39.6531ZM234.241 4.41312C249.321 14.0437 260.139 21.3057 280.368 35.962C287.423 23.2414 290.785 16.809 295.875 6.36088C272.035 2.57358 257.748 2.09265 234.241 4.41312Z" fill="#303437" fill-opacity="0.4"/>
<path d="M47.279 154.09C47.0068 154.09 46.7464 154.018 46.5097 153.861C45.9415 153.513 45.6811 152.815 45.8587 152.166L64.5726 85.774C64.691 85.3532 64.9869 85.0045 65.3656 84.8242C65.7563 84.6438 66.206 84.6318 66.5966 84.8121C71.6746 87.1326 79.4751 92.6513 87.7134 98.4945C90.6371 100.563 93.6318 102.691 96.6265 104.759C96.9934 105.011 97.2302 105.42 97.2657 105.877C97.3012 106.334 97.1355 106.779 96.8159 107.091C77.451 126.052 67.4726 135.634 48.2734 153.693C48.0011 153.957 47.646 154.09 47.279 154.09ZM66.9281 88.3349L50.1554 147.838C66.4783 132.46 76.2909 123.034 93.4542 106.225C90.9567 104.482 88.4592 102.715 86.0089 100.983C78.7175 95.7893 71.7693 90.8718 66.9281 88.3349Z" fill="#303437" fill-opacity="0.4"/>
<path d="M47.279 154.09C47.2199 154.09 47.1607 154.09 47.1015 154.078C46.3795 153.982 45.8231 153.368 45.7994 152.635L44.5921 114.582C44.5803 114.257 44.675 113.932 44.8643 113.656L64.7738 85.3171C65.1881 84.716 65.9693 84.5116 66.6203 84.8362C67.2713 85.1488 67.6027 85.9063 67.4015 86.6036L48.6876 152.996C48.5219 153.657 47.9301 154.09 47.279 154.09ZM47.5749 114.99L48.4627 142.956L62.217 94.1782L47.5749 114.99Z" fill="#303437" fill-opacity="0.4"/>
<path d="M83.3457 182.921C83.0142 182.921 82.6828 182.801 82.4105 182.585C65.4958 168.506 58.0979 162.59 46.4031 153.801C46.048 153.537 45.835 153.128 45.8113 152.671C45.7876 152.214 45.9652 151.793 46.2848 151.481C65.4722 133.434 75.4387 123.863 94.78 104.927C95.2534 104.458 95.9873 104.374 96.5555 104.711C97.1236 105.059 97.4077 105.745 97.2302 106.394C89.8914 134.3 87.3465 149.749 84.8253 181.527C84.7779 182.08 84.4346 182.573 83.9257 182.789C83.7363 182.873 83.5469 182.921 83.3457 182.921ZM49.5991 152.467C60.0273 160.33 67.3306 166.173 82.1028 178.437C84.411 150.302 86.8612 134.961 93.0281 110.818C76.4922 126.977 66.6795 136.38 49.5991 152.467Z" fill="#303437" fill-opacity="0.4"/>
<path d="M83.3457 182.921C83.1326 182.921 82.9314 182.873 82.7302 182.789C82.162 182.525 81.8187 181.935 81.8661 181.298C84.411 149.305 86.9796 133.746 94.3657 105.624C94.4841 105.155 94.8274 104.771 95.2772 104.602C127.438 92.4108 144.494 87.4452 178.217 80.4718C178.845 80.3395 179.496 80.6401 179.803 81.2172C180.111 81.7943 180.028 82.5037 179.578 82.9846C141.594 123.322 120.407 145.349 84.3873 182.476C84.1151 182.765 83.7363 182.921 83.3457 182.921ZM97.0408 107.151C90.1755 133.362 87.5595 148.631 85.1567 177.403C118.418 143.113 139.215 121.471 174.169 84.3793C143.879 90.7877 127.071 95.7893 97.0408 107.151Z" fill="#303437" fill-opacity="0.4"/>
<path d="M10.7154 192.552C10.1827 192.552 9.67369 192.251 9.41328 191.758C9.10553 191.181 9.21208 190.472 9.66188 190.003C23.866 175.154 31.3468 167.327 46.2256 151.553C46.7465 151.012 47.575 150.94 48.1787 151.385C59.9207 160.198 67.3424 166.137 84.3045 180.252C84.7661 180.637 84.9554 181.274 84.7779 181.863C84.6003 182.452 84.0914 182.861 83.4877 182.921C52.3452 185.603 37.4428 187.586 10.9994 192.54C10.8929 192.54 10.8101 192.552 10.7154 192.552ZM47.4448 154.583C34.306 168.518 26.9317 176.248 15.0003 188.716C37.8097 184.532 52.5228 182.609 79.5935 180.228C65.1053 168.205 57.8966 162.458 47.4448 154.583Z" fill="#303437" fill-opacity="0.4"/>
<path d="M178.525 83.4415C177.886 83.4415 177.318 83.0207 177.116 82.3955C176.903 81.6981 177.211 80.9287 177.862 80.604C217.953 60.1165 241.059 49.488 280.416 36.7314C280.806 36.6112 281.221 36.6473 281.588 36.8517C281.943 37.0561 282.203 37.3927 282.298 37.8015C285.884 52.1331 287.885 59.9963 291.507 74.2318L292.312 77.3698C292.43 77.8387 292.324 78.3317 292.016 78.7044C291.708 79.0771 291.258 79.2815 290.773 79.2454C246.16 76.1074 222.084 77.0091 178.738 83.4415C178.667 83.4415 178.596 83.4415 178.525 83.4415ZM279.812 40.0739C244.669 51.532 223.446 60.862 187.284 79.1613C224.795 73.9672 248.504 73.318 288.926 76.0833L288.642 74.9652C285.151 61.2467 283.162 53.4437 279.812 40.0739Z" fill="#303437" fill-opacity="0.4"/>
<path d="M83.3457 182.921C82.9314 182.921 82.5289 182.753 82.233 182.416C81.724 181.827 81.7477 180.925 82.2922 180.372C118.3 143.257 139.476 121.242 177.448 80.9166C177.921 80.4117 178.667 80.3035 179.259 80.6642C179.851 81.0128 180.123 81.7342 179.922 82.3955C176.158 94.9717 174.264 101.452 170.429 115.038C170.346 115.351 170.156 115.616 169.908 115.82C157.053 125.835 146.53 134.083 136.599 141.85C119.779 155.016 105.267 166.389 84.2334 182.633C83.973 182.813 83.6653 182.921 83.3457 182.921ZM175.305 87.5294C145.205 119.463 125.567 139.962 99.0057 167.399C111.908 157.372 122.762 148.872 134.8 139.458C144.625 131.763 155.053 123.599 167.73 113.716C170.831 102.739 172.666 96.4145 175.305 87.5294Z" fill="#303437" fill-opacity="0.4"/>
<path d="M169.02 116.108C168.653 116.108 168.298 115.976 168.014 115.712C167.6 115.327 167.434 114.738 167.6 114.197C171.435 100.587 173.34 94.1061 177.105 81.5058C177.27 80.9527 177.744 80.5439 178.312 80.4598C221.907 73.9913 246.113 73.0895 290.974 76.2396C291.708 76.2877 292.3 76.8889 292.347 77.6463C292.395 78.4038 291.886 79.0651 291.164 79.2214C243.189 89.1164 216.012 98.1699 169.541 116.024C169.375 116.072 169.198 116.108 169.02 116.108ZM179.661 83.2852C176.347 94.3706 174.477 100.755 171.257 112.141C212.71 96.2582 239.011 87.4332 279.883 78.524C242.254 76.2997 218.794 77.5261 179.661 83.2852Z" fill="#303437" fill-opacity="0.4"/>
<path d="M280.854 39.6531C280.439 39.6531 280.037 39.4727 279.753 39.1601C279.327 38.6792 279.256 37.9819 279.564 37.4168C287.589 22.9529 290.962 16.5084 296.774 4.53336C297.058 3.94422 297.698 3.60757 298.337 3.71578C317.015 6.75765 326.449 9.2224 344.228 15.6909C344.855 15.9193 345.258 16.5565 345.198 17.2298C345.139 17.9031 344.642 18.4682 343.979 18.5885C322.803 22.3758 309.795 27.1369 281.446 39.5449C281.256 39.617 281.055 39.6531 280.854 39.6531ZM298.952 6.85383C293.945 17.1577 290.666 23.4819 284.298 35.0241C307.782 24.8405 320.566 20.1635 338.037 16.6527C323.833 11.6751 315.015 9.51095 298.952 6.85383Z" fill="#303437" fill-opacity="0.4"/>
<path d="M388.474 55.4756C388.414 55.4756 388.355 55.4756 388.296 55.4636L346.11 50.3176C345.388 50.2335 344.843 49.6203 344.808 48.8869C344.263 35.3848 343.766 29.1809 342.263 17.302C342.192 16.7008 342.476 16.0997 343.009 15.7991C343.529 15.4985 344.18 15.5466 344.654 15.9313C362.421 30.3111 372.009 38.3065 389.421 52.8185C389.93 53.2393 390.095 53.9607 389.847 54.5738C389.598 55.1149 389.054 55.4756 388.474 55.4756ZM347.708 47.4802L383.609 51.8686C369.487 40.0979 360.314 32.4752 345.648 20.5843C346.773 29.9744 347.246 36.1543 347.708 47.4802Z" fill="#303437" fill-opacity="0.4"/>
<path d="M346.287 50.3297C346.169 50.3297 346.039 50.3176 345.92 50.2816C320.578 43.6808 307.179 41.4926 280.759 39.6531C280.072 39.605 279.516 39.088 279.398 38.4027C279.279 37.7173 279.646 37.044 280.274 36.7675C308.86 24.2634 321.998 19.4541 343.47 15.6187C343.873 15.5466 344.275 15.6428 344.606 15.8832C344.938 16.1237 345.151 16.4964 345.198 16.9052C346.713 28.9043 347.222 35.1444 347.767 48.7546C347.791 49.2356 347.578 49.6804 347.222 49.981C346.95 50.2094 346.619 50.3297 346.287 50.3297ZM287.033 37.1042C309.167 38.8355 322.377 41.1079 344.725 46.867C344.24 35.3007 343.731 29.1689 342.452 18.865C323.584 22.3397 310.966 26.7642 287.033 37.1042Z" fill="#303437" fill-opacity="0.4"/>
<path d="M290.868 79.2334C290.666 79.2334 290.477 79.1973 290.288 79.1132C289.862 78.9328 289.554 78.5601 289.435 78.1032L288.642 74.9652C285.02 60.7297 283.02 52.8545 279.433 38.5229C279.315 38.054 279.421 37.561 279.729 37.1883C280.037 36.8156 280.487 36.6232 280.972 36.6473C307.605 38.4989 321.111 40.6991 346.666 47.3599C347.282 47.5162 347.72 48.0573 347.779 48.6945C347.826 49.3317 347.471 49.9329 346.903 50.1974C327.858 58.6738 316.4 64.8296 291.613 79.041C291.377 79.1733 291.116 79.2334 290.868 79.2334ZM282.795 39.7974C286.074 52.8786 288.05 60.6576 291.495 74.2197L291.815 75.4701C313.831 62.8578 325.265 56.7019 341.766 49.2235C319.655 43.5967 306.445 41.5046 282.795 39.7974Z" fill="#303437" fill-opacity="0.4"/>
<path d="M409.472 133.891C409.176 133.891 408.892 133.807 408.632 133.626L402.346 129.238C391.575 121.723 384.39 116.71 372.009 108.137C371.784 107.981 371.606 107.764 371.488 107.512C360.681 83.201 355.248 71.5145 344.95 49.464C344.63 48.7666 344.867 47.937 345.518 47.5283C346.169 47.1315 347.009 47.2998 347.471 47.913C370.032 78.4158 383.455 95.9576 405.696 125.006L410.632 131.45C411.082 132.039 411.046 132.869 410.537 133.398C410.253 133.722 409.863 133.891 409.472 133.891ZM374.021 105.889C385.597 113.908 392.616 118.802 402.453 125.667C383.739 101.212 371.216 84.8482 353.851 61.5112C360.551 75.915 365.688 87.1446 374.021 105.889Z" fill="#303437" fill-opacity="0.4"/>
<path d="M372.837 108.402C372.648 108.402 372.458 108.366 372.281 108.293C339.6 94.8635 323.194 88.7678 290.453 79.1853C289.885 79.017 289.459 78.512 289.388 77.9108C289.317 77.3097 289.613 76.7205 290.134 76.432C315.015 62.1605 326.52 55.9806 345.684 47.4561C346.418 47.1315 347.27 47.4561 347.613 48.1895C357.923 70.2641 363.368 81.9506 374.175 106.286C374.423 106.851 374.317 107.5 373.891 107.945C373.618 108.233 373.24 108.402 372.837 108.402ZM294.667 77.2856C324.188 86.0145 340.535 92.0381 369.973 104.097C360.361 82.5157 354.987 70.9614 345.565 50.7865C328.082 58.6016 316.802 64.6132 294.667 77.2856Z" fill="#303437" fill-opacity="0.4"/>
<path d="M215.397 157.168C215.053 157.168 214.698 157.047 214.426 156.795L213.822 156.254C194.457 139.025 184.739 130.38 168.061 115.736C167.671 115.387 167.481 114.858 167.576 114.341C167.671 113.824 168.026 113.391 168.511 113.199C215.136 95.2843 242.408 86.1948 290.584 76.2516C291.223 76.1194 291.862 76.432 292.182 77.0091C292.489 77.5862 292.395 78.3076 291.945 78.7765C278.628 92.6633 267.822 103.773 256.364 115.531C244.681 127.518 232.607 139.914 216.474 156.711C216.166 157.011 215.775 157.168 215.397 157.168ZM171.873 115.123C187.308 128.685 196.99 137.293 215.314 153.597C230.974 137.305 242.799 125.162 254.245 113.415C264.708 102.667 274.651 92.4709 286.453 80.1832C242.136 89.5373 215.408 98.4344 171.873 115.123Z" fill="#303437" fill-opacity="0.4"/>
<path d="M336.924 166.438C336.901 166.438 336.877 166.438 336.853 166.438C336.333 166.413 335.859 166.113 335.622 165.644C327.301 149.821 320.827 137.63 314.553 125.823C306.717 111.071 299.307 97.1239 289.554 78.4399C289.282 77.9108 289.341 77.2616 289.708 76.7927C290.086 76.3238 290.69 76.1314 291.27 76.2997C324.141 85.9183 340.594 92.0381 373.393 105.516C373.796 105.684 374.104 106.009 374.234 106.418C374.376 106.827 374.329 107.283 374.116 107.656C362.373 128.108 354.845 140.107 338.155 165.764C337.883 166.185 337.422 166.438 336.924 166.438ZM293.815 80.1592C302.775 97.2922 309.771 110.482 317.169 124.392C323.135 135.634 329.302 147.237 337.066 162.001C352.371 138.448 359.805 126.581 370.707 107.632C340.18 95.116 323.845 89.0443 293.815 80.1592Z" fill="#303437" fill-opacity="0.4"/>
<path d="M250.99 206.739C250.528 206.739 250.078 206.511 249.794 206.126C234.951 185.675 227.577 175.467 214.189 156.542C213.775 155.953 213.834 155.136 214.331 154.619C230.477 137.81 242.562 125.414 254.233 113.415C265.679 101.669 276.498 90.5592 289.802 76.6845C290.276 76.1915 291.01 76.0833 291.602 76.432C292.193 76.7686 292.466 77.478 292.288 78.1393C281.043 119.162 272.58 144.736 258.553 187.093C256.612 192.949 254.564 199.129 252.398 205.717C252.221 206.246 251.771 206.643 251.226 206.727C251.144 206.727 251.061 206.739 250.99 206.739ZM217.326 155.809C229.731 173.351 237.034 183.462 250.493 202.014C252.339 196.447 254.079 191.169 255.748 186.132C269.1 145.806 277.409 120.713 287.873 82.9966C276.368 94.9717 266.614 104.987 256.34 115.531C244.882 127.302 233.033 139.47 217.326 155.809Z" fill="#303437" fill-opacity="0.4"/>
<path d="M250.99 206.739C250.635 206.739 250.291 206.607 250.007 206.367C249.557 205.97 249.392 205.333 249.581 204.767C251.759 198.179 253.807 191.999 255.736 186.144C269.751 143.822 278.202 118.285 289.435 77.3337C289.601 76.7446 290.098 76.3118 290.702 76.2396C291.306 76.1675 291.886 76.4921 292.17 77.0331C301.923 95.7172 309.321 109.652 317.157 124.404C323.431 136.211 329.905 148.415 338.227 164.237C338.416 164.61 338.451 165.043 338.321 165.44C338.191 165.836 337.895 166.161 337.516 166.329C305.971 180.264 288.903 188.44 251.629 206.607C251.428 206.691 251.203 206.739 250.99 206.739ZM291.294 81.7583C280.534 120.689 272.154 145.986 258.553 187.093C256.944 191.939 255.275 197 253.511 202.339C288.098 185.494 305.095 177.367 334.865 164.201C326.911 149.076 320.637 137.257 314.553 125.823C307.191 111.948 300.207 98.8071 291.294 81.7583Z" fill="#303437" fill-opacity="0.4"/>
<path d="M336.924 166.438C336.51 166.438 336.096 166.257 335.812 165.933C335.374 165.428 335.315 164.682 335.694 164.105C352.348 138.496 359.864 126.533 371.559 106.141C371.76 105.781 372.115 105.528 372.506 105.432C372.908 105.336 373.323 105.42 373.666 105.66C386.059 114.245 393.232 119.247 404.015 126.773L410.301 131.162C410.762 131.474 410.999 132.027 410.928 132.592C410.857 133.145 410.49 133.626 409.969 133.819C384.923 143.197 369.925 150.146 337.564 166.305C337.374 166.389 337.149 166.438 336.924 166.438ZM373.323 109.039C362.752 127.422 355.449 139.133 341.162 161.147C369.215 147.2 383.952 140.431 406.288 131.979L402.358 129.238C391.954 121.988 384.911 117.07 373.323 109.039Z" fill="#303437" fill-opacity="0.4"/>
<path d="M83.3457 182.921C82.7893 182.921 82.2567 182.597 82.0081 182.068C81.7122 181.43 81.8897 180.661 82.4461 180.228C103.468 163.985 117.992 152.623 134.8 139.458C144.731 131.679 155.266 123.431 168.121 113.415C168.677 112.982 169.458 113.007 169.991 113.475C186.681 128.12 196.399 136.776 215.763 154.006L216.367 154.547C216.805 154.931 216.971 155.545 216.805 156.11C216.639 156.675 216.166 157.084 215.598 157.168C161.539 164.899 135.25 170.369 83.6889 182.885C83.5705 182.909 83.464 182.921 83.3457 182.921ZM168.961 116.541C156.544 126.22 146.282 134.251 136.611 141.826C121.318 153.801 107.931 164.285 89.8085 178.304C136.102 167.147 162.332 161.797 211.988 154.643C194.173 138.784 184.574 130.248 168.961 116.541Z" fill="#303437" fill-opacity="0.4"/>
<path d="M1.4945 248.881C1.23409 248.881 0.973668 248.808 0.736933 248.664C0.216115 248.351 -0.0560896 247.738 0.0386045 247.125L9.25941 190.797C9.36594 190.171 9.83942 189.678 10.4549 189.57C37.0166 184.593 51.9783 182.609 83.2273 179.916C83.8665 179.855 84.482 180.24 84.7187 180.853C84.9555 181.467 84.7779 182.164 84.2808 182.585C48.0721 212.474 31.2403 226.036 2.39411 248.568C2.1337 248.772 1.81409 248.881 1.4945 248.881ZM12.0055 192.335L3.56593 243.855C29.6186 223.476 46.2493 210.07 78.6702 183.33C51.1142 185.783 36.4366 187.779 12.0055 192.335Z" fill="#303437" fill-opacity="0.4"/>
<path d="M157.609 234.14C157.314 234.14 157.018 234.056 156.757 233.864C122.809 209.396 108.156 199.153 82.5526 182.681C82.0555 182.356 81.7832 181.755 81.8897 181.166C81.9962 180.577 82.4224 180.096 83.0024 179.952C134.67 167.399 161.007 161.917 215.183 154.174C215.775 154.09 216.367 154.378 216.663 154.907C216.971 155.436 216.923 156.098 216.557 156.579L212.295 162.181C192.149 188.704 179.993 204.707 158.781 233.527C158.509 233.936 158.059 234.14 157.609 234.14ZM87.0979 182.056C112.05 198.179 127.568 209.144 157.29 230.569C177.981 202.471 190.09 186.528 209.963 160.354L211.999 157.673C161.527 164.959 135.309 170.381 87.0979 182.056Z" fill="#303437" fill-opacity="0.4"/>
<path d="M157.609 234.14C157.136 234.14 156.674 233.912 156.402 233.503C156.035 232.974 156.047 232.264 156.426 231.747C177.637 202.904 189.805 186.889 209.963 160.366L214.225 154.763C214.509 154.39 214.947 154.186 215.42 154.174C215.894 154.186 216.32 154.414 216.592 154.799C229.968 173.712 237.342 183.919 252.173 204.347C252.469 204.743 252.54 205.26 252.375 205.729C252.209 206.198 251.83 206.559 251.368 206.691C216.107 216.418 197.227 222.165 165.943 231.675L158.024 234.08C157.894 234.116 157.752 234.14 157.609 234.14ZM215.349 158.178L212.307 162.181C193.025 187.562 181.058 203.313 161.48 229.884L165.102 228.778C195.783 219.448 214.544 213.737 248.516 204.347C234.939 185.651 227.636 175.539 215.349 158.178Z" fill="#303437" fill-opacity="0.4"/>
<path d="M384.129 268.49C383.916 268.49 383.715 268.442 383.514 268.358C365.889 260.182 351.046 253.173 336.7 246.392C310.552 234.032 285.861 222.357 250.398 206.619C249.865 206.379 249.522 205.862 249.51 205.272C249.498 204.683 249.83 204.142 250.35 203.89C287.66 185.711 304.74 177.523 336.333 163.564C337.055 163.251 337.895 163.552 338.25 164.273C358.231 205.092 368.588 226.481 385.491 266.398C385.727 266.963 385.609 267.637 385.171 268.07C384.875 268.346 384.508 268.49 384.129 268.49ZM254.541 205.176C288.465 220.277 312.517 231.651 337.954 243.662C351.342 249.987 365.155 256.515 381.253 263.994C365.439 226.794 355.686 206.619 336.238 166.882C306.326 180.108 289.317 188.224 254.541 205.176Z" fill="#303437" fill-opacity="0.4"/>
<path d="M384.129 268.49C384.035 268.49 383.952 268.478 383.857 268.466C383.372 268.37 382.969 268.045 382.768 267.577C365.865 227.648 356.088 207.461 335.599 165.596C335.303 164.983 335.445 164.249 335.942 163.804C336.439 163.36 337.173 163.299 337.741 163.672C355.733 175.695 369.393 184.917 382.591 193.826C396.203 203.012 409.058 211.705 426.103 223.079C426.47 223.331 426.718 223.728 426.765 224.173C426.813 224.618 426.659 225.063 426.351 225.387C412.774 239.334 404.536 247.907 390.888 262.106L385.195 268.033C384.911 268.334 384.52 268.49 384.129 268.49ZM340.689 169.251C358.775 206.21 368.919 227.359 384.615 264.33L388.769 260.014C401.991 246.259 410.135 237.783 422.978 224.594C406.667 213.701 394.167 205.26 380.957 196.339C368.896 188.199 356.455 179.795 340.689 169.251Z" fill="#303437" fill-opacity="0.4"/>
<path d="M113.541 283.808C113.447 283.808 113.352 283.796 113.269 283.784C112.76 283.688 112.334 283.327 112.156 282.834C96.9224 241.065 90.0689 219.508 81.9016 181.743C81.7714 181.154 82.0081 180.541 82.4934 180.192C82.9787 179.843 83.6298 179.831 84.1387 180.156C111.209 197.566 126.798 208.591 158.474 231.423C158.817 231.675 159.042 232.06 159.089 232.493C159.136 232.926 158.994 233.347 158.71 233.671C145.169 248.736 136.528 258.535 126.514 269.885C122.88 274.009 119.022 278.373 114.642 283.327C114.358 283.628 113.956 283.808 113.541 283.808ZM85.5592 184.617C93.2057 219.364 99.9526 240.633 114.074 279.443C117.791 275.235 121.129 271.448 124.301 267.853C134.031 256.816 142.482 247.245 155.384 232.878C123.745 210.082 109.02 199.778 85.5592 184.617Z" fill="#303437" fill-opacity="0.4"/>
<path d="M1.4945 248.881C0.878991 248.881 0.322672 248.484 0.109611 247.895C-0.115288 247.281 0.0859054 246.584 0.594886 246.187C29.4056 223.68 46.2374 210.118 82.4224 180.252C82.9432 179.819 83.7008 179.807 84.2335 180.216C84.7779 180.625 84.9791 181.358 84.7187 181.996C74.4799 207.364 69.7808 220.109 62.1342 245.574C61.9449 246.187 61.4003 246.62 60.7611 246.632C36.1052 247.414 23.937 247.871 1.55366 248.881C1.54182 248.881 1.51818 248.881 1.4945 248.881ZM79.7947 186.288C48.1432 212.39 31.5717 225.748 6.11085 245.67C25.3337 244.817 37.3954 244.36 59.613 243.662C66.5493 220.626 71.1183 207.954 79.7947 186.288Z" fill="#303437" fill-opacity="0.4"/>
<path d="M113.541 283.808C113.245 283.808 112.949 283.712 112.689 283.531L104.687 277.808C87.5477 265.557 77.1905 258.15 59.897 246.368C59.3526 245.995 59.1158 245.31 59.3052 244.684C66.9873 219.111 71.7101 206.306 81.9844 180.841C82.233 180.228 82.8367 179.855 83.4758 179.916C84.115 179.976 84.6595 180.445 84.7897 181.094C92.9097 218.69 99.7395 240.152 114.926 281.776C115.151 282.389 114.95 283.086 114.441 283.483C114.18 283.7 113.861 283.808 113.541 283.808ZM62.4538 244.504C79.2383 255.95 89.5362 263.308 106.392 275.356L110.511 278.301C97.0408 241.15 90.3648 220.013 82.9313 186.432C74.0419 208.603 69.4611 221.251 62.4538 244.504Z" fill="#303437" fill-opacity="0.4"/>
<path d="M113.541 283.808C113.103 283.808 112.665 283.603 112.381 283.231C111.931 282.654 111.967 281.836 112.44 281.295C116.82 276.341 120.679 271.977 124.313 267.853C134.327 256.503 142.979 246.692 156.521 231.627C156.698 231.423 156.935 231.279 157.183 231.206L165.102 228.802C196.41 219.279 215.302 213.532 250.599 203.794C251.321 203.601 252.079 203.974 252.363 204.695C252.635 205.405 252.351 206.21 251.688 206.571C221.563 222.934 199.038 235.799 177.258 248.243C157.243 259.677 138.351 270.474 114.24 283.628C114.015 283.748 113.778 283.808 113.541 283.808ZM158.426 233.96C145.039 248.844 136.445 258.595 126.502 269.861C124.526 272.109 122.478 274.43 120.312 276.882C140.92 265.545 157.917 255.83 175.803 245.622C194.741 234.801 214.236 223.668 238.81 210.19C211.183 217.921 193.309 223.367 165.954 231.687L158.426 233.96Z" fill="#303437" fill-opacity="0.4"/>
<path d="M384.129 268.49C337.126 268.406 312.801 268.286 263.572 267.961C262.874 267.961 262.27 267.456 262.128 266.759C258.956 251.213 256.754 240.548 254.339 228.814C252.895 221.84 251.38 214.494 249.546 205.537C249.427 204.984 249.628 204.419 250.066 204.058C250.492 203.709 251.084 203.625 251.593 203.842C287.08 219.604 311.795 231.279 337.954 243.65C352.3 250.431 367.132 257.441 384.745 265.605C385.384 265.893 385.727 266.603 385.574 267.288C385.42 267.997 384.828 268.49 384.129 268.49ZM264.791 264.968C310.801 265.268 335.031 265.388 377.311 265.472C362.35 258.511 349.341 252.355 336.711 246.392C311.215 234.344 287.092 222.946 253.037 207.785C254.624 215.48 255.961 221.997 257.251 228.213C259.595 239.635 261.749 250.059 264.791 264.968Z" fill="#303437" fill-opacity="0.4"/>
<path d="M113.541 283.808C112.89 283.808 112.31 283.375 112.121 282.738C111.92 282.052 112.215 281.319 112.843 280.982C136.919 267.841 155.81 257.044 175.814 245.622C197.606 233.166 220.143 220.289 250.303 203.914C250.717 203.685 251.203 203.673 251.629 203.878C252.055 204.082 252.351 204.467 252.446 204.936C254.292 213.893 255.807 221.239 257.239 228.213C259.666 239.935 261.868 250.612 265.028 266.158C265.111 266.567 265.016 266.999 264.779 267.348C264.531 267.697 264.164 267.913 263.75 267.961L240.775 270.558C191.96 276.077 162.486 279.395 113.671 283.808C113.624 283.796 113.577 283.808 113.541 283.808ZM249.948 207.509C220.688 223.427 198.612 236.028 177.258 248.231C159.042 258.643 141.736 268.526 120.584 280.141C165.185 276.053 194.09 272.783 240.455 267.54L261.808 265.136C258.814 250.456 256.683 240.128 254.339 228.814C253.002 222.369 251.605 215.588 249.948 207.509Z" fill="#303437" fill-opacity="0.4"/>
<path d="M365.723 334.113C365.522 334.113 365.309 334.065 365.12 333.981C364.433 333.668 364.09 332.886 364.315 332.165C372.411 305.894 376.199 292.741 382.697 266.627C382.756 266.374 382.887 266.134 383.076 265.941L388.769 260.014C402.417 245.815 410.656 237.242 424.244 223.283C424.753 222.754 425.57 222.682 426.162 223.127C426.754 223.56 426.943 224.365 426.612 225.027C407.483 263.248 394.664 286.537 367.002 333.379C366.718 333.848 366.232 334.113 365.723 334.113ZM385.467 267.745C380.081 289.399 376.542 302.155 370.825 321.032C392.202 284.601 404.264 262.683 419.628 232.313C409.709 242.532 402.133 250.407 390.888 262.106L385.467 267.745Z" fill="#303437" fill-opacity="0.4"/>
<path d="M365.723 334.113C365.451 334.113 365.191 334.041 364.954 333.896C333.8 314.515 313.713 301.278 283.316 281.247C276.983 277.075 270.213 272.614 262.779 267.733C262.223 267.372 261.974 266.675 262.164 266.038C262.353 265.4 262.933 264.968 263.584 264.968H263.596C312.825 265.292 337.138 265.412 384.13 265.497C384.579 265.497 385.017 265.713 385.289 266.074C385.574 266.434 385.668 266.915 385.562 267.36C379.052 293.547 375.252 306.736 367.144 333.055C367.002 333.5 366.682 333.848 366.256 334.017C366.078 334.077 365.901 334.113 365.723 334.113ZM268.638 267.997C274.426 271.809 279.824 275.356 284.926 278.722C314.778 298.392 334.687 311.509 364.883 330.326C372.399 305.882 376.163 292.789 382.224 268.49C338.085 268.406 313.89 268.286 268.638 267.997Z" fill="#303437" fill-opacity="0.4"/>
<path d="M259.098 318.002C259.003 318.002 258.897 317.99 258.79 317.966C210.248 307.674 180.703 300.388 143.299 291.166C133.948 288.858 124.052 286.417 113.186 283.76C112.476 283.591 112.002 282.918 112.062 282.185C112.109 281.451 112.689 280.862 113.411 280.802C162.202 276.39 191.652 273.071 240.455 267.553L263.43 264.968C263.868 264.919 264.306 265.076 264.626 265.388C264.945 265.701 265.099 266.146 265.064 266.591C263.43 285.082 262.53 295.05 261.039 311.581L260.577 316.631C260.542 317.052 260.329 317.449 259.986 317.701C259.713 317.894 259.406 318.002 259.098 318.002ZM122.632 282.978C130.148 284.83 137.227 286.573 144.009 288.244C180.963 297.358 210.248 304.584 257.772 314.683L258.08 311.317C259.524 295.338 260.424 285.491 261.951 268.154L240.775 270.546C195.014 275.716 166.262 278.963 122.632 282.978Z" fill="#303437" fill-opacity="0.4"/>
<path d="M301.544 344.982C301.272 344.982 301.012 344.91 300.763 344.753C285.068 334.882 276.427 329.352 260.719 319.324L258.293 317.773C257.819 317.473 257.559 316.932 257.606 316.367L258.068 311.317C259.559 294.785 260.471 284.818 262.093 266.326C262.152 265.653 262.637 265.112 263.288 264.98C263.939 264.847 264.59 265.184 264.886 265.773C268.117 272.266 271.017 278.085 273.704 283.495C284.05 304.259 291.519 319.264 302.858 342.806C303.142 343.407 303.012 344.128 302.527 344.585C302.266 344.85 301.911 344.982 301.544 344.982ZM260.648 315.717L262.306 316.775C276.474 325.829 284.902 331.215 297.958 339.451C287.861 318.543 280.712 304.211 271.077 284.866C269.053 280.79 266.898 276.486 264.59 271.833C263.241 287.114 262.377 296.685 261.027 311.593L260.648 315.717Z" fill="#303437" fill-opacity="0.4"/>
<path d="M301.544 344.982C300.988 344.982 300.467 344.657 300.219 344.14C288.891 320.611 281.422 305.618 271.077 284.866C268.39 279.455 265.478 273.636 262.258 267.144C261.962 266.543 262.093 265.797 262.59 265.352C263.087 264.907 263.821 264.835 264.377 265.208C271.799 270.089 278.581 274.562 284.914 278.722C315.299 298.741 335.374 311.966 366.493 331.336C367.013 331.66 367.286 332.285 367.179 332.886C367.073 333.488 366.599 333.981 365.996 334.089C340.937 338.766 328.142 341.002 301.769 344.97C301.698 344.97 301.627 344.982 301.544 344.982ZM267.372 270.739C269.632 275.295 271.739 279.516 273.728 283.507C283.931 303.983 291.329 318.855 302.409 341.832C326.674 338.165 339.41 335.976 361.663 331.84C332.355 313.553 312.636 300.556 283.316 281.247C278.309 277.941 273.03 274.466 267.372 270.739Z" fill="#303437" fill-opacity="0.4"/>
<path d="M46.995 308.359C46.6517 308.359 46.3085 308.239 46.0362 307.998C45.6456 307.662 45.4562 307.145 45.5391 306.628C49.1375 283.098 51.9665 270.366 59.3053 244.708C59.4355 244.252 59.7787 243.879 60.2166 243.711C60.6546 243.542 61.1518 243.602 61.5424 243.879C78.8714 255.686 89.2285 263.08 106.392 275.356L114.393 281.067C114.843 281.379 115.08 281.92 115.009 282.473C114.938 283.026 114.595 283.495 114.086 283.7C85.4763 295.182 71.8404 300.352 47.4448 308.299C47.2909 308.335 47.1489 308.359 46.995 308.359ZM61.5779 247.522C54.9493 270.871 52.144 283.411 48.8297 304.68C71.0118 297.406 84.5057 292.32 110.452 281.92L104.699 277.808C88.1041 265.953 77.8771 258.643 61.5779 247.522Z" fill="#303437" fill-opacity="0.4"/>
<path d="M46.995 308.359C46.557 308.359 46.1309 308.155 45.8468 307.806C25.9137 282.846 16.1247 270.041 0.310784 248.267C-0.00880845 247.822 -0.0679865 247.233 0.168749 246.728C0.405484 246.223 0.890799 245.899 1.43529 245.875C23.8304 244.865 36.0104 244.408 60.6782 243.626C61.1754 243.614 61.6015 243.831 61.8975 244.203C62.1934 244.576 62.2762 245.081 62.146 245.538C54.8545 271.063 52.0374 283.712 48.4627 307.085C48.368 307.674 47.9538 308.155 47.3856 308.311C47.2554 308.347 47.1252 308.359 46.995 308.359ZM4.33531 248.748C18.6341 268.37 28.2219 280.91 46.048 303.285C49.3268 282.425 52.1558 269.837 58.7252 246.692C36.4248 247.402 24.3749 247.859 4.33531 248.748Z" fill="#303437" fill-opacity="0.4"/>
<path d="M350.099 398.521C349.684 398.521 349.294 398.341 349.01 398.028C331.409 378.382 321.454 367.429 300.467 344.501C300.088 344.092 299.97 343.503 300.16 342.986C300.337 342.457 300.799 342.084 301.343 342C327.68 338.032 340.452 335.808 365.475 331.131C365.96 331.047 366.457 331.203 366.812 331.564C367.167 331.925 367.298 332.442 367.191 332.935C361.415 359.374 358.219 372.226 351.555 397.415C351.413 397.944 350.998 398.353 350.478 398.485C350.336 398.509 350.217 398.521 350.099 398.521ZM304.551 344.549C323.537 365.313 333.409 376.158 349.377 393.976C355.378 371.252 358.538 358.484 363.794 334.498C341.044 338.73 328.319 340.942 304.551 344.549Z" fill="#303437" fill-opacity="0.4"/>
<path d="M298.431 421.125C298.124 421.125 297.828 421.028 297.567 420.848C297.153 420.547 296.928 420.055 296.952 419.538C298.585 390.021 299.224 374.378 300.065 343.443C300.077 342.83 300.455 342.289 301.024 342.084C301.592 341.868 302.219 342.024 302.633 342.469C323.632 365.409 333.587 376.362 351.2 396.02C351.519 396.381 351.649 396.862 351.555 397.331C351.46 397.8 351.152 398.196 350.714 398.401C329.799 408.031 319.382 412.66 298.988 421.028C298.81 421.089 298.621 421.125 298.431 421.125ZM302.929 347.194C302.16 374.968 301.521 390.453 300.041 417.337C318.4 409.787 328.71 405.206 347.637 396.501C331.562 378.575 321.726 367.742 302.929 347.194Z" fill="#303437" fill-opacity="0.4"/>
<path d="M298.431 421.125C298.242 421.125 298.041 421.089 297.851 421.004C272.556 410.171 259.228 404.028 233.033 391.091C232.56 390.85 232.24 390.369 232.205 389.84C232.169 389.311 232.43 388.782 232.868 388.482C257.713 371.986 272.497 362.043 300.704 342.241C301.166 341.916 301.757 341.88 302.255 342.156C302.74 342.421 303.048 342.95 303.024 343.515C302.184 374.487 301.533 390.141 299.899 419.694C299.875 420.187 299.615 420.62 299.201 420.884C298.976 421.04 298.704 421.125 298.431 421.125ZM236.679 389.54C260.625 401.346 273.823 407.43 297.07 417.397C298.562 390.177 299.201 374.667 299.994 346.388C274.119 364.544 259.548 374.354 236.679 389.54Z" fill="#303437" fill-opacity="0.4"/>
<path d="M144.873 372.683C144.672 372.683 144.482 372.647 144.293 372.563C143.926 372.407 143.642 372.106 143.488 371.733C129.888 336.65 123.247 318.783 112.121 282.75C111.967 282.233 112.085 281.668 112.452 281.271C112.819 280.874 113.364 280.706 113.884 280.838C124.751 283.495 134.646 285.936 144.009 288.244C181.378 297.466 210.899 304.752 259.406 315.02C260.021 315.152 260.495 315.669 260.566 316.294C260.648 316.932 260.317 317.545 259.761 317.833L255.57 319.95C208.803 343.623 185.319 355.502 145.441 372.551C145.264 372.647 145.062 372.683 144.873 372.683ZM115.731 284.385C126.207 318.158 132.811 335.952 145.69 369.196C184.633 352.508 208.081 340.641 254.245 317.268L254.624 317.076C208.531 307.253 179.626 300.123 143.311 291.154C134.693 289.038 125.615 286.802 115.731 284.385Z" fill="#303437" fill-opacity="0.4"/>
<path d="M144.873 372.683C144.589 372.683 144.317 372.599 144.068 372.443C132.93 365.085 123.318 358.712 114.453 352.833C91.3354 337.503 73.0832 325.396 46.2019 308.143C45.7166 307.83 45.4562 307.265 45.5272 306.688C45.5982 306.111 46.0007 305.63 46.5452 305.45C70.8579 297.526 84.4583 292.38 112.997 280.922C113.376 280.766 113.802 280.79 114.18 280.958C114.547 281.139 114.831 281.463 114.95 281.86C126.041 317.797 132.669 335.628 146.246 370.639C146.483 371.252 146.305 371.938 145.808 372.359C145.536 372.563 145.205 372.683 144.873 372.683ZM50.4513 307.313C75.9003 323.677 93.7147 335.496 116.062 350.32C123.887 355.502 132.291 361.081 141.796 367.369C129.509 335.592 122.975 317.797 112.594 284.301C86.1746 294.893 72.5978 300.039 50.4513 307.313Z" fill="#303437" fill-opacity="0.4"/>
<path d="M233.684 391.235C233.365 391.235 233.045 391.127 232.773 390.922C232.276 390.526 232.075 389.864 232.276 389.251C240.893 363.377 245.971 349.07 255.18 323.088L257.701 315.982C257.855 315.549 258.186 315.212 258.613 315.068C259.039 314.924 259.5 314.972 259.879 315.212L262.306 316.763C278.001 326.791 286.642 332.321 302.326 342.192C302.752 342.457 303.012 342.926 303.024 343.431C303.036 343.936 302.799 344.417 302.385 344.705C274.154 364.531 259.358 374.475 234.489 390.982C234.252 391.163 233.968 391.235 233.684 391.235ZM259.867 318.759L257.973 324.098C249.273 348.649 244.266 362.776 236.466 386.089C258.672 371.337 273.207 361.526 298.846 343.539C284.346 334.401 275.776 328.931 260.731 319.312L259.867 318.759Z" fill="#303437" fill-opacity="0.4"/>
<path d="M233.684 391.235C233.601 391.235 233.53 391.223 233.448 391.211C197.05 385.235 179.318 381.328 144.518 372.635C143.903 372.479 143.441 371.938 143.394 371.289C143.346 370.639 143.701 370.038 144.293 369.786C184.076 352.773 207.525 340.906 254.245 317.268L258.435 315.152C258.979 314.876 259.631 314.96 260.08 315.369C260.53 315.777 260.696 316.427 260.495 317.004L257.973 324.11C248.776 350.068 243.698 364.375 235.093 390.213C234.88 390.838 234.312 391.235 233.684 391.235ZM149.561 370.796C181.094 378.635 198.742 382.446 232.69 388.049C241.07 362.932 246.125 348.661 255.192 323.088L256.458 319.505L255.57 319.95C210.425 342.806 186.988 354.672 149.561 370.796Z" fill="#303437" fill-opacity="0.4"/>
<path d="M84.6122 388.59C84.0677 388.59 83.5705 388.289 83.3101 387.796C66.0876 354.865 58.2281 338.646 45.6338 307.433C45.3852 306.832 45.5627 306.135 46.048 305.714C46.5452 305.293 47.2435 305.245 47.788 305.594C74.6811 322.859 92.9452 334.979 116.074 350.308C124.94 356.187 134.551 362.56 145.69 369.918C146.175 370.23 146.424 370.808 146.353 371.373C146.282 371.95 145.879 372.431 145.335 372.599C119.483 380.967 107.126 384.454 84.8844 388.554C84.7897 388.59 84.695 388.59 84.6122 388.59ZM50.1317 310.656C61.566 338.67 69.4019 354.781 85.4052 385.404C105.954 381.568 118.122 378.214 141.44 370.699C131.403 364.075 122.608 358.231 114.441 352.821C92.4717 338.261 74.8942 326.598 50.1317 310.656Z" fill="#303437" fill-opacity="0.4"/>
<path d="M84.6122 388.59C84.4346 388.59 84.2453 388.554 84.0677 388.482C56.4525 377.42 42.9231 371.397 18.6815 359.975C17.9594 359.638 17.628 358.772 17.9357 358.027C24.7064 341.615 30.8141 330.662 45.7284 306.063C46.0243 305.582 46.5571 305.317 47.1134 305.353C47.6697 305.401 48.155 305.762 48.3681 306.279C60.915 337.371 68.7509 353.542 85.9261 386.378C86.222 386.931 86.1392 387.616 85.7249 388.085C85.429 388.422 85.0265 388.59 84.6122 388.59ZM21.2146 357.871C43.4913 368.355 56.8077 374.294 81.4163 384.201C65.9693 354.588 58.2281 338.489 46.7227 310.175C33.3946 332.213 27.4644 342.914 21.2146 357.871Z" fill="#303437" fill-opacity="0.4"/>
<path d="M19.297 360.119C19.2378 360.119 19.1668 360.119 19.1076 360.107C18.4447 360.023 17.9239 359.494 17.8292 358.833L9.27124 297.647C9.20022 297.154 9.3778 296.649 9.74474 296.312C10.1117 295.975 10.6206 295.843 11.1059 295.975L15.9353 297.238C27.0027 300.123 34.2113 302.011 47.3501 305.401C47.8117 305.522 48.1787 305.846 48.3562 306.291C48.5338 306.736 48.4864 307.241 48.2497 307.65C33.4182 332.093 27.3578 342.974 20.67 359.205C20.4333 359.77 19.8888 360.119 19.297 360.119ZM12.5263 299.45L20.0309 353.109C25.9019 339.595 32.0215 328.726 44.6868 307.818C32.7553 304.728 25.7244 302.901 15.2133 300.147L12.5263 299.45Z" fill="#303437" fill-opacity="0.4"/>
<path d="M46.995 308.359C46.8766 308.359 46.7464 308.347 46.628 308.311C33.4774 304.909 26.2688 303.033 15.2014 300.147L10.372 298.885C9.81569 298.741 9.38959 298.284 9.28306 297.707L0.0267081 247.654C-0.103496 246.969 0.251583 246.283 0.890768 245.995C1.51812 245.718 2.26383 245.911 2.66628 246.476C18.4565 268.214 28.2219 280.982 48.1195 305.906C48.5219 306.411 48.5574 307.121 48.2142 307.662C47.9656 308.107 47.4921 308.359 46.995 308.359ZM12.0292 296.216L15.9472 297.238C25.7362 299.799 32.5068 301.566 43.0415 304.283C26.5411 283.567 17.1071 271.268 4.14588 253.521L12.0292 296.216Z" fill="#303437" fill-opacity="0.4"/>
<path d="M350.099 398.521C349.744 398.521 349.389 398.389 349.116 398.136C348.702 397.764 348.525 397.174 348.678 396.621C355.331 371.481 358.527 358.664 364.291 332.273C364.398 331.78 364.741 331.372 365.214 331.191C365.676 331.011 366.197 331.083 366.611 331.372C388.994 347.783 399.541 355.31 417.923 367.585C418.373 367.886 418.634 368.415 418.586 368.968C418.539 369.521 418.196 370.002 417.699 370.218C391.61 381.725 378.235 387.496 350.655 398.401C350.466 398.485 350.288 398.521 350.099 398.521ZM366.682 335.159C361.427 359.121 358.266 371.902 352.289 394.541C377.134 384.682 390.403 378.983 413.994 368.595C397.434 357.486 386.947 350.007 366.682 335.159Z" fill="#303437" fill-opacity="0.4"/>
<path d="M407.01 415.714C406.903 415.714 406.809 415.702 406.702 415.678C385.869 411.169 374.175 407.418 349.602 398.425C349.022 398.208 348.631 397.655 348.619 397.03C348.607 396.405 348.986 395.84 349.566 395.611C377.098 384.73 390.45 378.959 416.503 367.477C417 367.261 417.58 367.333 418.006 367.682C418.432 368.03 418.645 368.583 418.539 369.124C415.225 387.628 413.153 396.982 408.43 414.596C408.265 415.269 407.673 415.714 407.01 415.714ZM354.324 396.958C375.761 404.737 387.195 408.332 405.956 412.444C410.206 396.501 412.183 387.676 415.142 371.361C391.847 381.628 378.602 387.315 354.324 396.958Z" fill="#303437" fill-opacity="0.4"/>
<path d="M336.392 422.231C325.277 422.231 313.014 421.834 298.36 421.125C297.662 421.089 297.094 420.572 296.975 419.874C296.857 419.177 297.236 418.492 297.875 418.227C318.222 409.883 328.615 405.266 349.495 395.647C349.85 395.491 350.241 395.467 350.608 395.599C375.039 404.533 386.663 408.26 407.33 412.732C408.028 412.889 408.513 413.514 408.501 414.235C408.49 414.957 407.969 415.57 407.27 415.69C380.235 420.283 361.202 422.231 336.392 422.231ZM305.249 418.431C344.855 420.175 366.611 419.177 399.162 413.983C382.839 410.159 371.263 406.336 350.182 398.641C331.835 407.082 321.584 411.662 305.249 418.431Z" fill="#303437" fill-opacity="0.4"/>
<path d="M365.723 334.113C365.274 334.113 364.847 333.908 364.563 333.536C364.185 333.043 364.137 332.37 364.457 331.828C392.084 285.058 404.879 261.805 423.972 223.656C424.292 223.019 425.014 222.694 425.688 222.886C426.363 223.079 426.813 223.74 426.766 224.449C423.972 260.327 420.989 280.465 412.857 318.17C412.739 318.687 412.372 319.12 411.863 319.276C394.238 325.059 384.934 328.089 366.173 334.029C366.019 334.089 365.877 334.113 365.723 334.113ZM423.203 231.808C406.323 265.256 393.658 288.16 368.99 330.001C385.076 324.903 394.238 321.909 410.147 316.691C417.521 282.413 420.599 262.707 423.203 231.808Z" fill="#303437" fill-opacity="0.4"/>
<path d="M417.095 370.363C416.811 370.363 416.527 370.279 416.278 370.11C397.848 357.799 387.278 350.248 364.859 333.812C364.409 333.476 364.173 332.911 364.267 332.357C364.362 331.804 364.753 331.335 365.285 331.167C384.047 325.24 393.338 322.198 410.952 316.427C411.378 316.282 411.839 316.355 412.206 316.595C412.573 316.836 412.822 317.244 412.869 317.689L418.551 368.692C418.61 369.269 418.35 369.834 417.852 370.146C417.627 370.291 417.355 370.363 417.095 370.363ZM368.99 333.139C388.698 347.567 399.103 354.997 415.26 365.83L410.135 319.841C394.499 324.975 385.325 327.969 368.99 333.139Z" fill="#303437" fill-opacity="0.4"/>
<path d="M154.165 414.356C154.011 414.356 153.857 414.332 153.703 414.283C124.774 404.761 110.937 399.495 84.0559 388.482C83.4404 388.229 83.0734 387.604 83.1326 386.931C83.1918 386.257 83.6889 385.728 84.3399 385.608C106.415 381.532 118.702 378.07 144.411 369.75C144.814 369.617 145.252 369.665 145.607 369.882C145.974 370.098 146.223 370.459 146.305 370.88C149.703 387.532 151.525 395.696 155.585 412.504C155.716 413.033 155.55 413.586 155.159 413.959C154.887 414.223 154.532 414.356 154.165 414.356ZM89.8795 387.628C112.938 397.03 126.621 402.188 152.094 410.604C148.578 396.008 146.779 387.88 143.76 373.128C120.927 380.486 108.676 383.973 89.8795 387.628Z" fill="#303437" fill-opacity="0.4"/>
<path d="M54.6416 397.812C54.2391 397.812 53.8485 397.643 53.5644 397.343C39.0289 381.653 31.6309 373.813 18.2435 359.662C17.7464 359.145 17.6872 358.34 18.1015 357.75C18.5158 357.161 19.2852 356.957 19.9243 357.257C44.1187 368.655 57.6007 374.667 85.1567 385.692C85.7249 385.921 86.1037 386.486 86.0918 387.099C86.08 387.712 85.7012 388.277 85.1331 388.494C71.2722 393.784 65.342 395.611 54.9375 397.788C54.831 397.812 54.7363 397.812 54.6416 397.812ZM25.8073 363.329C35.8803 373.994 43.0297 381.604 55.1387 394.674C63.9452 392.81 69.6032 391.127 80.4694 387.051C57.9322 377.973 44.8526 372.226 25.8073 363.329Z" fill="#303437" fill-opacity="0.4"/>
<path d="M154.165 414.356C154.082 414.356 154.011 414.344 153.928 414.332L54.4048 397.788C53.6946 397.667 53.1738 397.054 53.1619 396.333C53.1501 395.611 53.6472 394.974 54.3456 394.83C64.5726 392.702 70.4081 390.898 84.1032 385.668C84.4465 385.536 84.8371 385.536 85.1804 385.68C111.991 396.657 125.78 401.924 154.638 411.41C155.372 411.65 155.798 412.432 155.621 413.189C155.432 413.899 154.84 414.356 154.165 414.356ZM62.4064 396.08L135.842 408.284C117.885 402.092 104.995 397.054 84.5885 388.698C74.6811 392.473 68.8693 394.457 62.4064 396.08Z" fill="#303437" fill-opacity="0.4"/>
<path d="M154.165 414.356C153.502 414.356 152.898 413.899 152.733 413.213C148.661 396.369 146.838 388.169 143.429 371.481C143.323 370.976 143.488 370.447 143.855 370.098C144.222 369.738 144.743 369.593 145.24 369.726C179.957 378.406 197.641 382.302 233.945 388.253C234.619 388.361 235.128 388.927 235.188 389.612C235.247 390.297 234.832 390.934 234.181 391.163C199.985 402.801 183.674 407.779 154.508 414.332C154.378 414.344 154.272 414.356 154.165 414.356ZM146.803 373.212C149.809 387.868 151.62 396.008 155.254 411.073C181.78 405.074 197.748 400.3 227.529 390.237C195.783 384.923 178.217 381.039 146.803 373.212Z" fill="#303437" fill-opacity="0.4"/>
<path d="M425.286 225.844C425.002 225.844 424.718 225.76 424.469 225.592C407.412 214.206 394.558 205.525 380.945 196.327C367.747 187.418 354.088 178.196 336.108 166.173C335.67 165.872 335.409 165.367 335.445 164.826C335.48 164.285 335.788 163.804 336.273 163.576C368.73 147.369 383.786 140.383 408.951 130.969C409.342 130.825 409.78 130.849 410.147 131.053C410.514 131.258 410.786 131.606 410.892 132.015C419.888 168.109 423.155 187.069 426.754 224.197C426.813 224.774 426.529 225.327 426.043 225.628C425.818 225.772 425.558 225.844 425.286 225.844ZM339.907 165.127C356.846 176.453 369.925 185.278 382.591 193.838C395.505 202.555 407.732 210.815 423.51 221.359C420.101 186.997 416.834 168.241 408.43 134.384C384.899 143.233 370.02 150.11 339.907 165.127Z" fill="#303437" fill-opacity="0.4"/>
<path d="M409.472 133.891C409.022 133.891 408.584 133.686 408.3 133.314L403.364 126.869C381.111 97.7972 367.676 80.2554 345.104 49.7405C344.654 49.1394 344.725 48.2857 345.258 47.7567C345.79 47.2277 346.631 47.1796 347.211 47.6605C361.687 59.335 372.222 67.9196 383.384 77.0091C390.865 83.1049 398.819 89.5854 408.738 97.6289C409.046 97.8814 409.247 98.242 409.283 98.6508C410.596 111.431 410.916 118.056 410.94 132.4C410.94 133.037 410.537 133.614 409.945 133.819C409.792 133.867 409.626 133.891 409.472 133.891ZM354.455 57.3392C373.027 82.3234 385.846 99.0837 405.696 125.018L407.969 127.987C407.886 116.878 407.519 110.47 406.406 99.5766C396.712 91.7135 388.888 85.3412 381.525 79.3416C372.849 72.26 364.54 65.4909 354.455 57.3392Z" fill="#303437" fill-opacity="0.4"/>
<path d="M407.815 100.298C407.483 100.298 407.164 100.19 406.892 99.9734C396.972 91.9299 389.018 85.4494 381.525 79.3536C370.363 70.2641 359.829 61.6795 345.364 50.0171C344.843 49.5962 344.666 48.8869 344.914 48.2617C345.175 47.6365 345.802 47.2758 346.453 47.3479L388.639 52.4938C389.136 52.554 389.574 52.8666 389.799 53.3355C398.12 70.8412 402.109 80.075 409.188 98.2541C409.436 98.8913 409.235 99.6127 408.691 100.009C408.43 100.19 408.123 100.298 407.815 100.298ZM351.294 50.9428C363.723 60.9822 373.299 68.7732 383.372 76.9851C389.728 82.155 396.416 87.6136 404.37 94.07C398.582 79.4017 394.794 70.745 387.479 55.3554L351.294 50.9428Z" fill="#303437" fill-opacity="0.4"/>
<path d="M407.815 100.298C407.211 100.298 406.667 99.9253 406.442 99.3482C399.316 81.0369 395.528 72.2599 387.136 54.634C386.876 54.0809 386.97 53.4316 387.373 52.9748C387.775 52.5179 388.414 52.3616 388.983 52.566L415.39 62.3408C416.077 62.5933 416.479 63.3267 416.337 64.0481L409.283 99.0837C409.152 99.7329 408.62 100.226 407.957 100.274C407.898 100.286 407.862 100.298 407.815 100.298ZM391.385 56.6539C397.967 70.6007 401.802 79.4378 407.365 93.565L413.177 64.7214L391.385 56.6539Z" fill="#303437" fill-opacity="0.4"/>
<path d="M457.553 150.014C457.387 150.014 457.21 149.99 457.044 149.918C437.987 142.884 428.565 139.722 409.046 133.831C408.418 133.638 407.992 133.061 407.992 132.388C407.969 118.176 407.649 111.612 406.347 98.9514C406.288 98.3142 406.619 97.713 407.187 97.4365C407.756 97.16 408.43 97.2802 408.868 97.7371C428.375 117.623 438.602 127.831 458.583 147.429C459.08 147.922 459.175 148.703 458.808 149.305C458.535 149.749 458.05 150.014 457.553 150.014ZM410.94 131.27C427.31 136.223 436.921 139.385 451.552 144.712C435.631 129.069 425.759 119.186 409.697 102.847C410.644 112.754 410.904 119.307 410.94 131.27Z" fill="#303437" fill-opacity="0.4"/>
<path d="M464.17 116.108C464.039 116.108 463.909 116.096 463.779 116.06L407.424 100.25C406.678 100.034 406.217 99.276 406.371 98.4945L413.425 63.459C413.532 62.9059 413.946 62.4611 414.479 62.3168C415.012 62.1605 415.592 62.3288 415.959 62.7496C425.677 73.4262 434.258 82.0468 443.349 91.1724C450.297 98.1459 457.482 105.36 465.235 113.584C465.697 114.077 465.779 114.81 465.436 115.399C465.164 115.832 464.679 116.108 464.17 116.108ZM409.543 97.713L459.352 111.696C453.031 105.095 447.077 99.1077 441.277 93.2885C432.779 84.752 424.718 76.6725 415.757 66.9096L409.543 97.713Z" fill="#303437" fill-opacity="0.4"/>
<path d="M457.553 150.014C457.174 150.014 456.807 149.87 456.523 149.593C436.519 129.983 426.292 119.752 406.761 99.8532C406.288 99.3722 406.193 98.6268 406.536 98.0377C406.88 97.4485 407.566 97.172 408.206 97.3403L464.56 113.151C465.306 113.355 465.768 114.125 465.614 114.894L458.997 148.8C458.89 149.341 458.5 149.773 457.991 149.942C457.849 149.99 457.707 150.014 457.553 150.014ZM412.81 101.753C429.239 118.465 439.253 128.468 456.63 145.505L462.453 115.676L412.81 101.753Z" fill="#303437" fill-opacity="0.4"/>
<path d="M459.222 186.144C458.831 186.144 458.441 185.987 458.157 185.687C438.555 165.271 428.565 154.835 408.395 133.422C407.933 132.929 407.85 132.183 408.205 131.594C408.561 131.017 409.247 130.741 409.886 130.933C429.251 136.776 439.147 140.107 458.05 147.08C458.583 147.273 458.95 147.754 459.009 148.319C460.559 161.941 460.903 169.407 460.69 184.653C460.678 185.254 460.311 185.807 459.755 186.023C459.589 186.119 459.411 186.144 459.222 186.144ZM414.408 135.454C431.252 153.308 441.041 163.564 457.79 180.998C457.896 168.469 457.529 161.52 456.192 149.605C439.502 143.449 430.198 140.287 414.408 135.454Z" fill="#303437" fill-opacity="0.4"/>
<path d="M459.222 186.144C458.926 186.144 458.63 186.047 458.37 185.867C457.967 185.578 457.73 185.11 457.742 184.617C457.955 169.347 457.636 162.29 456.085 148.667C456.026 148.102 456.274 147.549 456.748 147.237C457.221 146.924 457.813 146.912 458.299 147.2C469.603 153.885 476.941 158.25 485.535 163.36L498.366 170.982C498.887 171.295 499.171 171.896 499.076 172.509C498.982 173.122 498.532 173.603 497.94 173.748C484.766 176.826 477.261 179.242 459.731 186.047C459.577 186.119 459.399 186.144 459.222 186.144ZM459.352 151.312C460.548 162.494 460.867 169.756 460.725 182.452C475.391 176.79 482.931 174.313 493.679 171.68L484.044 165.957C476.113 161.244 469.248 157.168 459.352 151.312Z" fill="#303437" fill-opacity="0.4"/>
<path d="M497.62 173.784C497.36 173.784 497.111 173.712 496.875 173.579L484.044 165.957C475.45 160.847 468.111 156.482 456.807 149.809C456.263 149.485 455.979 148.848 456.097 148.222L462.714 114.317C462.832 113.728 463.27 113.271 463.85 113.139C464.418 113.007 465.022 113.235 465.365 113.716C467.839 117.167 470.1 120.269 472.195 123.118C484.008 139.289 490.518 148.186 499.017 171.752C499.23 172.353 499.053 173.014 498.579 173.423C498.307 173.663 497.964 173.784 497.62 173.784ZM459.21 147.741C470.005 154.126 477.178 158.382 485.535 163.36L494.779 168.854C487.145 148.643 481.132 140.407 469.816 124.921C468.301 122.841 466.679 120.641 464.963 118.261L459.21 147.741Z" fill="#303437" fill-opacity="0.4"/>
<path d="M425.286 225.844C425.132 225.844 424.978 225.82 424.836 225.772C424.28 225.592 423.877 225.087 423.818 224.485C420.232 187.538 416.988 168.674 408.028 132.749C407.862 132.087 408.158 131.39 408.75 131.065C409.342 130.741 410.076 130.849 410.537 131.342C430.707 152.755 440.685 163.191 460.287 183.595C460.82 184.148 460.855 185.037 460.346 185.627C448.687 199.429 441.893 207.328 426.99 224.654L426.41 225.339C426.126 225.664 425.712 225.844 425.286 225.844ZM412.265 137.522C419.983 169.047 423.143 187.731 426.422 220.734C439.81 205.164 446.533 197.349 457.221 184.701C439.514 166.269 429.63 155.941 412.265 137.522Z" fill="#303437" fill-opacity="0.4"/>
<path d="M490.861 239.623C490.767 239.623 490.66 239.611 490.566 239.587C479.96 237.362 471.461 235.571 463.081 233.803C451.824 231.423 440.757 229.09 425.002 225.808C424.481 225.7 424.067 225.327 423.901 224.81C423.735 224.293 423.842 223.74 424.185 223.343L424.777 222.658C439.668 205.345 446.462 197.433 458.109 183.655C458.417 183.294 458.867 183.102 459.34 183.138C459.814 183.174 460.228 183.426 460.488 183.835C474.574 206.282 481.132 217.175 492.164 237.386C492.448 237.903 492.4 238.529 492.057 239.009C491.761 239.406 491.323 239.623 490.861 239.623ZM428.079 223.391C442.532 226.409 453.019 228.621 463.672 230.87C471.213 232.457 478.824 234.068 487.997 235.992C478.184 218.125 471.71 207.364 459.044 187.166C448.439 199.706 441.68 207.569 428.079 223.391Z" fill="#303437" fill-opacity="0.4"/>
<path d="M490.861 239.623C490.838 239.623 490.814 239.623 490.791 239.623C490.282 239.599 489.82 239.31 489.571 238.853C478.563 218.702 472.029 207.845 457.979 185.458C457.612 184.881 457.683 184.124 458.145 183.619C458.606 183.114 459.34 183.005 459.944 183.33C480.942 195.137 490.625 200.547 509.208 210.623C509.575 210.827 509.848 211.176 509.954 211.597C510.061 212.017 509.978 212.45 509.741 212.799L492.081 238.973C491.797 239.382 491.347 239.623 490.861 239.623ZM463.59 188.813C475.131 207.268 481.463 217.885 490.992 235.258L506.356 212.474C490.222 203.733 480.706 198.431 463.59 188.813Z" fill="#303437" fill-opacity="0.4"/>
<path d="M508.498 213.46C508.262 213.46 508.025 213.4 507.8 213.28C489.204 203.192 479.51 197.77 458.5 185.963C457.991 185.675 457.695 185.122 457.742 184.544C457.778 183.967 458.157 183.45 458.689 183.246C476.373 176.381 483.949 173.94 497.289 170.826C498.023 170.658 498.757 171.066 499.005 171.776C504.592 187.262 506.841 195.474 509.942 211.681C510.049 212.246 509.824 212.835 509.374 213.172C509.126 213.352 508.818 213.46 508.498 213.46ZM462.726 184.893C480.812 195.065 490.412 200.415 506.451 209.132C503.74 195.389 501.586 187.719 496.685 174.048C485.026 176.814 477.64 179.17 462.726 184.893Z" fill="#303437" fill-opacity="0.4"/>
<path d="M411.413 319.36C411.165 319.36 410.928 319.3 410.703 319.168C410.135 318.843 409.839 318.182 409.969 317.533C418.065 279.996 421.048 259.93 423.818 224.221C423.854 223.788 424.067 223.391 424.398 223.139C424.741 222.874 425.168 222.778 425.582 222.862C441.337 226.145 452.404 228.477 463.661 230.858C472.041 232.625 480.54 234.417 491.146 236.641C491.678 236.749 492.116 237.158 492.27 237.687C492.424 238.216 492.282 238.793 491.88 239.19C477.723 253.257 466.525 264.559 453.54 277.628C442.141 289.122 429.216 302.143 412.431 318.916C412.159 319.204 411.792 319.36 411.413 319.36ZM426.635 226.157C424.007 259.401 421.131 279.227 413.911 313.253C428.991 298.176 440.887 286.176 451.469 275.512C463.838 263.044 474.598 252.199 487.831 239.034C478.468 237.074 470.727 235.439 463.069 233.815C452.203 231.519 441.526 229.259 426.635 226.157Z" fill="#303437" fill-opacity="0.4"/>
<path d="M452.321 320.118C440.757 320.118 427.819 319.853 411.366 319.36C410.774 319.348 410.253 318.964 410.028 318.411C409.815 317.846 409.945 317.208 410.372 316.787C427.156 300.027 440.07 287.006 451.469 275.512C464.454 262.431 475.663 251.129 489.82 237.05C490.199 236.665 490.767 236.533 491.276 236.689C491.797 236.845 492.187 237.278 492.294 237.807L509.09 315.994C509.185 316.415 509.09 316.86 508.83 317.208C508.569 317.557 508.179 317.773 507.753 317.809C486.671 319.397 471.366 320.118 452.321 320.118ZM414.917 316.451C455.233 317.617 474.018 317.292 505.835 314.936L489.974 241.089C476.705 254.291 465.933 265.148 453.552 277.628C442.721 288.557 430.506 300.869 414.917 316.451Z" fill="#303437" fill-opacity="0.4"/>
<path d="M417.095 370.363C416.87 370.363 416.633 370.315 416.432 370.206C415.982 369.978 415.686 369.533 415.627 369.028L409.945 318.026C409.898 317.593 410.04 317.16 410.324 316.836C410.62 316.511 411.023 316.331 411.461 316.355C454.925 317.653 473.781 317.353 507.551 314.816C508.25 314.755 508.877 315.212 509.078 315.886C509.28 316.559 508.984 317.292 508.38 317.629C481.534 332.766 463.933 343.118 439.549 357.426C432.944 361.297 425.819 365.493 417.841 370.17C417.604 370.291 417.343 370.363 417.095 370.363ZM413.07 319.408L418.302 366.419C425.499 362.199 431.997 358.388 438.058 354.829C460.642 341.567 477.415 331.72 501.1 318.302C471.627 320.37 452.558 320.575 413.07 319.408Z" fill="#303437" fill-opacity="0.4"/>
<path d="M462.773 398.305C462.56 398.305 462.347 398.257 462.134 398.16C447.788 391.247 438.093 385.091 416.254 370.11C415.828 369.822 415.592 369.329 415.603 368.812C415.627 368.295 415.899 367.826 416.337 367.561C424.315 362.884 431.441 358.7 438.046 354.829C462.43 340.509 480.055 330.157 506.924 315.008C507.504 314.683 508.226 314.78 508.688 315.26C509.149 315.741 509.256 316.475 508.924 317.064L464.051 397.547C463.791 398.028 463.294 398.305 462.773 398.305ZM419.876 368.956C439.585 382.446 449.078 388.446 462.157 394.83L503.764 320.214C479.451 333.969 462.489 343.936 439.537 357.414C433.512 360.961 427.038 364.76 419.876 368.956Z" fill="#303437" fill-opacity="0.4"/>
<path d="M407.01 415.714C406.607 415.714 406.229 415.546 405.945 415.257C405.578 414.873 405.447 414.331 405.578 413.814C410.324 396.08 412.289 387.207 415.627 368.583C415.722 368.078 416.053 367.67 416.503 367.465C416.965 367.261 417.497 367.321 417.912 367.609C439.608 382.494 449.22 388.602 463.4 395.431C463.933 395.684 464.264 396.237 464.241 396.838C464.217 397.439 463.85 397.968 463.306 398.184C442.52 406.468 431.003 410.063 407.341 415.666C407.235 415.702 407.128 415.714 407.01 415.714ZM418.136 371.397C415.213 387.592 413.165 396.79 409.081 412.179C429.796 407.226 441.052 403.739 459.056 396.657C446.71 390.489 437.123 384.382 418.136 371.397Z" fill="#303437" fill-opacity="0.4"/>
<path d="M248.989 422.868C217.941 422.868 191.096 420.247 153.928 414.344C153.23 414.235 152.697 413.622 152.674 412.901C152.65 412.179 153.135 411.542 153.834 411.386C182.869 404.869 199.121 399.904 233.211 388.313C233.578 388.193 233.98 388.217 234.324 388.385C260.459 401.298 273.752 407.43 299 418.227C299.639 418.504 299.994 419.177 299.887 419.862C299.769 420.548 299.201 421.064 298.514 421.113C279.942 422.255 263.975 422.868 248.989 422.868ZM162.119 412.576C210.413 419.934 241.698 421.341 292.016 418.492C270.52 409.222 257.346 403.09 233.59 391.355C202.861 401.803 186.598 406.853 162.119 412.576Z" fill="#303437" fill-opacity="0.4"/>
<path d="M95.1469 443.848C94.7326 443.848 94.3183 443.668 94.0343 443.343C78.2914 425.164 70.1122 415.907 53.5408 397.331C53.1146 396.862 53.0317 396.164 53.3395 395.599C53.6472 395.034 54.251 394.734 54.8783 394.83L154.402 411.374C155.017 411.47 155.503 411.963 155.621 412.576C155.739 413.201 155.455 413.827 154.911 414.151C125.875 431.477 113.233 438.186 95.5849 443.788C95.4428 443.824 95.289 443.848 95.1469 443.848ZM58.5714 398.497C73.0951 414.788 81.1914 423.974 95.6204 440.626C111.801 435.408 124.029 429.036 149.88 413.67L58.5714 398.497Z" fill="#303437" fill-opacity="0.4"/>
<path d="M190.042 463.326C190.019 463.326 189.995 463.326 189.959 463.326C147.738 461.078 128.124 457.05 94.6024 443.752C94.0224 443.524 93.6436 442.935 93.6673 442.297C93.6909 441.66 94.1052 441.107 94.7089 440.915C112.073 435.408 124.597 428.759 153.419 411.566C154.07 411.181 154.899 411.35 155.349 411.963C170.121 431.933 177.495 441.961 191.238 460.933C191.581 461.402 191.616 462.027 191.344 462.532C191.084 463.025 190.575 463.326 190.042 463.326ZM99.562 442.478C129.616 454.104 148.886 457.976 186.988 460.152C174.654 443.139 167.339 433.196 153.774 414.836C127.733 430.346 115.044 437.176 99.562 442.478Z" fill="#303437" fill-opacity="0.4"/>
<path d="M190.042 463.326C189.581 463.326 189.131 463.11 188.847 462.713C175.116 443.752 167.742 433.725 152.981 413.766C152.614 413.273 152.591 412.612 152.899 412.095C153.206 411.566 153.798 411.29 154.39 411.386C209.253 420.115 241.544 421.63 298.337 418.131C299.059 418.095 299.686 418.564 299.864 419.261C300.041 419.958 299.698 420.692 299.047 420.992C250.954 443.524 227.612 452.613 190.433 463.278C190.303 463.302 190.172 463.326 190.042 463.326ZM157.527 414.909C170.665 432.679 177.957 442.598 190.622 460.092C225.186 450.137 247.888 441.444 290.69 421.581C239.603 424.407 207.939 422.772 157.527 414.909Z" fill="#303437" fill-opacity="0.4"/>
<path d="M272.118 472.596C243.272 472.596 222.842 470.131 189.746 463.302C189.072 463.158 188.586 462.581 188.563 461.883C188.539 461.186 188.977 460.573 189.64 460.38C226.63 449.764 249.889 440.71 297.816 418.263C298.313 418.035 298.905 418.095 299.343 418.431C299.781 418.768 299.994 419.333 299.899 419.886C296.336 440.602 294.49 450.906 290.844 471.117C290.714 471.814 290.122 472.331 289.424 472.343C283.257 472.5 277.539 472.596 272.118 472.596ZM196.304 461.559C231.281 468.532 252.232 470.263 288.133 469.362C291.471 450.858 293.294 440.638 296.478 422.171C252.647 442.646 229.541 451.772 196.304 461.559Z" fill="#303437" fill-opacity="0.4"/>
<path d="M289.376 472.343C289.033 472.343 288.702 472.223 288.429 471.995C288.015 471.646 287.826 471.105 287.92 470.564C291.566 450.353 293.401 440.061 296.964 419.357C297.094 418.612 297.733 418.071 298.491 418.119C345.625 420.439 367.889 419.333 406.761 412.732C407.472 412.612 408.17 413.033 408.407 413.73C408.643 414.428 408.347 415.185 407.708 415.546C359.84 441.865 335.788 454.357 289.897 472.259C289.743 472.307 289.566 472.343 289.376 472.343ZM299.662 421.185C296.395 440.145 294.573 450.377 291.306 468.472C332.959 452.12 356.668 440.073 398.606 417.109C364.93 422.423 342.606 423.253 299.662 421.185Z" fill="#303437" fill-opacity="0.4"/>
<path d="M409.614 460.176C409.484 460.176 409.365 460.164 409.235 460.128C408.608 459.972 408.182 459.37 408.134 458.721L405.53 414.307C405.483 413.574 405.968 412.925 406.667 412.756C430.163 407.202 441.585 403.631 462.217 395.407C462.856 395.155 463.578 395.371 463.968 395.948C464.359 396.513 464.323 397.283 463.874 397.8C449.516 414.416 411.993 457.892 410.821 459.491C410.561 459.935 410.111 460.176 409.614 460.176ZM408.561 415.39L410.869 454.814C418.752 445.508 443.195 417.181 457.671 400.421C440.591 407.045 429.228 410.472 408.561 415.39Z" fill="#303437" fill-opacity="0.4"/>
<path d="M329.503 498.386C329.018 498.386 328.544 498.133 328.26 497.7C327.893 497.123 327.952 496.366 328.414 495.861C358.432 462.953 375.098 445.171 405.956 413.153C406.371 412.732 406.986 412.588 407.531 412.793C408.075 412.997 408.454 413.514 408.49 414.115L411.094 458.529C411.129 459.082 410.857 459.611 410.383 459.899C379.016 479.209 362.48 487.108 329.976 498.301C329.822 498.362 329.657 498.386 329.503 498.386ZM405.732 417.686C375.536 449.054 359.722 466.007 334.581 493.528C363.025 483.477 379.253 475.53 408.075 457.807L405.732 417.686Z" fill="#303437" fill-opacity="0.4"/>
<path d="M329.503 498.386C329.242 498.386 328.982 498.313 328.757 498.181C314.754 489.813 306.445 484.318 288.56 472.091C288.098 471.778 287.849 471.237 287.92 470.672C287.98 470.119 288.346 469.638 288.855 469.434C334.581 451.603 358.574 439.135 406.312 412.889C406.951 412.54 407.756 412.708 408.194 413.31C408.632 413.899 408.584 414.74 408.075 415.269C374.731 449.872 358.787 467.005 330.592 497.917C330.296 498.229 329.905 498.386 329.503 498.386ZM292.56 471.201C308.374 481.998 316.518 487.348 329.219 494.971C356.455 465.117 372.731 447.696 399.138 420.235C357.698 442.923 333.965 454.946 292.56 471.201Z" fill="#303437" fill-opacity="0.4"/>
<path d="M205.371 510C205.158 510 204.933 509.952 204.732 509.856C160.794 488.635 137.345 473.365 94.3065 443.596C93.6792 443.163 93.4779 442.334 93.833 441.648C94.1881 440.975 94.9812 440.674 95.6796 440.951C128.846 454.104 148.27 458.084 190.113 460.32C190.729 460.356 191.25 460.765 191.439 461.354C197.63 480.495 200.612 489.488 206.767 508.016C206.957 508.593 206.791 509.218 206.353 509.615C206.081 509.868 205.726 510 205.371 510ZM106.25 448.189C141.914 472.68 164.652 486.988 202.85 505.612C197.641 489.969 194.528 480.531 188.941 463.266C152.496 461.282 132.965 457.904 106.25 448.189Z" fill="#303437" fill-opacity="0.4"/>
<path d="M95.1469 443.848C94.8865 443.848 94.6261 443.776 94.3894 443.632L59.9562 422.664C59.613 422.459 59.3762 422.123 59.2815 421.738L53.1974 396.669C53.0317 395.996 53.3395 395.311 53.9431 394.986C54.5468 394.662 55.2807 394.794 55.7305 395.299C72.3138 413.899 80.493 423.157 96.2477 441.348C96.733 441.901 96.7449 442.73 96.2714 443.307C95.9873 443.668 95.573 443.848 95.1469 443.848ZM62.004 420.415L87.7371 436.093C76.9419 423.674 69.3428 415.065 57.4705 401.743L62.004 420.415Z" fill="#303437" fill-opacity="0.4"/>
<path d="M205.371 510C204.672 510 204.069 509.507 203.927 508.798C203.773 508.052 204.199 507.307 204.921 507.066C233.483 497.628 251.487 489.561 288.69 469.518C289.175 469.253 289.755 469.289 290.205 469.602C308.031 481.806 316.317 487.264 330.249 495.596C330.805 495.933 331.077 496.582 330.947 497.219C330.805 497.857 330.284 498.325 329.645 498.386L205.513 510C205.465 510 205.418 510 205.371 510ZM289.293 472.596C257.831 489.524 240.076 497.881 217.799 505.828L324.827 495.813C313.227 488.791 304.953 483.309 289.293 472.596Z" fill="#303437" fill-opacity="0.4"/>
<path d="M329.503 498.386C328.887 498.386 328.307 497.989 328.106 497.364C327.846 496.582 328.26 495.728 329.029 495.452C361.285 484.343 377.702 476.503 408.845 457.326C409.425 456.966 410.17 457.062 410.656 457.543C411.141 458.024 411.236 458.781 410.892 459.382C405.672 468.328 403.045 472.644 397.469 481.349C397.268 481.673 396.937 481.902 396.57 481.998C378.614 486.35 331.681 497.76 329.964 498.301C329.822 498.362 329.657 498.386 329.503 498.386ZM405.329 463.001C385.834 474.832 371.949 482.13 355.07 489.007C371.476 485.004 390.427 480.399 395.303 479.221C399.482 472.692 401.991 468.64 405.329 463.001Z" fill="#303437" fill-opacity="0.4"/>
<path d="M205.371 510C204.755 510 204.175 509.603 203.974 508.978C197.973 490.931 194.812 481.409 188.634 462.292C188.468 461.787 188.586 461.222 188.93 460.825C189.285 460.428 189.817 460.248 190.326 460.356C229.399 468.424 250.67 470.36 289.341 469.35C290.015 469.314 290.631 469.794 290.808 470.468C290.986 471.141 290.678 471.85 290.075 472.175C252.694 492.314 234.584 500.43 205.832 509.928C205.679 509.976 205.525 510 205.371 510ZM192.232 463.807C197.736 480.832 200.719 489.813 206.306 506.609C232.631 497.845 250.197 490.078 283.15 472.488C248.883 473.113 227.872 471.069 192.232 463.807Z" fill="#303437" fill-opacity="0.4"/>
<path d="M507.646 317.809C506.96 317.809 506.356 317.328 506.202 316.631L489.406 238.444C489.323 238.036 489.406 237.615 489.631 237.278L507.279 211.116C507.646 210.575 508.321 210.334 508.948 210.527C509.564 210.719 509.99 211.308 509.99 211.969L509.137 316.331C509.126 317.1 508.557 317.737 507.812 317.809C507.753 317.809 507.705 317.809 507.646 317.809ZM492.436 238.432L506.273 302.877L506.971 216.863L492.436 238.432Z" fill="#303437" fill-opacity="0.4"/>
<path d="M10.7154 192.552C10.4194 192.552 10.1353 192.468 9.87492 192.287C9.28308 191.867 9.07004 191.073 9.3778 190.412L44.746 113.896C45.042 113.271 45.7166 112.922 46.3794 113.067C47.0541 113.211 47.5394 113.8 47.5631 114.485L48.7705 152.539C48.7823 152.948 48.6285 153.344 48.3562 153.633L11.7925 192.095C11.4965 192.396 11.106 192.552 10.7154 192.552ZM44.7934 120.846L15.8406 183.498L45.7758 152.01L44.7934 120.846Z" fill="#303437" fill-opacity="0.4"/>
<path d="M414.87 65.2504C414.704 65.2504 414.526 65.2264 414.361 65.1542L387.965 55.3794C387.811 55.3193 387.669 55.2351 387.539 55.1389L342.796 18.2638C342.18 17.7589 342.074 16.8571 342.535 16.2199C342.997 15.5827 343.873 15.4023 344.536 15.8351L415.686 62.4851C416.314 62.9059 416.55 63.7355 416.207 64.4208C415.947 64.9378 415.426 65.2504 414.87 65.2504ZM389.207 52.6501L402.997 57.748L365.83 33.377L389.207 52.6501Z" fill="#303437" fill-opacity="0.4"/>
<path d="M409.614 460.128C409.176 460.128 408.738 459.923 408.454 459.551C408.016 458.986 408.04 458.18 408.501 457.639L461.66 395.816C462.157 395.227 463.021 395.131 463.637 395.587C464.252 396.044 464.43 396.898 464.051 397.571L436.176 446.121C436.034 446.361 435.832 446.566 435.572 446.698L410.3 459.972C410.076 460.068 409.851 460.128 409.614 460.128ZM453.67 409.679L415.852 453.659L433.832 444.221L453.67 409.679Z" fill="#303437" fill-opacity="0.4"/>
<path d="M396.227 482.046C395.883 482.046 395.552 481.926 395.28 481.697C394.711 481.216 394.581 480.387 394.972 479.75L408.359 457.831C408.501 457.603 408.703 457.411 408.939 457.29L434.211 444.017C434.874 443.668 435.69 443.872 436.105 444.498C436.531 445.123 436.424 445.964 435.88 446.469L397.221 481.661C396.937 481.914 396.582 482.046 396.227 482.046ZM410.656 459.767L402.926 472.428L425.262 452.096L410.656 459.767Z" fill="#303437" fill-opacity="0.4"/>
</svg>
