<svg width="35" height="29" viewBox="0 0 35 29" fill="none" xmlns="http://www.w3.org/2000/svg">
<path d="M21.2713 17.2499L13.5688 3.83328C13.4009 3.53831 13.1573 3.29296 12.863 3.12227C12.5687 2.95157 12.2342 2.86163 11.8936 2.86163C11.5529 2.86163 11.2184 2.95157 10.9241 3.12227C10.6298 3.29296 10.3862 3.53831 10.2183 3.83328L2.51584 17.2499C2.34608 17.5426 2.25707 17.8747 2.25782 18.2126C2.25857 18.5505 2.34906 18.8822 2.52012 19.1741C2.69118 19.466 2.93673 19.7077 3.23187 19.8747C3.52702 20.0416 3.86127 20.128 4.20075 20.1249H19.6056C19.9435 20.1246 20.2753 20.0358 20.5677 19.8674C20.8602 19.6991 21.103 19.4571 21.2718 19.1658C21.4405 18.8745 21.5293 18.5441 21.5293 18.2078C21.5292 17.8715 21.4402 17.5412 21.2713 17.2499Z" fill="#ff9133" stroke="#282828" stroke-linecap="round" stroke-linejoin="round"/>
<path d="M11.9023 8.625V12.4583" stroke="#282828" stroke-width="1.91667" stroke-linecap="round" stroke-linejoin="round"/>
<path d="M11.9023 16.2916H11.9129" stroke="#282828" stroke-width="1.91667" stroke-linecap="round" stroke-linejoin="round"/>
<path d="M31 18C31 23 27.5 25.5 23.34 26.95C23.1222 27.0238 22.8855 27.0203 22.67 26.94C18.5 25.5 15 23 15 18V11C15 10.7348 15.1054 10.4804 15.2929 10.2929C15.4804 10.1053 15.7348 9.99999 16 9.99999C18 9.99999 20.5 8.79999 22.24 7.27999C22.4519 7.09899 22.7214 6.99954 23 6.99954C23.2786 6.99954 23.5481 7.09899 23.76 7.27999C25.51 8.80999 28 9.99999 30 9.99999C30.2652 9.99999 30.5196 10.1053 30.7071 10.2929C30.8946 10.4804 31 10.7348 31 11V18Z" fill="#ff6133" stroke="#282828" stroke-width="2" stroke-linecap="round" stroke-linejoin="round"/>
<path d="M23 13V17" stroke="#282828" stroke-width="2" stroke-linecap="round" stroke-linejoin="round"/>
<path d="M23 21H23.01" stroke="#282828" stroke-width="2" stroke-linecap="round" stroke-linejoin="round"/>
</svg>
