<svg width="30" height="28" viewBox="0 0 30 28" fill="none" xmlns="http://www.w3.org/2000/svg">
<path d="M20.8256 17.2499L13.1589 3.83322C12.9917 3.53825 12.7493 3.2929 12.4564 3.12221C12.1634 2.95151 11.8304 2.86157 11.4914 2.86157C11.1523 2.86157 10.8194 2.95151 10.5264 3.12221C10.2335 3.2929 9.99105 3.53825 9.82389 3.83322L2.15722 17.2499C1.98825 17.5425 1.89965 17.8746 1.9004 18.2125C1.90114 18.5505 1.99122 18.8822 2.16148 19.1741C2.33175 19.4659 2.57615 19.7076 2.86993 19.8746C3.1637 20.0416 3.4964 20.1279 3.8343 20.1249H19.1676C19.5039 20.1245 19.8342 20.0357 20.1253 19.8674C20.4164 19.699 20.6581 19.457 20.826 19.1657C20.994 18.8744 21.0824 18.544 21.0823 18.2077C21.0823 17.8715 20.9937 17.5411 20.8256 17.2499Z" fill="#F2982B" stroke="#282828" stroke-linecap="round" stroke-linejoin="round"/>
<path d="M11.5 8.625V12.4583" stroke="#282828" stroke-width="1.91667" stroke-linecap="round" stroke-linejoin="round"/>
<path d="M11.5 16.2916H11.5106" stroke="#282828" stroke-width="1.91667" stroke-linecap="round" stroke-linejoin="round"/>
<path d="M27.8256 22.2499L20.1589 8.83322C19.9917 8.53825 19.7493 8.2929 19.4564 8.12221C19.1634 7.95151 18.8304 7.86157 18.4914 7.86157C18.1523 7.86157 17.8194 7.95151 17.5264 8.12221C17.2335 8.2929 16.9911 8.53825 16.8239 8.83322L9.15722 22.2499C8.98825 22.5425 8.89965 22.8746 8.9004 23.2125C8.90114 23.5505 8.99122 23.8822 9.16148 24.1741C9.33175 24.4659 9.57615 24.7076 9.86993 24.8746C10.1637 25.0416 10.4964 25.1279 10.8343 25.1249H26.1676C26.5039 25.1245 26.8342 25.0357 27.1253 24.8674C27.4164 24.699 27.6581 24.457 27.826 24.1657C27.994 23.8744 28.0824 23.544 28.0823 23.2077C28.0823 22.8715 27.9937 22.5411 27.8256 22.2499Z" fill="#F27E2B" stroke="#282828" stroke-linecap="round" stroke-linejoin="round"/>
<path d="M18.5 13.625V17.4583" stroke="#282828" stroke-width="1.91667" stroke-linecap="round" stroke-linejoin="round"/>
<path d="M18.5 21.2916H18.5106" stroke="#282828" stroke-width="1.91667" stroke-linecap="round" stroke-linejoin="round"/>
</svg>
