<svg xmlns="http://www.w3.org/2000/svg" xmlns:xlink="http://www.w3.org/1999/xlink" width="1000" zoomAndPan="magnify" viewBox="0 0 750 1439.999935" height="1920" preserveAspectRatio="xMidYMid meet" version="1.2"><defs><filter x="0%" y="0%" width="100%" filterUnits="objectBoundingBox" id="0266bf7193" height="100%"><feColorMatrix values="0 0 0 0 1 0 0 0 0 1 0 0 0 0 1 0 0 0 1 0" type="matrix" in="SourceGraphic"/></filter><clipPath id="9c88945038"><path d="M 0.519531 1 L 448 1 L 448 812 L 0.519531 812 Z M 0.519531 1 "/></clipPath><clipPath id="5b507ffcd0"><rect x="0" width="451" y="0" height="814"/></clipPath></defs><g id="fbc19d2c89"><path style=" stroke:none;fill-rule:nonzero;fill:#ffd400;fill-opacity:1;" d="M 706.554688 619.527344 L 449.773438 619.527344 L 449.773438 45.871094 C 449.773438 3.527344 393.089844 -9.445312 374.652344 28.113281 L 7.921875 764.992188 C -5.054688 791.625 14.066406 822.355469 43.433594 822.355469 L 300.214844 822.355469 L 300.214844 1396.015625 C 300.214844 1438.355469 356.894531 1451.332031 375.335938 1413.769531 L 742.066406 676.894531 C 755.042969 650.941406 735.917969 619.527344 706.554688 619.527344 Z M 706.554688 619.527344 "/><g mask="url(#2277b2b5b1)" transform="matrix(1,0,0,1,299,625)"><g clip-path="url(#5b507ffcd0)"><g clip-rule="nonzero" clip-path="url(#9c88945038)"><path style=" stroke:none;fill-rule:nonzero;fill:#000000;fill-opacity:1;" d="M 428.726562 1.359375 C 344.042969 195.992188 191.066406 354.429688 0.53125 446.625 L 0.53125 771.699219 C 0.53125 814.039062 57.214844 827.015625 75.652344 789.453125 L 442.382812 52.578125 C 452.628906 33.453125 445.113281 11.601562 428.726562 1.359375 Z M 428.726562 1.359375 "/></g></g><mask id="2277b2b5b1"><g filter="url(#0266bf7193)"><rect x="0" width="750" y="0" height="1439.999935" style="fill:#000000;fill-opacity:0.05;stroke:none;"/></g></mask></g></g></svg>