<svg width="28" height="29" viewBox="0 0 28 29" fill="none" xmlns="http://www.w3.org/2000/svg">
<path fill-rule="evenodd" clip-rule="evenodd" d="M25.0636 14.4221C25.1371 15.4251 25.2866 16.4352 25.4384 17.4382C25.6445 18.6435 25.783 19.8592 25.8535 21.0797C25.9175 22.6727 25.7277 23.9826 25.1988 24.9077C24.6106 25.9414 23.6547 26.4936 22.2458 26.4441C20.5642 26.4134 19.53 25.4741 19.0628 23.7395C18.7616 22.6232 18.7165 21.1434 18.8967 19.3734C19.0248 18.0943 19.2193 17.2754 19.1339 15.9585C19.0272 14.4646 18.7615 13.2869 18.3275 12.4184C18.0364 11.7714 17.5028 11.2633 16.8403 11.0024V25.146C17.0434 25.2426 17.228 25.3736 17.3859 25.5331C17.5729 25.7188 17.721 25.9395 17.8216 26.1826C17.9221 26.4257 17.9732 26.6862 17.9717 26.9491V28.3651C17.9686 28.5358 17.8978 28.6983 17.7747 28.8173C17.6516 28.9362 17.4863 29.0019 17.3147 29H0.649919C0.477556 29 0.312253 28.9318 0.190375 28.8106C0.0684958 28.6893 2.51072e-05 28.5248 2.51072e-05 28.3533V26.9373C-0.00129948 26.6745 0.0497996 26.414 0.150363 26.1709C0.250926 25.9278 0.398956 25.707 0.585878 25.5213C0.696402 25.4184 0.818122 25.3282 0.948775 25.2522V3.42676C0.949397 2.97613 1.03922 2.53004 1.21311 2.11395C1.387 1.69786 1.64155 1.31992 1.96223 1.00172C2.28291 0.683516 2.66344 0.431276 3.0821 0.259401C3.50075 0.0875266 3.94933 -0.000617021 4.40222 3.251e-06H13.3632C14.2802 0.00249459 15.1589 0.366067 15.8074 1.01127C16.4558 1.65647 16.8212 2.53083 16.8237 3.44328V9.6761C19.5182 10.2614 20.2392 13.3695 20.4124 15.9325C20.5286 17.6577 20.3768 17.6317 20.1894 19.3852C20.0068 21.0679 20.0376 22.4249 20.3056 23.4185C20.6069 24.5442 21.2544 25.1531 22.2601 25.1673H22.2719C23.14 25.1956 23.7164 24.8794 24.0556 24.2823C24.4564 23.5743 24.5964 22.5005 24.5299 21.1411C24.46 19.9666 24.327 18.7968 24.1315 17.6365C23.9749 16.5886 23.816 15.5337 23.7425 14.4339H23.5243L23.5029 13.0462C21.8426 12.8857 21.2164 11.7742 21.2164 10.1764V9.44009H20.9793C20.8755 9.44009 20.7759 9.39907 20.7025 9.32604C20.6291 9.25301 20.5879 9.15397 20.5879 9.05069V8.60465C20.5879 8.50137 20.6291 8.40232 20.7025 8.3293C20.7759 8.25627 20.8755 8.21524 20.9793 8.21524H22.1391V6.17382C22.1388 6.09316 22.1545 6.01322 22.1854 5.93864C22.2163 5.86405 22.2617 5.79628 22.319 5.73924C22.3764 5.6822 22.4445 5.63701 22.5194 5.60629C22.5944 5.57556 22.6747 5.5599 22.7558 5.56022C22.9193 5.56022 23.0762 5.62486 23.1918 5.73994C23.3075 5.85501 23.3725 6.01108 23.3725 6.17382V8.21524H25.187V6.17382C25.187 6.01108 25.2519 5.85501 25.3676 5.73994C25.4832 5.62486 25.6401 5.56022 25.8036 5.56022C25.8848 5.55991 25.9653 5.57555 26.0404 5.60625C26.1155 5.63694 26.1837 5.68209 26.2412 5.7391C26.2988 5.79611 26.3444 5.86386 26.3755 5.93846C26.4067 6.01306 26.4227 6.09304 26.4227 6.17382V8.21524H27.6086C27.66 8.21524 27.7109 8.22532 27.7584 8.24488C27.8059 8.26445 27.849 8.29314 27.8854 8.3293C27.9217 8.36546 27.9505 8.40838 27.9702 8.45563C27.9899 8.50287 28 8.55351 28 8.60465V9.05541C27.9988 9.15625 27.9583 9.2527 27.8871 9.32445C27.8159 9.3962 27.7195 9.43766 27.6181 9.44009H27.3122V10.2543C27.3122 11.8308 26.7761 12.7701 25.2368 13.0155V14.4174L25.0636 14.4221ZM10.0117 16.8222H11.6459C11.7023 16.8222 11.7581 16.8333 11.8102 16.8548C11.8623 16.8762 11.9096 16.9077 11.9495 16.9474C11.9894 16.987 12.021 17.0341 12.0426 17.0859C12.0641 17.1378 12.0752 17.1933 12.0752 17.2494C12.0741 17.3335 12.0485 17.4154 12.0017 17.4854L8.10946 24.0935C8.058 24.1808 7.9769 24.2469 7.88077 24.28C7.78465 24.3131 7.67981 24.3109 7.58513 24.2739C7.49046 24.2369 7.41217 24.1675 7.36436 24.0782C7.31656 23.9889 7.30238 23.8855 7.32437 23.7867L7.89837 19.7345L5.96292 19.7676C5.85049 19.7688 5.7421 19.7259 5.66128 19.6481C5.58046 19.5704 5.53373 19.464 5.53124 19.3522C5.52854 19.2733 5.54915 19.1953 5.59053 19.128L9.41637 12.5199C9.46982 12.4416 9.5479 12.3832 9.63835 12.3538C9.72879 12.3244 9.82648 12.3258 9.91607 12.3577C10.0057 12.3896 10.0821 12.4501 10.1333 12.5299C10.1845 12.6097 10.2077 12.7041 10.1991 12.7984L10.0022 16.8222H10.0117ZM5.18494 2.95947H12.7322C13.1096 2.9598 13.4713 3.10921 13.7379 3.37484C13.7545 3.39372 13.7735 3.41024 13.7901 3.43148C14.0262 3.68996 14.158 4.02618 14.1601 4.37549V9.16633C14.1601 9.54188 14.0102 9.90205 13.7433 10.1676C13.4764 10.4332 13.1144 10.5823 12.737 10.5823H5.18494C4.80846 10.5814 4.44769 10.432 4.18164 10.167C3.91467 9.90168 3.76452 9.54176 3.76419 9.16633V4.37313C3.76452 3.9977 3.91467 3.63777 4.18164 3.37248C4.19949 3.35472 4.21851 3.33817 4.23856 3.32292C4.49905 3.08967 4.83688 2.96026 5.18731 2.95947H5.18494ZM16.2331 26.3119H1.72201C1.6416 26.347 1.56842 26.3966 1.50617 26.4582C1.4415 26.5223 1.39019 26.5984 1.35519 26.6822C1.32018 26.7661 1.30217 26.856 1.30218 26.9467V27.7114H16.6601V26.9467C16.6581 26.7638 16.585 26.5887 16.4561 26.4582C16.3919 26.395 16.3163 26.3446 16.2331 26.3095V26.3119Z" fill="#FFBC03"/>
</svg>
