<svg width="32" height="29" viewBox="0 0 32 29" fill="none" xmlns="http://www.w3.org/2000/svg">
<path d="M20.9217 17.2499L13.2192 3.83328C13.0513 3.53831 12.8077 3.29296 12.5134 3.12227C12.2191 2.95157 11.8846 2.86163 11.5439 2.86163C11.2033 2.86163 10.8688 2.95157 10.5745 3.12227C10.2802 3.29296 10.0366 3.53831 9.86867 3.83328L2.16623 17.2499C1.99647 17.5426 1.90746 17.8747 1.90821 18.2126C1.90896 18.5505 1.99945 18.8822 2.17051 19.1741C2.34157 19.466 2.58712 19.7077 2.88226 19.8747C3.17741 20.0416 3.51166 20.128 3.85114 20.1249H19.256C19.5939 20.1246 19.9257 20.0358 20.2181 19.8674C20.5106 19.6991 20.7534 19.4571 20.9222 19.1658C21.0909 18.8745 21.1797 18.5441 21.1796 18.2078C21.1796 17.8715 21.0906 17.5412 20.9217 17.2499Z" fill="#FF9133" stroke="#282828" stroke-linecap="round" stroke-linejoin="round"/>
<path d="M11.5527 8.625V12.4583" stroke="#282828" stroke-width="1.91667" stroke-linecap="round" stroke-linejoin="round"/>
<path d="M11.5527 16.2916H11.5633" stroke="#282828" stroke-width="1.91667" stroke-linecap="round" stroke-linejoin="round"/>
<path d="M10.7009 15.3C10.4768 15.5238 10.2991 15.7896 10.1778 16.0821C10.0566 16.3747 9.99414 16.6883 9.99414 17.005C9.99414 17.3217 10.0566 17.6353 10.1778 17.9278C10.2991 18.2204 10.4768 18.4862 10.7009 18.71L18.2909 26.3C18.5147 26.524 18.7805 26.7018 19.073 26.823C19.3656 26.9443 19.6792 27.0067 19.9959 27.0067C20.3126 27.0067 20.6262 26.9443 20.9187 26.823C21.2113 26.7018 21.4771 26.524 21.7009 26.3L29.2909 18.71C29.5149 18.4862 29.6927 18.2204 29.8139 17.9278C29.9352 17.6353 29.9976 17.3217 29.9976 17.005C29.9976 16.6883 29.9352 16.3747 29.8139 16.0821C29.6927 15.7896 29.5149 15.5238 29.2909 15.3L21.7009 7.70998C21.4771 7.48593 21.2113 7.30819 20.9187 7.18692C20.6262 7.06565 20.3126 7.00323 19.9959 7.00323C19.6792 7.00323 19.3656 7.06565 19.073 7.18692C18.7805 7.30819 18.5147 7.48593 18.2909 7.70998L10.7009 15.3Z" fill="#FF6133" stroke="#282828" stroke-width="2" stroke-linecap="round" stroke-linejoin="round"/>
<path d="M20 14V17.8333" stroke="#282828" stroke-width="1.91667" stroke-linecap="round" stroke-linejoin="round"/>
<path d="M20 21H20.0106" stroke="#282828" stroke-width="1.91667" stroke-linecap="round" stroke-linejoin="round"/>
</svg>
